<svg width="28" height="28" viewBox="0 0 28 28" fill="none" xmlns="http://www.w3.org/2000/svg">
<path fill-rule="evenodd" clip-rule="evenodd" d="M2.91675 5.83335C2.91675 5.18902 3.43908 4.66669 4.08341 4.66669H23.9167C24.5611 4.66669 25.0834 5.18902 25.0834 5.83335V22.1667C25.0834 22.811 24.5611 23.3334 23.9167 23.3334H4.08341C3.43908 23.3334 2.91675 22.811 2.91675 22.1667V5.83335Z" stroke="#968080" stroke-width="0.583333" stroke-linecap="round" stroke-linejoin="round"/>
<path fill-rule="evenodd" clip-rule="evenodd" d="M8.45825 10.5C8.94149 10.5 9.33325 10.1082 9.33325 9.625C9.33325 9.14177 8.94149 8.75 8.45825 8.75C7.97502 8.75 7.58325 9.14177 7.58325 9.625C7.58325 10.1082 7.97502 10.5 8.45825 10.5Z" stroke="#968080" stroke-width="0.583333" stroke-linecap="round" stroke-linejoin="round"/>
<path d="M8.75008 14L11.6667 16.3333L15.1667 12.25L25.0834 19.8333V22.1667C25.0834 22.811 24.5611 23.3333 23.9167 23.3333H4.08341C3.43908 23.3333 2.91675 22.811 2.91675 22.1667V19.8333L8.75008 14Z" stroke="#968080" stroke-width="0.583333" stroke-linejoin="round"/>
</svg>
