<svg width="40" height="40" viewBox="0 0 40 40" fill="none" xmlns="http://www.w3.org/2000/svg">
<path d="M20 16.6667C23.2216 16.6667 25.8333 14.055 25.8333 10.8333C25.8333 7.61168 23.2216 5 20 5C16.7783 5 14.1666 7.61168 14.1666 10.8333C14.1666 14.055 16.7783 16.6667 20 16.6667Z" stroke="#968080" stroke-linecap="round" stroke-linejoin="round"/>
<path d="M5 34V35H35V34C35 30.2664 35 28.3995 34.2734 26.9735C33.6343 25.719 32.6143 24.6991 31.3599 24.06C29.9338 23.3334 28.067 23.3334 24.3333 23.3334H15.6667C11.933 23.3334 10.0662 23.3334 8.64008 24.06C7.38565 24.6991 6.36578 25.719 5.72663 26.9735C5 28.3995 5 30.2664 5 34Z" stroke="#968080" stroke-linecap="round" stroke-linejoin="round"/>
</svg>
