<svg width="28" height="28" viewBox="0 0 28 28" fill="none" xmlns="http://www.w3.org/2000/svg">
<path d="M4.08325 21.5833C4.08325 17.0897 4.08325 6.41666 4.08325 6.41666C4.08325 4.48366 5.65025 2.91666 7.58325 2.91666H20.4166V18.0833C20.4166 18.0833 10.6356 18.0833 7.58325 18.0833C5.65825 18.0833 4.08325 19.6491 4.08325 21.5833Z" stroke="#968080" stroke-width="0.583333" stroke-linejoin="round"/>
<path d="M20.4166 18.0833C20.4166 18.0833 8.25624 18.0833 7.58325 18.0833C5.65025 18.0833 4.08325 19.6504 4.08325 21.5833C4.08325 23.5163 5.65025 25.0833 7.58325 25.0833C8.87189 25.0833 15.0941 25.0833 23.9166 25.0833V4.08334" stroke="#968080" stroke-width="0.583333" stroke-linecap="round" stroke-linejoin="round"/>
<path d="M8.16675 21.5833H19.8334" stroke="#968080" stroke-width="0.583333" stroke-linecap="round" stroke-linejoin="round"/>
</svg>
