<svg width="850" height="146" viewBox="0 0 850 146" fill="none" xmlns="http://www.w3.org/2000/svg">
<path d="M609 96C611.436 96 613.791 96.3501 616.018 97H733C741.284 97 748 103.716 748 112C748 120.284 741.284 127 733 127H633.273C630.586 137.909 620.739 146 609 146H183C169.193 146 158 134.807 158 121C158 107.193 169.193 96 183 96H609ZM835 0C843.284 0 850 6.71573 850 15C850 23.2843 843.284 30 835 30H550.755C552.199 33.377 553 37.0948 553 41C553 48.334 550.179 55.0081 545.564 60H645C650.523 60 655 64.4771 655 70C655 75.5229 650.523 80 645 80H480.496C478.72 86.9009 472.455 92 465 92H16C7.16344 92 7.72516e-07 84.8366 0 76C-1.65646e-08 67.1634 7.16344 60 16 60H78.4355C73.8211 55.0081 71 48.334 71 41C71 25.536 83.536 13 99 13H441.133C442.111 5.66132 448.394 0 456 0H835Z" fill="url(#paint0_linear_10_316)"/>
<defs>
<linearGradient id="paint0_linear_10_316" x1="292" y1="-253.5" x2="425" y2="146" gradientUnits="userSpaceOnUse">
<stop stop-color="#53A1C9"/>
<stop offset="0.33" stop-color="#B7A9DD"/>
<stop offset="0.66" stop-color="#FDC3BE"/>
<stop offset="1" stop-color="#FFF6E3"/>
</linearGradient>
</defs>
</svg>
