<svg width="1190" height="275" viewBox="0 0 1190 275" fill="none" xmlns="http://www.w3.org/2000/svg">
<mask id="mask0_0_1" style="mask-type:alpha" maskUnits="userSpaceOnUse" x="0" y="0" width="1190" height="275">
<rect width="1190" height="275" rx="20" fill="white"/>
</mask>
<g mask="url(#mask0_0_1)">
<path d="M29.18 50.5L25.66 38.26H5.9L2.38 50.5H-12.5L6.94 -6.86H24.38L44.06 50.5H29.18ZM19.26 15.46C18.9933 14.5 18.62 13.22 18.14 11.62C17.7133 9.96666 17.26 8.28666 16.78 6.58C16.3533 4.87333 16.0067 3.43333 15.74 2.26C15.5267 3.43333 15.18 4.9 14.7 6.66C14.2733 8.36666 13.8467 10.0467 13.42 11.7C12.9933 13.3 12.6467 14.5533 12.38 15.46L9.02 26.9H22.62L19.26 15.46ZM63.3425 3.7C63.3425 5.3 63.2892 6.87333 63.1825 8.42C63.0758 9.91333 62.9425 11.1933 62.7825 12.26H63.3425C64.4625 10.4467 65.9825 8.92666 67.9025 7.7C69.8758 6.42 72.3825 5.78 75.4225 5.78C80.1692 5.78 84.0358 7.7 87.0225 11.54C90.0625 15.38 91.5825 21.0067 91.5825 28.42C91.5825 33.4333 90.8625 37.6467 89.4225 41.06C88.0358 44.4733 86.1158 47.0333 83.6625 48.74C81.2092 50.4467 78.3292 51.3 75.0225 51.3C71.8758 51.3 69.4225 50.74 67.6625 49.62C65.9025 48.5 64.4625 47.2733 63.3425 45.94H62.4625L60.3025 50.5H49.8225V-10.3H63.3425V3.7ZM70.7825 16.42C69.0225 16.42 67.5825 16.82 66.4625 17.62C65.3958 18.3667 64.5958 19.5133 64.0625 21.06C63.5825 22.6067 63.3425 24.58 63.3425 26.98V28.66C63.3425 32.5 63.8758 35.4333 64.9425 37.46C66.0625 39.4333 68.0625 40.42 70.9425 40.42C73.0758 40.42 74.7558 39.38 75.9825 37.3C77.2092 35.22 77.8225 32.2067 77.8225 28.26C77.8225 24.3667 77.2092 21.4333 75.9825 19.46C74.7558 17.4333 73.0225 16.42 70.7825 16.42ZM141.718 28.42C141.718 32.1 141.211 35.3533 140.198 38.18C139.238 41.0067 137.798 43.4067 135.878 45.38C134.011 47.3533 131.745 48.8467 129.078 49.86C126.465 50.82 123.451 51.3 120.038 51.3C116.945 51.3 114.065 50.82 111.398 49.86C108.785 48.8467 106.518 47.38 104.598 45.46C102.731 43.4867 101.265 41.0867 100.198 38.26C99.1315 35.38 98.5981 32.1 98.5981 28.42C98.5981 23.5667 99.4515 19.46 101.158 16.1C102.918 12.74 105.425 10.18 108.678 8.42C111.931 6.66 115.798 5.78 120.278 5.78C124.491 5.78 128.198 6.66 131.398 8.42C134.598 10.18 137.105 12.74 138.918 16.1C140.785 19.46 141.718 23.5667 141.718 28.42ZM112.278 28.42C112.278 31.14 112.545 33.4333 113.078 35.3C113.611 37.1667 114.465 38.58 115.638 39.54C116.811 40.4467 118.331 40.9 120.198 40.9C122.118 40.9 123.638 40.4467 124.758 39.54C125.878 38.58 126.705 37.1667 127.238 35.3C127.771 33.4333 128.038 31.14 128.038 28.42C128.038 25.7 127.771 23.4333 127.238 21.62C126.705 19.8067 125.851 18.4467 124.678 17.54C123.558 16.6333 122.038 16.18 120.118 16.18C117.398 16.18 115.398 17.22 114.118 19.3C112.891 21.3267 112.278 24.3667 112.278 28.42ZM192.514 6.58V50.5H182.274L180.514 44.9H179.714C178.808 46.3933 177.634 47.62 176.194 48.58C174.808 49.4867 173.261 50.1533 171.554 50.58C169.901 51.06 168.168 51.3 166.354 51.3C163.368 51.3 160.701 50.74 158.354 49.62C156.008 48.5 154.168 46.7667 152.834 44.42C151.501 42.02 150.834 38.9533 150.834 35.22V6.58H164.354V31.46C164.354 34.4467 164.834 36.7133 165.794 38.26C166.808 39.8067 168.408 40.58 170.594 40.58C172.781 40.58 174.488 40.0467 175.714 38.98C176.941 37.9133 177.794 36.34 178.274 34.26C178.754 32.1267 178.994 29.5667 178.994 26.58V6.58H192.514ZM223.961 40.58C225.348 40.58 226.628 40.4467 227.801 40.18C228.975 39.9133 230.175 39.5667 231.401 39.14V49.06C229.961 49.7 228.308 50.2333 226.441 50.66C224.575 51.0867 222.361 51.3 219.801 51.3C217.081 51.3 214.655 50.8733 212.521 50.02C210.441 49.1133 208.788 47.5933 207.561 45.46C206.388 43.2733 205.801 40.26 205.801 36.42V16.66H200.201V11.06L206.921 6.74L210.601 -2.54H219.241V6.58H230.921V16.66H219.241V35.94C219.241 37.4867 219.668 38.66 220.521 39.46C221.375 40.2067 222.521 40.58 223.961 40.58ZM308.926 29.14C308.926 33.5133 308.046 37.38 306.286 40.74C304.526 44.0467 301.859 46.6333 298.286 48.5C294.712 50.3667 290.206 51.3 284.766 51.3C277.086 51.3 271.219 49.3267 267.166 45.38C263.112 41.4333 261.086 36.0467 261.086 29.22V-6.62H274.766V27.7C274.766 32.0733 275.619 35.1933 277.326 37.06C279.086 38.9267 281.672 39.86 285.086 39.86C287.486 39.86 289.432 39.4333 290.926 38.58C292.419 37.7267 293.512 36.3933 294.206 34.58C294.952 32.7667 295.326 30.4467 295.326 27.62V-6.62H308.926V29.14ZM352.594 37.22C352.594 40.1 351.928 42.6067 350.594 44.74C349.314 46.82 347.288 48.4467 344.514 49.62C341.741 50.74 338.221 51.3 333.954 51.3C330.861 51.3 328.141 51.1133 325.794 50.74C323.501 50.3667 321.181 49.7 318.834 48.74V37.86C321.394 38.98 324.061 39.86 326.834 40.5C329.661 41.14 332.008 41.46 333.874 41.46C335.901 41.46 337.368 41.1933 338.274 40.66C339.181 40.1267 339.634 39.38 339.634 38.42C339.634 37.7267 339.394 37.1133 338.914 36.58C338.488 36.0467 337.581 35.4333 336.194 34.74C334.861 34.0467 332.861 33.1667 330.194 32.1C327.581 30.98 325.421 29.8333 323.714 28.66C322.061 27.4867 320.808 26.0733 319.954 24.42C319.154 22.7667 318.754 20.74 318.754 18.34C318.754 14.18 320.354 11.06 323.554 8.98C326.808 6.84666 331.101 5.78 336.434 5.78C339.261 5.78 341.928 6.07333 344.434 6.66C346.941 7.24667 349.528 8.15333 352.194 9.38L348.354 18.5C346.914 17.86 345.474 17.3 344.034 16.82C342.648 16.34 341.314 15.9667 340.034 15.7C338.754 15.4333 337.554 15.3 336.434 15.3C334.941 15.3 333.794 15.5133 332.994 15.94C332.194 16.3133 331.794 16.9 331.794 17.7C331.794 18.2867 332.008 18.8467 332.434 19.38C332.914 19.86 333.794 20.3933 335.074 20.98C336.408 21.5667 338.328 22.3933 340.834 23.46C343.341 24.4733 345.474 25.54 347.234 26.66C348.994 27.78 350.328 29.1667 351.234 30.82C352.141 32.4733 352.594 34.6067 352.594 37.22Z" fill="#F3F3F3"/>
<path d="M29.18 129.378L25.66 117.138H5.9L2.38 129.378H-12.5L6.94 72.018H24.38L44.06 129.378H29.18ZM19.26 94.338C18.9933 93.378 18.62 92.098 18.14 90.498C17.7133 88.8447 17.26 87.1647 16.78 85.458C16.3533 83.7513 16.0067 82.3113 15.74 81.138C15.5267 82.3113 15.18 83.778 14.7 85.538C14.2733 87.2447 13.8467 88.9247 13.42 90.578C12.9933 92.178 12.6467 93.4313 12.38 94.338L9.02 105.778H22.62L19.26 94.338ZM63.3425 82.578C63.3425 84.178 63.2892 85.7513 63.1825 87.298C63.0758 88.7913 62.9425 90.0713 62.7825 91.138H63.3425C64.4625 89.3247 65.9825 87.8047 67.9025 86.578C69.8758 85.298 72.3825 84.658 75.4225 84.658C80.1692 84.658 84.0358 86.578 87.0225 90.418C90.0625 94.258 91.5825 99.8847 91.5825 107.298C91.5825 112.311 90.8625 116.525 89.4225 119.938C88.0358 123.351 86.1158 125.911 83.6625 127.618C81.2092 129.325 78.3292 130.178 75.0225 130.178C71.8758 130.178 69.4225 129.618 67.6625 128.498C65.9025 127.378 64.4625 126.151 63.3425 124.818H62.4625L60.3025 129.378H49.8225V68.578H63.3425V82.578ZM70.7825 95.298C69.0225 95.298 67.5825 95.698 66.4625 96.498C65.3958 97.2447 64.5958 98.3913 64.0625 99.938C63.5825 101.485 63.3425 103.458 63.3425 105.858V107.538C63.3425 111.378 63.8758 114.311 64.9425 116.338C66.0625 118.311 68.0625 119.298 70.9425 119.298C73.0758 119.298 74.7558 118.258 75.9825 116.178C77.2092 114.098 77.8225 111.085 77.8225 107.138C77.8225 103.245 77.2092 100.311 75.9825 98.338C74.7558 96.3113 73.0225 95.298 70.7825 95.298ZM141.718 107.298C141.718 110.978 141.211 114.231 140.198 117.058C139.238 119.885 137.798 122.285 135.878 124.258C134.011 126.231 131.745 127.725 129.078 128.738C126.465 129.698 123.451 130.178 120.038 130.178C116.945 130.178 114.065 129.698 111.398 128.738C108.785 127.725 106.518 126.258 104.598 124.338C102.731 122.365 101.265 119.965 100.198 117.138C99.1315 114.258 98.5981 110.978 98.5981 107.298C98.5981 102.445 99.4515 98.338 101.158 94.978C102.918 91.618 105.425 89.058 108.678 87.298C111.931 85.538 115.798 84.658 120.278 84.658C124.491 84.658 128.198 85.538 131.398 87.298C134.598 89.058 137.105 91.618 138.918 94.978C140.785 98.338 141.718 102.445 141.718 107.298ZM112.278 107.298C112.278 110.018 112.545 112.311 113.078 114.178C113.611 116.045 114.465 117.458 115.638 118.418C116.811 119.325 118.331 119.778 120.198 119.778C122.118 119.778 123.638 119.325 124.758 118.418C125.878 117.458 126.705 116.045 127.238 114.178C127.771 112.311 128.038 110.018 128.038 107.298C128.038 104.578 127.771 102.311 127.238 100.498C126.705 98.6847 125.851 97.3247 124.678 96.418C123.558 95.5113 122.038 95.058 120.118 95.058C117.398 95.058 115.398 96.098 114.118 98.178C112.891 100.205 112.278 103.245 112.278 107.298ZM192.514 85.458V129.378H182.274L180.514 123.778H179.714C178.808 125.271 177.634 126.498 176.194 127.458C174.808 128.365 173.261 129.031 171.554 129.458C169.901 129.938 168.168 130.178 166.354 130.178C163.368 130.178 160.701 129.618 158.354 128.498C156.008 127.378 154.168 125.645 152.834 123.298C151.501 120.898 150.834 117.831 150.834 114.098V85.458H164.354V110.338C164.354 113.325 164.834 115.591 165.794 117.138C166.808 118.685 168.408 119.458 170.594 119.458C172.781 119.458 174.488 118.925 175.714 117.858C176.941 116.791 177.794 115.218 178.274 113.138C178.754 111.005 178.994 108.445 178.994 105.458V85.458H192.514ZM223.961 119.458C225.348 119.458 226.628 119.325 227.801 119.058C228.975 118.791 230.175 118.445 231.401 118.018V127.938C229.961 128.578 228.308 129.111 226.441 129.538C224.575 129.965 222.361 130.178 219.801 130.178C217.081 130.178 214.655 129.751 212.521 128.898C210.441 127.991 208.788 126.471 207.561 124.338C206.388 122.151 205.801 119.138 205.801 115.298V95.538H200.201V89.938L206.921 85.618L210.601 76.338H219.241V85.458H230.921V95.538H219.241V114.818C219.241 116.365 219.668 117.538 220.521 118.338C221.375 119.085 222.521 119.458 223.961 119.458ZM308.926 108.018C308.926 112.391 308.046 116.258 306.286 119.618C304.526 122.925 301.859 125.511 298.286 127.378C294.712 129.245 290.206 130.178 284.766 130.178C277.086 130.178 271.219 128.205 267.166 124.258C263.112 120.311 261.086 114.925 261.086 108.098V72.258H274.766V106.578C274.766 110.951 275.619 114.071 277.326 115.938C279.086 117.805 281.672 118.738 285.086 118.738C287.486 118.738 289.432 118.311 290.926 117.458C292.419 116.605 293.512 115.271 294.206 113.458C294.952 111.645 295.326 109.325 295.326 106.498V72.258H308.926V108.018ZM352.594 116.098C352.594 118.978 351.928 121.485 350.594 123.618C349.314 125.698 347.288 127.325 344.514 128.498C341.741 129.618 338.221 130.178 333.954 130.178C330.861 130.178 328.141 129.991 325.794 129.618C323.501 129.245 321.181 128.578 318.834 127.618V116.738C321.394 117.858 324.061 118.738 326.834 119.378C329.661 120.018 332.008 120.338 333.874 120.338C335.901 120.338 337.368 120.071 338.274 119.538C339.181 119.005 339.634 118.258 339.634 117.298C339.634 116.605 339.394 115.991 338.914 115.458C338.488 114.925 337.581 114.311 336.194 113.618C334.861 112.925 332.861 112.045 330.194 110.978C327.581 109.858 325.421 108.711 323.714 107.538C322.061 106.365 320.808 104.951 319.954 103.298C319.154 101.645 318.754 99.618 318.754 97.218C318.754 93.058 320.354 89.938 323.554 87.858C326.808 85.7247 331.101 84.658 336.434 84.658C339.261 84.658 341.928 84.9513 344.434 85.538C346.941 86.1247 349.528 87.0313 352.194 88.258L348.354 97.378C346.914 96.738 345.474 96.178 344.034 95.698C342.648 95.218 341.314 94.8447 340.034 94.578C338.754 94.3113 337.554 94.178 336.434 94.178C334.941 94.178 333.794 94.3913 332.994 94.818C332.194 95.1913 331.794 95.778 331.794 96.578C331.794 97.1647 332.008 97.7247 332.434 98.258C332.914 98.738 333.794 99.2713 335.074 99.858C336.408 100.445 338.328 101.271 340.834 102.338C343.341 103.351 345.474 104.418 347.234 105.538C348.994 106.658 350.328 108.045 351.234 109.698C352.141 111.351 352.594 113.485 352.594 116.098Z" fill="#F3F3F3"/>
<path d="M29.18 208.256L25.66 196.016H5.9L2.38 208.256H-12.5L6.94 150.896H24.38L44.06 208.256H29.18ZM19.26 173.216C18.9933 172.256 18.62 170.976 18.14 169.376C17.7133 167.723 17.26 166.043 16.78 164.336C16.3533 162.629 16.0067 161.189 15.74 160.016C15.5267 161.189 15.18 162.656 14.7 164.416C14.2733 166.123 13.8467 167.803 13.42 169.456C12.9933 171.056 12.6467 172.309 12.38 173.216L9.02 184.656H22.62L19.26 173.216ZM63.3425 161.456C63.3425 163.056 63.2892 164.629 63.1825 166.176C63.0758 167.669 62.9425 168.949 62.7825 170.016H63.3425C64.4625 168.203 65.9825 166.683 67.9025 165.456C69.8758 164.176 72.3825 163.536 75.4225 163.536C80.1692 163.536 84.0358 165.456 87.0225 169.296C90.0625 173.136 91.5825 178.763 91.5825 186.176C91.5825 191.189 90.8625 195.403 89.4225 198.816C88.0358 202.229 86.1158 204.789 83.6625 206.496C81.2092 208.203 78.3292 209.056 75.0225 209.056C71.8758 209.056 69.4225 208.496 67.6625 207.376C65.9025 206.256 64.4625 205.029 63.3425 203.696H62.4625L60.3025 208.256H49.8225V147.456H63.3425V161.456ZM70.7825 174.176C69.0225 174.176 67.5825 174.576 66.4625 175.376C65.3958 176.123 64.5958 177.269 64.0625 178.816C63.5825 180.363 63.3425 182.336 63.3425 184.736V186.416C63.3425 190.256 63.8758 193.189 64.9425 195.216C66.0625 197.189 68.0625 198.176 70.9425 198.176C73.0758 198.176 74.7558 197.136 75.9825 195.056C77.2092 192.976 77.8225 189.963 77.8225 186.016C77.8225 182.123 77.2092 179.189 75.9825 177.216C74.7558 175.189 73.0225 174.176 70.7825 174.176ZM141.718 186.176C141.718 189.856 141.211 193.109 140.198 195.936C139.238 198.763 137.798 201.163 135.878 203.136C134.011 205.109 131.745 206.603 129.078 207.616C126.465 208.576 123.451 209.056 120.038 209.056C116.945 209.056 114.065 208.576 111.398 207.616C108.785 206.603 106.518 205.136 104.598 203.216C102.731 201.243 101.265 198.843 100.198 196.016C99.1315 193.136 98.5981 189.856 98.5981 186.176C98.5981 181.323 99.4515 177.216 101.158 173.856C102.918 170.496 105.425 167.936 108.678 166.176C111.931 164.416 115.798 163.536 120.278 163.536C124.491 163.536 128.198 164.416 131.398 166.176C134.598 167.936 137.105 170.496 138.918 173.856C140.785 177.216 141.718 181.323 141.718 186.176ZM112.278 186.176C112.278 188.896 112.545 191.189 113.078 193.056C113.611 194.923 114.465 196.336 115.638 197.296C116.811 198.203 118.331 198.656 120.198 198.656C122.118 198.656 123.638 198.203 124.758 197.296C125.878 196.336 126.705 194.923 127.238 193.056C127.771 191.189 128.038 188.896 128.038 186.176C128.038 183.456 127.771 181.189 127.238 179.376C126.705 177.563 125.851 176.203 124.678 175.296C123.558 174.389 122.038 173.936 120.118 173.936C117.398 173.936 115.398 174.976 114.118 177.056C112.891 179.083 112.278 182.123 112.278 186.176ZM192.514 164.336V208.256H182.274L180.514 202.656H179.714C178.808 204.149 177.634 205.376 176.194 206.336C174.808 207.243 173.261 207.909 171.554 208.336C169.901 208.816 168.168 209.056 166.354 209.056C163.368 209.056 160.701 208.496 158.354 207.376C156.008 206.256 154.168 204.523 152.834 202.176C151.501 199.776 150.834 196.709 150.834 192.976V164.336H164.354V189.216C164.354 192.203 164.834 194.469 165.794 196.016C166.808 197.563 168.408 198.336 170.594 198.336C172.781 198.336 174.488 197.803 175.714 196.736C176.941 195.669 177.794 194.096 178.274 192.016C178.754 189.883 178.994 187.323 178.994 184.336V164.336H192.514ZM223.961 198.336C225.348 198.336 226.628 198.203 227.801 197.936C228.975 197.669 230.175 197.323 231.401 196.896V206.816C229.961 207.456 228.308 207.989 226.441 208.416C224.575 208.843 222.361 209.056 219.801 209.056C217.081 209.056 214.655 208.629 212.521 207.776C210.441 206.869 208.788 205.349 207.561 203.216C206.388 201.029 205.801 198.016 205.801 194.176V174.416H200.201V168.816L206.921 164.496L210.601 155.216H219.241V164.336H230.921V174.416H219.241V193.696C219.241 195.243 219.668 196.416 220.521 197.216C221.375 197.963 222.521 198.336 223.961 198.336ZM308.926 186.896C308.926 191.269 308.046 195.136 306.286 198.496C304.526 201.803 301.859 204.389 298.286 206.256C294.712 208.123 290.206 209.056 284.766 209.056C277.086 209.056 271.219 207.083 267.166 203.136C263.112 199.189 261.086 193.803 261.086 186.976V151.136H274.766V185.456C274.766 189.829 275.619 192.949 277.326 194.816C279.086 196.683 281.672 197.616 285.086 197.616C287.486 197.616 289.432 197.189 290.926 196.336C292.419 195.483 293.512 194.149 294.206 192.336C294.952 190.523 295.326 188.203 295.326 185.376V151.136H308.926V186.896ZM352.594 194.976C352.594 197.856 351.928 200.363 350.594 202.496C349.314 204.576 347.288 206.203 344.514 207.376C341.741 208.496 338.221 209.056 333.954 209.056C330.861 209.056 328.141 208.869 325.794 208.496C323.501 208.123 321.181 207.456 318.834 206.496V195.616C321.394 196.736 324.061 197.616 326.834 198.256C329.661 198.896 332.008 199.216 333.874 199.216C335.901 199.216 337.368 198.949 338.274 198.416C339.181 197.883 339.634 197.136 339.634 196.176C339.634 195.483 339.394 194.869 338.914 194.336C338.488 193.803 337.581 193.189 336.194 192.496C334.861 191.803 332.861 190.923 330.194 189.856C327.581 188.736 325.421 187.589 323.714 186.416C322.061 185.243 320.808 183.829 319.954 182.176C319.154 180.523 318.754 178.496 318.754 176.096C318.754 171.936 320.354 168.816 323.554 166.736C326.808 164.603 331.101 163.536 336.434 163.536C339.261 163.536 341.928 163.829 344.434 164.416C346.941 165.003 349.528 165.909 352.194 167.136L348.354 176.256C346.914 175.616 345.474 175.056 344.034 174.576C342.648 174.096 341.314 173.723 340.034 173.456C338.754 173.189 337.554 173.056 336.434 173.056C334.941 173.056 333.794 173.269 332.994 173.696C332.194 174.069 331.794 174.656 331.794 175.456C331.794 176.043 332.008 176.603 332.434 177.136C332.914 177.616 333.794 178.149 335.074 178.736C336.408 179.323 338.328 180.149 340.834 181.216C343.341 182.229 345.474 183.296 347.234 184.416C348.994 185.536 350.328 186.923 351.234 188.576C352.141 190.229 352.594 192.363 352.594 194.976Z" fill="#F3F3F3"/>
<path d="M29.18 287.134L25.66 274.894H5.9L2.38 287.134H-12.5L6.94 229.774H24.38L44.06 287.134H29.18ZM19.26 252.094C18.9933 251.134 18.62 249.854 18.14 248.254C17.7133 246.601 17.26 244.921 16.78 243.214C16.3533 241.507 16.0067 240.067 15.74 238.894C15.5267 240.067 15.18 241.534 14.7 243.294C14.2733 245.001 13.8467 246.681 13.42 248.334C12.9933 249.934 12.6467 251.187 12.38 252.094L9.02 263.534H22.62L19.26 252.094ZM63.3425 240.334C63.3425 241.934 63.2892 243.507 63.1825 245.054C63.0758 246.547 62.9425 247.827 62.7825 248.894H63.3425C64.4625 247.081 65.9825 245.561 67.9025 244.334C69.8758 243.054 72.3825 242.414 75.4225 242.414C80.1692 242.414 84.0358 244.334 87.0225 248.174C90.0625 252.014 91.5825 257.641 91.5825 265.054C91.5825 270.067 90.8625 274.281 89.4225 277.694C88.0358 281.107 86.1158 283.667 83.6625 285.374C81.2092 287.081 78.3292 287.934 75.0225 287.934C71.8758 287.934 69.4225 287.374 67.6625 286.254C65.9025 285.134 64.4625 283.907 63.3425 282.574H62.4625L60.3025 287.134H49.8225V226.334H63.3425V240.334ZM70.7825 253.054C69.0225 253.054 67.5825 253.454 66.4625 254.254C65.3958 255.001 64.5958 256.147 64.0625 257.694C63.5825 259.241 63.3425 261.214 63.3425 263.614V265.294C63.3425 269.134 63.8758 272.067 64.9425 274.094C66.0625 276.067 68.0625 277.054 70.9425 277.054C73.0758 277.054 74.7558 276.014 75.9825 273.934C77.2092 271.854 77.8225 268.841 77.8225 264.894C77.8225 261.001 77.2092 258.067 75.9825 256.094C74.7558 254.067 73.0225 253.054 70.7825 253.054ZM141.718 265.054C141.718 268.734 141.211 271.987 140.198 274.814C139.238 277.641 137.798 280.041 135.878 282.014C134.011 283.987 131.745 285.481 129.078 286.494C126.465 287.454 123.451 287.934 120.038 287.934C116.945 287.934 114.065 287.454 111.398 286.494C108.785 285.481 106.518 284.014 104.598 282.094C102.731 280.121 101.265 277.721 100.198 274.894C99.1315 272.014 98.5981 268.734 98.5981 265.054C98.5981 260.201 99.4515 256.094 101.158 252.734C102.918 249.374 105.425 246.814 108.678 245.054C111.931 243.294 115.798 242.414 120.278 242.414C124.491 242.414 128.198 243.294 131.398 245.054C134.598 246.814 137.105 249.374 138.918 252.734C140.785 256.094 141.718 260.201 141.718 265.054ZM112.278 265.054C112.278 267.774 112.545 270.067 113.078 271.934C113.611 273.801 114.465 275.214 115.638 276.174C116.811 277.081 118.331 277.534 120.198 277.534C122.118 277.534 123.638 277.081 124.758 276.174C125.878 275.214 126.705 273.801 127.238 271.934C127.771 270.067 128.038 267.774 128.038 265.054C128.038 262.334 127.771 260.067 127.238 258.254C126.705 256.441 125.851 255.081 124.678 254.174C123.558 253.267 122.038 252.814 120.118 252.814C117.398 252.814 115.398 253.854 114.118 255.934C112.891 257.961 112.278 261.001 112.278 265.054ZM192.514 243.214V287.134H182.274L180.514 281.534H179.714C178.808 283.027 177.634 284.254 176.194 285.214C174.808 286.121 173.261 286.787 171.554 287.214C169.901 287.694 168.168 287.934 166.354 287.934C163.368 287.934 160.701 287.374 158.354 286.254C156.008 285.134 154.168 283.401 152.834 281.054C151.501 278.654 150.834 275.587 150.834 271.854V243.214H164.354V268.094C164.354 271.081 164.834 273.347 165.794 274.894C166.808 276.441 168.408 277.214 170.594 277.214C172.781 277.214 174.488 276.681 175.714 275.614C176.941 274.547 177.794 272.974 178.274 270.894C178.754 268.761 178.994 266.201 178.994 263.214V243.214H192.514ZM223.961 277.214C225.348 277.214 226.628 277.081 227.801 276.814C228.975 276.547 230.175 276.201 231.401 275.774V285.694C229.961 286.334 228.308 286.867 226.441 287.294C224.575 287.721 222.361 287.934 219.801 287.934C217.081 287.934 214.655 287.507 212.521 286.654C210.441 285.747 208.788 284.227 207.561 282.094C206.388 279.907 205.801 276.894 205.801 273.054V253.294H200.201V247.694L206.921 243.374L210.601 234.094H219.241V243.214H230.921V253.294H219.241V272.574C219.241 274.121 219.668 275.294 220.521 276.094C221.375 276.841 222.521 277.214 223.961 277.214ZM308.926 265.774C308.926 270.147 308.046 274.014 306.286 277.374C304.526 280.681 301.859 283.267 298.286 285.134C294.712 287.001 290.206 287.934 284.766 287.934C277.086 287.934 271.219 285.961 267.166 282.014C263.112 278.067 261.086 272.681 261.086 265.854V230.014H274.766V264.334C274.766 268.707 275.619 271.827 277.326 273.694C279.086 275.561 281.672 276.494 285.086 276.494C287.486 276.494 289.432 276.067 290.926 275.214C292.419 274.361 293.512 273.027 294.206 271.214C294.952 269.401 295.326 267.081 295.326 264.254V230.014H308.926V265.774ZM352.594 273.854C352.594 276.734 351.928 279.241 350.594 281.374C349.314 283.454 347.288 285.081 344.514 286.254C341.741 287.374 338.221 287.934 333.954 287.934C330.861 287.934 328.141 287.747 325.794 287.374C323.501 287.001 321.181 286.334 318.834 285.374V274.494C321.394 275.614 324.061 276.494 326.834 277.134C329.661 277.774 332.008 278.094 333.874 278.094C335.901 278.094 337.368 277.827 338.274 277.294C339.181 276.761 339.634 276.014 339.634 275.054C339.634 274.361 339.394 273.747 338.914 273.214C338.488 272.681 337.581 272.067 336.194 271.374C334.861 270.681 332.861 269.801 330.194 268.734C327.581 267.614 325.421 266.467 323.714 265.294C322.061 264.121 320.808 262.707 319.954 261.054C319.154 259.401 318.754 257.374 318.754 254.974C318.754 250.814 320.354 247.694 323.554 245.614C326.808 243.481 331.101 242.414 336.434 242.414C339.261 242.414 341.928 242.707 344.434 243.294C346.941 243.881 349.528 244.787 352.194 246.014L348.354 255.134C346.914 254.494 345.474 253.934 344.034 253.454C342.648 252.974 341.314 252.601 340.034 252.334C338.754 252.067 337.554 251.934 336.434 251.934C334.941 251.934 333.794 252.147 332.994 252.574C332.194 252.947 331.794 253.534 331.794 254.334C331.794 254.921 332.008 255.481 332.434 256.014C332.914 256.494 333.794 257.027 335.074 257.614C336.408 258.201 338.328 259.027 340.834 260.094C343.341 261.107 345.474 262.174 347.234 263.294C348.994 264.414 350.328 265.801 351.234 267.454C352.141 269.107 352.594 271.241 352.594 273.854Z" fill="#F3F3F3"/>
</g>
<circle cx="1162.5" cy="27.5" r="11.5" fill="#F3F3F3"/>
</svg>
