<svg width="1440" height="641" viewBox="0 0 1440 641" fill="none" xmlns="http://www.w3.org/2000/svg">
<g opacity="0.5">
<path d="M48.3162 252.219C-2.69463 274.237 -82.0132 444.333 -92.7761 467.834C-93.6127 469.661 -94 471.563 -94 473.572C-94 481.423 -87.6358 487.787 -79.7852 487.787H1461.97C1471.92 487.787 1479.97 479.728 1479.97 469.787V406.567C1479.97 401.49 1477.87 396.682 1474.04 393.349C1455.61 377.315 1398.91 329.926 1370.58 328.104C1336.46 325.909 1341.22 386.395 1314.82 377.735C1288.43 369.075 1270.56 181.869 1152.33 182.088C1034.1 182.306 957.194 458.519 880.972 458.656C804.75 458.792 791.297 250.072 746.091 252.219C700.884 254.366 671.994 391.184 588.905 394.639C505.817 398.093 524.53 42.9039 396.141 30.709C267.752 18.5141 211.681 263.109 169.183 266.245C126.684 269.381 103.131 228.558 48.3162 252.219Z" stroke="url(#paint0_linear_10_286)"/>
<path d="M213.189 383.924C162.178 405.942 82.8599 576.038 72.0971 599.539C71.2604 601.366 70.8731 603.268 70.8731 605.277C70.8731 613.128 77.2373 619.492 85.088 619.492H1626.85C1636.79 619.492 1644.85 611.433 1644.85 601.492V538.272C1644.85 533.195 1642.74 528.387 1638.91 525.054C1620.48 509.02 1563.79 461.631 1535.46 459.809C1501.33 457.614 1506.09 518.1 1479.7 509.44C1453.31 500.78 1435.43 313.574 1317.2 313.793C1198.98 314.011 1122.07 590.224 1045.85 590.361C969.624 590.497 956.17 381.776 910.964 383.924C865.757 386.071 836.867 522.889 753.779 526.344C670.69 529.798 689.403 174.609 561.014 162.414C432.626 150.219 376.554 394.814 334.056 397.95C291.557 401.086 268.004 360.263 213.189 383.924Z" fill="url(#paint1_linear_10_286)" fill-opacity="0.3"/>
<path d="M48.3162 270.337C-2.69463 292.356 -82.0132 462.451 -92.7761 485.952C-93.6127 487.779 -94 489.681 -94 491.69C-94 499.541 -87.6358 505.905 -79.7852 505.905H1461.97C1471.92 505.905 1479.97 497.846 1479.97 487.905V424.686C1479.97 419.608 1477.87 414.8 1474.04 411.467C1455.61 395.433 1398.91 348.044 1370.58 346.222C1336.46 344.028 1341.22 404.513 1314.82 395.853C1288.43 387.193 1270.56 199.988 1152.33 200.206C1034.1 200.425 957.194 476.637 880.972 476.774C804.75 476.91 791.297 268.19 746.091 270.337C700.884 272.484 671.994 409.302 588.905 412.757C505.817 416.211 524.53 61.0221 396.141 48.8272C267.752 36.6323 211.681 281.227 169.183 284.363C126.684 287.499 103.131 246.676 48.3162 270.337Z" stroke="url(#paint2_linear_10_286)"/>
<path d="M48.3162 270.025C-2.69463 292.043 -82.0132 462.139 -92.7761 485.64C-93.6127 487.467 -94 489.369 -94 491.378C-94 499.229 -87.6358 505.593 -79.7852 505.593H1461.97C1471.92 505.593 1479.97 497.534 1479.97 487.593V424.373C1479.97 419.296 1477.87 414.488 1474.04 411.155C1455.61 395.121 1398.91 347.732 1370.58 345.91C1336.46 343.715 1341.22 404.201 1314.82 395.541C1288.43 386.881 1270.56 199.675 1152.33 199.894C1034.1 200.112 957.194 476.325 880.972 476.462C804.75 476.598 791.297 267.877 746.091 270.025C700.884 272.172 671.994 408.99 588.905 412.444C505.817 415.899 524.53 60.7098 396.141 48.5149C267.752 36.32 211.681 280.915 169.183 284.051C126.684 287.187 103.131 246.364 48.3162 270.025Z" fill="url(#paint3_linear_10_286)" fill-opacity="0.3"/>
<path d="M48.3162 295.424C-2.69463 317.442 -82.0132 487.538 -92.7761 511.039C-93.6127 512.866 -94 514.768 -94 516.777C-94 524.628 -87.6358 530.992 -79.7852 530.992H1461.97C1471.92 530.992 1479.97 522.933 1479.97 512.992V449.772C1479.97 444.695 1477.87 439.887 1474.04 436.554C1455.61 420.52 1398.91 373.131 1370.58 371.309C1336.46 369.114 1341.22 429.6 1314.82 420.94C1288.43 412.28 1270.56 225.074 1152.33 225.293C1034.1 225.511 957.194 501.724 880.972 501.86C804.75 501.997 791.297 293.276 746.091 295.424C700.884 297.571 671.994 434.389 588.905 437.843C505.817 441.298 524.53 86.1087 396.141 73.9138C267.752 61.7189 211.681 306.314 169.183 309.45C126.684 312.586 103.131 271.763 48.3162 295.424Z" stroke="url(#paint4_linear_10_286)"/>
<path d="M645.341 310.754C594.33 332.773 515.012 502.869 504.249 526.37C503.412 528.197 503.025 530.098 503.025 532.108C503.025 539.958 509.389 546.323 517.24 546.323H2059C2068.94 546.323 2077 538.264 2077 528.323V465.103C2077 460.026 2074.89 455.218 2071.06 451.885C2052.63 435.851 1995.94 388.462 1967.61 386.64C1933.48 384.445 1938.24 444.931 1911.85 436.271C1885.46 427.611 1867.58 240.405 1749.35 240.623C1631.13 240.842 1554.22 517.055 1478 517.191C1401.78 517.328 1388.32 308.607 1343.12 310.754C1297.91 312.902 1269.02 449.719 1185.93 453.174C1102.84 456.629 1121.56 101.44 993.166 89.2446C864.777 77.0497 808.706 321.645 766.208 324.78C723.709 327.916 700.156 287.094 645.341 310.754Z" fill="url(#paint5_linear_10_286)" fill-opacity="0.3"/>
<path d="M48.3162 310.754C-2.69463 332.773 -82.0132 502.869 -92.7761 526.37C-93.6127 528.197 -94 530.098 -94 532.108C-94 539.958 -87.6358 546.323 -79.7852 546.323H1461.97C1471.92 546.323 1479.97 538.264 1479.97 528.323V465.103C1479.97 460.026 1477.87 455.218 1474.04 451.885C1455.61 435.851 1398.91 388.462 1370.58 386.64C1336.46 384.445 1341.22 444.931 1314.82 436.271C1288.43 427.611 1270.56 240.405 1152.33 240.623C1034.1 240.842 957.194 517.055 880.972 517.191C804.75 517.328 791.297 308.607 746.091 310.754C700.884 312.902 671.994 449.719 588.905 453.174C505.817 456.629 524.53 101.44 396.141 89.2446C267.752 77.0497 211.681 321.645 169.183 324.78C126.684 327.916 103.131 287.094 48.3162 310.754Z" stroke="url(#paint6_linear_10_286)"/>
<path d="M49.3403 222.951C-1.67058 244.97 -80.9891 415.065 -91.752 438.566C-92.5886 440.393 -92.976 442.295 -92.976 444.304C-92.976 452.155 -86.6117 458.519 -78.7611 458.519H1463C1472.94 458.519 1481 450.46 1481 440.519V377.3C1481 372.222 1478.89 367.414 1475.06 364.082C1456.63 348.047 1399.94 300.658 1371.61 298.836C1337.48 296.642 1342.24 357.127 1315.85 348.467C1289.46 339.807 1271.58 152.602 1153.35 152.82C1035.13 153.039 958.218 429.251 881.996 429.388C805.775 429.524 792.321 220.804 747.115 222.951C701.908 225.098 673.018 361.916 589.93 365.371C506.841 368.826 525.554 13.6362 397.165 1.44126C268.777 -10.7536 212.705 233.841 170.207 236.977C127.708 240.113 104.155 199.291 49.3403 222.951Z" fill="url(#paint7_linear_10_286)" fill-opacity="0.3"/>
<path d="M49.3403 223.263C-1.67058 245.282 -80.9891 415.377 -91.752 438.879C-92.5886 440.706 -92.976 442.607 -92.976 444.617C-92.976 452.467 -86.6117 458.831 -78.7611 458.831H1463C1472.94 458.831 1481 450.773 1481 440.832V377.612C1481 372.535 1478.89 367.726 1475.06 364.394C1456.63 348.36 1399.94 300.971 1371.61 299.148C1337.48 296.954 1342.24 357.44 1315.85 348.78C1289.46 340.12 1271.58 152.914 1153.35 153.132C1035.13 153.351 958.218 429.564 881.996 429.7C805.775 429.837 792.321 221.116 747.115 223.263C701.908 225.411 673.018 362.228 589.93 365.683C506.841 369.138 525.554 13.9484 397.165 1.75353C268.777 -10.4414 212.705 234.154 170.207 237.289C127.708 240.425 104.155 199.603 49.3403 223.263Z" stroke="url(#paint8_linear_10_286)"/>
<path d="M222.316 405.432C171.305 427.45 91.9868 597.546 81.2239 621.047C80.3873 622.874 80 624.776 80 626.785C80 634.636 86.3642 641 94.2148 641H1635.97C1645.92 641 1653.97 632.941 1653.97 623V559.78C1653.97 554.703 1651.87 549.895 1648.04 546.562C1629.61 530.528 1572.91 483.139 1544.58 481.317C1510.46 479.122 1515.22 539.608 1488.82 530.948C1462.43 522.288 1444.56 335.082 1326.33 335.301C1208.1 335.519 1131.19 611.732 1054.97 611.869C978.75 612.005 965.297 403.285 920.091 405.432C874.884 407.579 845.994 544.397 762.905 547.852C679.817 551.306 698.53 196.117 570.141 183.922C441.753 171.727 385.681 416.322 343.183 419.458C300.684 422.594 277.131 381.771 222.316 405.432Z" fill="url(#paint9_linear_10_286)" fill-opacity="0.3"/>
</g>
<defs>
<linearGradient id="paint0_linear_10_286" x1="692.987" y1="30.2678" x2="692.987" y2="487.787" gradientUnits="userSpaceOnUse">
<stop stop-color="#53A1C9"/>
<stop offset="0.33" stop-color="#B7A9DD"/>
<stop offset="0.66" stop-color="#FDC3BE"/>
<stop offset="1" stop-color="#FFF6E3"/>
</linearGradient>
<linearGradient id="paint1_linear_10_286" x1="857.86" y1="161.973" x2="857.86" y2="619.492" gradientUnits="userSpaceOnUse">
<stop stop-color="#53A1C9"/>
<stop offset="0.33" stop-color="#B7A9DD"/>
<stop offset="0.66" stop-color="#FDC3BE"/>
<stop offset="1" stop-color="#FFF6E3"/>
</linearGradient>
<linearGradient id="paint2_linear_10_286" x1="692.987" y1="48.3859" x2="692.987" y2="505.905" gradientUnits="userSpaceOnUse">
<stop stop-color="#53A1C9"/>
<stop offset="0.33" stop-color="#B7A9DD"/>
<stop offset="0.66" stop-color="#FDC3BE"/>
<stop offset="1" stop-color="#FFF6E3"/>
</linearGradient>
<linearGradient id="paint3_linear_10_286" x1="692.987" y1="48.0736" x2="692.987" y2="505.593" gradientUnits="userSpaceOnUse">
<stop stop-color="#53A1C9"/>
<stop offset="0.33" stop-color="#B7A9DD"/>
<stop offset="0.66" stop-color="#FDC3BE"/>
<stop offset="1" stop-color="#FFF6E3"/>
</linearGradient>
<linearGradient id="paint4_linear_10_286" x1="692.987" y1="73.4726" x2="692.987" y2="530.992" gradientUnits="userSpaceOnUse">
<stop stop-color="#53A1C9"/>
<stop offset="0.33" stop-color="#B7A9DD"/>
<stop offset="0.66" stop-color="#FDC3BE"/>
<stop offset="1" stop-color="#FFF6E3"/>
</linearGradient>
<linearGradient id="paint5_linear_10_286" x1="1290.01" y1="88.8033" x2="1290.01" y2="546.323" gradientUnits="userSpaceOnUse">
<stop stop-color="#53A1C9"/>
<stop offset="0.33" stop-color="#B7A9DD"/>
<stop offset="0.66" stop-color="#FDC3BE"/>
<stop offset="1" stop-color="#FFF6E3"/>
</linearGradient>
<linearGradient id="paint6_linear_10_286" x1="692.987" y1="88.8033" x2="692.987" y2="546.323" gradientUnits="userSpaceOnUse">
<stop stop-color="#53A1C9"/>
<stop offset="0.33" stop-color="#B7A9DD"/>
<stop offset="0.66" stop-color="#FDC3BE"/>
<stop offset="1" stop-color="#FFF6E3"/>
</linearGradient>
<linearGradient id="paint7_linear_10_286" x1="694.011" y1="1" x2="694.011" y2="458.519" gradientUnits="userSpaceOnUse">
<stop stop-color="#53A1C9"/>
<stop offset="0.33" stop-color="#B7A9DD"/>
<stop offset="0.66" stop-color="#FDC3BE"/>
<stop offset="1" stop-color="#FFF6E3"/>
</linearGradient>
<linearGradient id="paint8_linear_10_286" x1="694.011" y1="1.31227" x2="694.011" y2="458.831" gradientUnits="userSpaceOnUse">
<stop stop-color="#53A1C9"/>
<stop offset="0.33" stop-color="#B7A9DD"/>
<stop offset="0.66" stop-color="#FDC3BE"/>
<stop offset="1" stop-color="#FFF6E3"/>
</linearGradient>
<linearGradient id="paint9_linear_10_286" x1="866.987" y1="183.481" x2="866.987" y2="641" gradientUnits="userSpaceOnUse">
<stop stop-color="#53A1C9"/>
<stop offset="0.33" stop-color="#B7A9DD"/>
<stop offset="0.66" stop-color="#FDC3BE"/>
<stop offset="1" stop-color="#FFF6E3"/>
</linearGradient>
</defs>
</svg>
