<svg width="214" height="94" viewBox="0 0 214 94" fill="none" xmlns="http://www.w3.org/2000/svg">
<path d="M158.195 22.8211C158.137 24.4957 158.03 26.1679 158.035 27.8424C158.04 29.2451 157.941 30.6525 158.104 32.0551C158.165 32.5704 158.086 33.0975 158.068 33.6199C158.055 34.0088 158.025 34.3952 158.022 34.784C158.017 35.5903 158.017 36.3966 158.027 37.2029C158.035 37.8445 158.06 38.4862 158.081 39.1303C158.086 39.2949 158.104 39.4595 158.106 39.6217C158.116 40.6069 158.127 41.5944 158.129 42.5796C158.129 42.9231 158.106 43.2666 158.078 43.6101C157.982 44.8506 157.954 46.0886 158.101 47.329C158.129 47.5652 158.129 47.8061 158.124 48.0447C158.104 48.8366 158.066 49.6262 158.05 50.4181C158.032 51.3294 158.02 52.243 158.022 53.1542C158.027 54.3804 158.055 55.6065 158.066 56.8326C158.068 57.1475 158.04 57.46 158.032 57.7748C158.025 58.073 157.997 58.376 158.027 58.6717C158.185 60.2103 158.162 61.7466 158.007 63.2828C157.949 63.8624 157.931 64.4469 157.857 65.0265C157.814 65.3486 157.75 65.6897 157.593 65.9712C156.998 67.0351 156.096 67.7698 154.789 67.9153C153.399 68.0727 151.998 68.1658 150.602 68.2803C150.399 68.297 150.188 68.2564 149.982 68.2588C149.426 68.266 148.866 68.2493 148.315 68.3017C147.262 68.4019 146.213 68.4449 145.168 68.285C144.194 68.1371 143.228 68.1538 142.265 68.2898C141.482 68.3995 140.714 68.3876 139.934 68.2707C139.433 68.1968 138.92 68.1968 138.412 68.1896C137.329 68.1729 136.246 68.1682 135.163 68.1658C134.876 68.1658 134.591 68.1872 134.304 68.1896C132.789 68.2015 131.276 68.2063 129.761 68.2254C129.141 68.2326 128.521 68.266 127.898 68.285C127.771 68.2898 127.644 68.2994 127.517 68.297C126.419 68.285 125.321 68.2683 124.223 68.2612C123.953 68.2588 123.681 68.2874 123.412 68.3041C123.315 68.3089 123.219 68.3375 123.127 68.328C121.704 68.1562 120.27 68.4067 118.841 68.1872C118.114 68.0751 117.347 68.0513 116.61 68.2421C116.292 68.3232 115.977 68.2994 115.664 68.223C115.163 68.1014 114.652 68.0775 114.144 68.1348C112.904 68.2755 111.661 68.1944 110.418 68.2039C109.813 68.2087 109.21 68.2493 108.605 68.2779C108.445 68.285 108.287 68.3256 108.13 68.316C107.24 68.2707 106.353 68.1992 105.461 68.1681C104.744 68.1419 104.027 68.161 103.31 68.1586C102.817 68.1562 102.324 68.1538 101.831 68.1538C101.544 68.1538 101.259 68.1538 100.972 68.161C100.639 68.1681 100.303 68.1753 99.9704 68.1944C99.2561 68.2326 98.5418 68.2779 97.825 68.3208C97.6191 68.3327 97.4107 68.3709 97.2073 68.3614C96.46 68.3304 95.7127 68.254 94.9654 68.2493C93.6283 68.2421 92.2913 68.2731 90.9543 68.2898C90.7789 68.2922 90.6035 68.3017 90.4281 68.2994C88.7886 68.2731 87.1465 68.2493 85.507 68.2159C84.8868 68.2039 84.2665 68.1658 83.6463 68.1538C83.2981 68.1467 82.9473 68.1658 82.5965 68.1729C82.0551 68.1872 81.5162 68.2087 80.9748 68.2135C79.3174 68.2326 77.6627 68.2469 76.0054 68.2564C75.7512 68.2588 75.4919 68.2564 75.2453 68.2087C74.7674 68.1157 74.2997 68.1324 73.8193 68.1849C73.4101 68.2302 72.9957 68.2206 72.584 68.2373C72.4416 68.2421 72.2967 68.2349 72.1569 68.2564C70.9038 68.4496 69.6455 68.3876 68.3924 68.2994C67.1062 68.2087 65.8225 68.099 64.5287 68.1276C63.3518 68.1538 62.1723 68.1371 60.9954 68.1443C60.7718 68.1443 60.5506 68.1705 60.3269 68.1658C59.2847 68.1467 58.3442 67.7936 57.541 67.2164C56.8979 66.7536 56.5268 66.0714 56.42 65.2937C56.3895 65.0719 56.3743 64.8452 56.3717 64.6234C56.3514 62.9942 56.3234 61.3649 56.3234 59.7357C56.3234 57.6412 56.3488 55.5492 56.3666 53.4548C56.3717 52.8871 56.3997 52.3193 56.4149 51.7516C56.42 51.618 56.4454 51.4797 56.4226 51.3485C56.237 50.3227 56.4302 49.2898 56.3565 48.2593C56.3082 47.5747 56.3666 46.8853 56.3641 46.1983C56.359 45.0462 56.3234 43.8964 56.3387 42.7442C56.3539 41.4895 56.4149 40.2347 56.4556 38.98C56.4556 38.949 56.4632 38.9204 56.4607 38.8894C56.3488 37.7682 56.4886 36.6494 56.4861 35.5307C56.4836 34.6791 56.4251 33.8275 56.4022 32.9759C56.3971 32.7373 56.4353 32.4988 56.4404 32.2602C56.448 31.8285 56.4404 31.3967 56.4429 30.965C56.4454 30.5165 56.4556 30.0704 56.4632 29.622C56.4683 29.2498 56.5192 28.8705 56.4709 28.5032C56.3412 27.5156 56.4251 26.5328 56.448 25.5453C56.4734 24.4241 56.5115 23.3029 56.4759 22.1818C56.4556 21.5353 56.509 20.8984 56.5547 20.2591C56.5802 19.9037 56.5649 19.5459 56.5649 19.1881C56.5649 18.0812 56.5166 16.9744 56.5776 15.8699C56.6285 14.942 56.6564 14.0188 56.6056 13.0933C56.5827 12.6615 56.6285 12.2274 56.6335 11.7956C56.6437 10.6291 56.6488 9.46506 56.6539 8.29858C56.6564 7.76186 56.6488 7.22513 56.6437 6.68841C56.6412 6.46418 56.6539 6.23995 56.6361 6.01572C56.5446 4.89219 56.6005 3.7758 56.7276 2.65703C56.7759 2.23004 56.7479 1.79351 56.7454 1.36174C56.7378 0.166641 56.725 -1.03084 56.7149 -2.22594C56.7149 -2.35953 56.7327 -2.4955 56.7225 -2.62908C56.5802 -4.48256 56.7378 -6.33366 56.7276 -8.18714C56.725 -8.70955 56.7047 -9.23434 56.7098 -9.75675C56.7123 -10.0692 56.7581 -10.3841 56.7657 -10.6966C56.7733 -11.1284 56.7733 -11.5625 56.7606 -11.9943C56.7505 -12.3688 56.692 -12.7409 56.6945 -13.1131C56.7022 -14.2795 56.7301 -15.446 56.7454 -16.6125C56.7505 -16.9417 56.7225 -17.2709 56.7276 -17.6001C56.7378 -18.2871 56.7606 -18.9741 56.7784 -19.6611C56.7911 -20.1382 56.8038 -20.6176 56.8089 -21.0947C56.8115 -21.3046 56.7733 -21.5145 56.7937 -21.7221C56.8776 -22.5832 56.9309 -23.4515 57.0835 -24.3031C57.269 -25.3384 58.7001 -26.6074 59.783 -26.7935C60.6192 -26.9366 61.4581 -26.9629 62.302 -26.8555C63.2654 -26.7315 64.2338 -26.6575 65.2099 -26.6862C65.6064 -26.6981 66.0081 -26.7029 66.4021 -26.753C66.9308 -26.8197 67.4519 -26.8245 67.9679 -26.6981C68.5957 -26.5454 69.2185 -26.5645 69.8616 -26.6289C71.4452 -26.7864 73.0339 -26.9176 74.6302 -26.7434C74.9454 -26.71 75.2682 -26.7148 75.5834 -26.7434C76.7298 -26.8531 77.8736 -26.8555 79.0175 -26.7386C79.2056 -26.7196 79.4013 -26.7267 79.5894 -26.741C80.9417 -26.8412 82.294 -26.8007 83.6488 -26.7434C84.4445 -26.71 85.2401 -26.741 86.0382 -26.7434C86.3077 -26.7434 86.5771 -26.7386 86.8491 -26.7434C87.3422 -26.7506 87.8354 -26.7649 88.3285 -26.7673C89.0453 -26.772 89.7596 -26.772 90.4764 -26.7697C90.6975 -26.7697 90.9212 -26.7434 91.1424 -26.7506C91.8261 -26.7697 92.5099 -26.8174 93.1962 -26.8245C94.5028 -26.8341 95.8118 -26.7887 97.1158 -26.8317C98.4097 -26.8746 99.6908 -26.7386 100.977 -26.7005C101.803 -26.6766 102.629 -26.7601 103.458 -26.7792C104.317 -26.7983 105.179 -26.8031 106.038 -26.7959C106.564 -26.7911 107.088 -26.753 107.614 -26.7363C107.805 -26.7291 107.998 -26.7196 108.188 -26.741C109.701 -26.9056 111.213 -26.7768 112.723 -26.7148C113.026 -26.7029 113.333 -26.6766 113.631 -26.7172C114.774 -26.877 115.921 -26.8102 117.067 -26.8174C118.501 -26.8269 119.934 -26.815 121.368 -26.8197C121.798 -26.8221 122.227 -26.877 122.657 -26.8722C124.169 -26.8627 125.684 -26.846 127.197 -26.8174C127.865 -26.8054 128.531 -26.7506 129.2 -26.7339C129.645 -26.7219 130.094 -26.71 130.537 -26.7482C131.907 -26.8651 133.274 -26.8317 134.644 -26.7673C135.12 -26.7458 135.6 -26.753 136.076 -26.7744C136.841 -26.8126 137.601 -26.8174 138.361 -26.6933C138.732 -26.6337 139.123 -26.6265 139.499 -26.6599C140.267 -26.7291 141.025 -26.6742 141.79 -26.6218C142.407 -26.5788 143.028 -26.5979 143.648 -26.5931C143.76 -26.5931 143.872 -26.6122 143.981 -26.6146C145.381 -26.6218 146.779 -26.6361 148.18 -26.6313C148.77 -26.6289 149.357 -26.5717 149.944 -26.5597C150.691 -26.5454 151.441 -26.5764 152.189 -26.5454C153.223 -26.5025 154.258 -26.4572 155.287 -26.3498C156.423 -26.2329 157.28 -25.6986 157.74 -24.6776C158.068 -23.9501 158.241 -23.1987 158.198 -22.4067C158.188 -22.2135 158.182 -22.0155 158.208 -21.8247C158.264 -21.4048 158.259 -20.9921 158.162 -20.5771C158.121 -20.4029 158.106 -20.2216 158.106 -20.0427C158.106 -19.2221 158.116 -18.3992 158.121 -17.5786C158.132 -15.9803 158.137 -14.3797 158.152 -12.7815C158.165 -11.3478 158.188 -9.91419 158.205 -8.48055C158.208 -8.31595 158.198 -8.15136 158.19 -7.98676C158.182 -7.85318 158.154 -7.7196 158.154 -7.58363C158.16 -6.47679 158.144 -5.37471 158.048 -4.27026C158.002 -3.73831 158.124 -3.19681 158.129 -2.66009C158.147 -0.730278 158.152 1.19715 158.152 3.12696C158.154 4.56061 158.139 5.99664 158.139 7.43028C158.139 8.61107 158.147 9.79186 158.154 10.9727C158.157 11.6597 158.17 12.349 158.165 13.036C158.16 13.9163 158.134 14.7965 158.132 15.6767C158.126 17.3966 158.132 19.1165 158.132 20.8364C158.132 21.4948 158.132 22.1532 158.132 22.8092C158.157 22.8187 158.177 22.8187 158.195 22.8211ZM138.661 -11.8273C139.126 -11.782 139.499 -11.9776 139.83 -12.2495C140.351 -12.6789 140.931 -13.0129 141.574 -13.2514C141.736 -13.311 141.896 -13.3802 142.049 -13.4613C142.85 -13.8931 143.709 -14.1412 144.629 -14.2223C144.85 -14.2414 145.069 -14.2962 145.29 -14.3105C146.068 -14.3606 146.851 -14.4441 147.611 -14.1913C148.152 -14.0124 148.699 -13.8502 149.23 -13.6474C149.583 -13.5138 149.924 -13.3468 150.247 -13.156C152.036 -12.1088 153.18 -10.5773 153.94 -8.76442C154.093 -8.40183 154.212 -8.0297 154.375 -7.67189C154.453 -7.49775 154.575 -7.32838 154.72 -7.19719C155.005 -6.93956 155.274 -7.00874 155.404 -7.34985C155.452 -7.47628 155.483 -7.60748 155.506 -7.74106C155.717 -8.92901 155.742 -10.1313 155.638 -11.3216C155.521 -12.6527 155.549 -13.979 155.534 -15.3077C155.521 -16.3405 155.526 -17.3711 155.48 -18.4016C155.437 -19.3724 155.333 -20.3385 155.257 -21.307C155.236 -21.5766 155.231 -21.8461 155.191 -22.1109C155.122 -22.557 154.934 -22.9673 154.484 -23.17C153.864 -23.4491 153.203 -23.6662 152.504 -23.597C151.365 -23.4849 150.249 -23.7187 149.118 -23.7115C148.513 -23.7068 147.908 -23.7664 147.306 -23.7378C146.345 -23.6924 145.399 -23.7569 144.451 -23.8904C144.171 -23.9286 143.874 -23.9453 143.6 -23.8976C142.74 -23.7497 141.894 -23.7616 141.035 -23.9119C140.715 -23.9692 140.374 -23.9262 140.041 -23.9167C139.708 -23.9048 139.377 -23.8714 139.044 -23.8594C138.617 -23.8451 138.188 -23.838 137.758 -23.8332C137.298 -23.8284 136.83 -23.7855 136.378 -23.8403C135.631 -23.9286 134.888 -23.9668 134.139 -23.9525C133.295 -23.9334 132.451 -23.9358 131.607 -23.9214C131.256 -23.9167 130.905 -23.9048 130.56 -23.8714C130.064 -23.8236 129.581 -23.8332 129.085 -23.8976C128.681 -23.9501 128.264 -23.9095 127.852 -23.9048C127.456 -23.9024 127.059 -23.8857 126.665 -23.8881C126.251 -23.8904 125.832 -23.9668 125.428 -23.9119C124.317 -23.7616 123.201 -23.8022 122.087 -23.7664C121.66 -23.7521 121.233 -23.8189 120.804 -23.8427C120.565 -23.857 120.321 -23.8881 120.09 -23.8547C119.467 -23.764 118.854 -23.8093 118.234 -23.8952C117.667 -23.9715 117.098 -23.9668 116.523 -23.8809C115.257 -23.6877 113.979 -23.733 112.713 -23.8904C112.248 -23.9477 111.798 -23.9453 111.335 -23.9048C110.687 -23.8475 110.034 -23.795 109.383 -23.7926C108.412 -23.7879 107.441 -23.826 106.473 -23.8499C106.282 -23.8547 106.091 -23.8833 105.903 -23.9048C105.443 -23.9572 104.986 -23.9739 104.525 -23.8833C104.185 -23.8165 103.832 -23.7831 103.483 -23.7783C101.795 -23.7592 100.105 -23.7449 98.4173 -23.7497C97.7971 -23.7521 97.1768 -23.8165 96.5566 -23.8356C96.0813 -23.8499 95.6034 -23.8403 95.1281 -23.8332C94.9527 -23.8308 94.7798 -23.7855 94.6044 -23.7879C92.9802 -23.8069 91.3533 -23.8332 89.7291 -23.8523C89.3961 -23.857 89.0606 -23.8451 88.7276 -23.8308C88.3768 -23.8141 88.0285 -23.7664 87.6803 -23.764C86.1348 -23.7616 84.5893 -23.7736 83.0413 -23.7783C81.2874 -23.7831 79.5335 -23.7783 77.7821 -23.795C77.1619 -23.8022 76.5442 -23.8642 75.924 -23.8904C75.591 -23.9048 75.258 -23.9024 74.9225 -23.8976C74.4777 -23.8904 74.0328 -23.869 73.588 -23.8547C73.2067 -23.8427 72.8229 -23.8451 72.4442 -23.8117C71.6638 -23.7449 70.886 -23.6901 70.1107 -23.8403C69.4015 -23.9763 68.6898 -23.9859 67.9704 -23.9191C67.3375 -23.8618 66.702 -23.7855 66.0691 -23.7855C65.0676 -23.7855 64.0737 -23.8069 63.0722 -23.9882C62.3503 -24.1194 61.5801 -24.0455 60.8353 -24.0097C60.365 -23.9882 60.0397 -23.7091 59.9329 -23.2655C59.8745 -23.0198 59.8312 -22.7645 59.8389 -22.514C59.849 -22.0751 59.8084 -21.6481 59.6711 -21.2283C59.5567 -20.8776 59.5491 -20.5246 59.6406 -20.1668C59.8312 -19.4106 59.7753 -18.6592 59.6254 -17.8982C59.5516 -17.5237 59.5821 -17.1277 59.5898 -16.7413C59.5974 -16.4145 59.6635 -16.0877 59.6609 -15.7585C59.6559 -14.1126 59.6457 -12.469 59.6228 -10.823C59.6152 -10.3913 59.5415 -9.9619 59.5161 -9.53014C59.4957 -9.20333 59.4525 -8.86937 59.5008 -8.54734C59.6609 -7.45958 59.7016 -6.37183 59.6228 -5.2793C59.5694 -4.56128 59.5161 -3.85042 59.605 -3.13002C59.6355 -2.88194 59.5923 -2.62193 59.5466 -2.37146C59.4398 -1.7918 59.4322 -1.21214 59.4703 -0.627707C59.5364 0.4028 59.6152 1.43092 59.6431 2.46382C59.6762 3.6446 59.6737 4.82539 59.6609 6.00618C59.6533 6.73851 59.5999 7.46845 59.5643 8.20078C59.5618 8.27473 59.5415 8.34867 59.5364 8.42262C59.5033 8.89971 59.455 9.37441 59.4423 9.8515C59.4296 10.3453 59.45 10.8391 59.4678 11.3328C59.4805 11.6907 59.5033 12.0485 59.544 12.4039C59.6584 13.4034 59.6482 14.4029 59.5415 15.4024C59.4805 15.9797 59.4703 16.5641 59.4423 17.1462C59.4245 17.473 59.4093 17.8021 59.4042 18.1289C59.394 18.6657 59.3457 19.2072 59.3966 19.7391C59.5161 20.9938 59.4576 22.2486 59.4195 23.5033C59.3915 24.4146 59.3635 25.3282 59.4093 26.2394C59.45 27.0338 59.4983 27.8186 59.394 28.6105C59.3585 28.8753 59.3559 29.152 59.394 29.4144C59.5135 30.2517 59.4525 31.0842 59.4042 31.9215C59.3712 32.5012 59.3991 33.0856 59.4195 33.6676C59.4347 34.0875 59.7092 34.357 60.1007 34.5097C60.3167 34.5956 60.5582 34.6838 60.7845 34.6791C61.275 34.6671 61.7682 34.6266 62.2486 34.5407C63.123 34.3833 63.9898 34.1829 64.8591 34.0016C66.153 33.7321 67.3781 33.2645 68.6237 32.8566C68.6821 32.8375 68.7381 32.8017 68.794 32.7755C69.465 32.463 70.1463 32.1672 70.8046 31.8356C71.3232 31.5756 71.8214 31.2822 72.3145 30.984C72.6882 30.7574 73.039 30.495 73.405 30.2589C74.0354 29.851 74.6912 29.4764 75.2962 29.0399C75.9011 28.6034 76.4807 28.1334 77.0247 27.6301C77.5178 27.1745 77.5356 26.9121 77.1746 26.3563C76.895 25.9245 76.5951 25.488 76.2265 25.123C75.8071 24.7104 75.3978 24.3001 75.0674 23.8206C74.9886 23.7085 74.9022 23.6011 74.8056 23.5009C73.7914 22.4275 72.7695 21.3588 71.6104 20.419C71.3359 20.1947 71.041 19.9729 70.7131 19.8321C69.976 19.5125 69.2185 19.2429 68.4635 18.9567C68.2754 18.8851 68.0746 18.8231 67.8433 18.9495C67.8433 19.1785 67.8408 19.4147 67.8433 19.6509C67.8586 21.2038 67.8764 22.7567 67.8942 24.312C67.8967 24.4456 67.9145 24.5815 67.9196 24.7151C67.9602 25.6168 68.1051 26.497 68.4432 27.3486C68.6796 27.9426 68.4864 28.4269 68.0467 28.9063C67.1316 29.9034 65.9445 30.5427 64.7854 31.225C64.7041 31.2727 64.6151 31.3085 64.5236 31.3323C64.1169 31.442 63.7305 31.2894 63.5856 30.9149C63.5068 30.7145 63.4967 30.4759 63.517 30.2589C63.5373 30.0561 63.6416 29.8605 63.7051 29.6601C63.9466 28.8872 64.2567 28.1239 64.4067 27.3343C64.5744 26.4565 64.6431 25.5572 64.6481 24.6579C64.6558 23.4628 64.7397 22.2677 64.7549 21.0702C64.7727 19.7701 64.7473 18.4677 64.7473 17.1676C64.7473 16.4067 64.7574 15.6433 64.7574 14.8824C64.7574 14.5532 64.7498 14.2264 64.7371 13.8972C64.7219 13.5513 64.5617 13.2674 64.2948 13.0313C64.1093 12.8667 63.911 12.7116 63.7509 12.528C63.4052 12.132 63.3543 11.5475 63.6568 11.1468C63.8093 10.944 64.0127 10.7437 64.2414 10.6339C65.1082 10.2212 65.9877 9.83718 66.8748 9.46506C67.0858 9.37679 67.3375 9.34817 67.5739 9.34102C68.4508 9.32193 69.0228 10.0543 68.7406 10.8295C68.6643 11.0371 68.5271 11.2279 68.4127 11.4235C68.3136 11.5929 68.1814 11.7503 68.1026 11.9268C67.5968 13.0432 67.6247 14.2049 67.8052 15.369C67.8738 15.8103 68.1712 15.9582 68.6389 15.858C68.7762 15.8294 68.9211 15.7865 69.0405 15.7149C69.4447 15.4787 69.8845 15.2712 70.2302 14.9706C71.191 14.1405 72.1188 13.277 73.044 12.4087C74.0735 11.4426 74.9225 10.3381 75.7639 9.2289C76.9103 7.71654 77.8304 6.10398 78.2168 4.26004C78.2371 4.15747 78.2727 4.05728 78.3159 3.95948C78.4557 3.65176 78.6464 3.37028 78.9717 3.21284C79.1192 3.14128 79.3073 3.09595 79.47 3.11027C79.9783 3.15559 80.4054 3.5635 80.3978 4.04535C80.3774 5.3144 80.3876 6.59538 79.6784 7.75232C79.6148 7.85489 79.5691 7.96939 79.5233 8.07912C79.2081 8.87108 78.743 9.58433 78.199 10.2522C77.744 10.8104 77.2865 11.371 76.7832 11.8887C75.924 12.7713 75.0445 13.6396 74.1371 14.4769C73.433 15.1257 72.6729 15.7173 71.9383 16.3375C71.8087 16.4472 71.679 16.5617 71.5723 16.6905C71.3562 16.9553 71.3308 17.2511 71.5316 17.5254C71.6536 17.6948 71.8214 17.8403 71.9917 17.9691C72.6628 18.4724 73.3948 18.9161 74.0125 19.4696C75.7486 21.0296 77.4771 22.6016 79.0226 24.3382C79.592 24.9775 79.9656 24.9704 80.5503 24.3597C81.1908 23.6918 81.7882 22.9881 82.1313 22.1317C82.3372 21.6141 82.5431 21.0964 82.7261 20.5716C83.0007 19.7868 83.5497 19.3217 84.4241 19.1761C85.1537 19.0545 85.8578 19.3217 86.2162 19.9299C86.3839 20.2138 86.5161 20.5287 86.5924 20.8459C86.8669 21.9743 87.482 22.9165 88.3081 23.7538C88.6437 24.0949 88.9614 24.4503 89.3046 24.7843C90.0671 25.5262 90.817 26.2824 91.6152 26.9884C92.2049 27.5108 92.8632 27.9617 93.4911 28.4459C93.5775 28.5127 93.6639 28.5795 93.7427 28.6511C94.6426 29.4693 95.6924 30.1038 96.7523 30.7049C98.1275 31.4874 99.5561 32.1935 101.17 32.4726C101.356 32.5036 101.551 32.5584 101.704 32.6562C101.938 32.8041 102.169 32.9735 102.342 33.1786C102.688 33.5889 102.647 34.0374 102.39 34.4835C102.136 34.9248 101.783 35.211 101.221 35.2015C100.807 35.1919 100.387 35.2086 99.9805 35.1514C99.1621 35.0369 98.3512 34.8866 97.5378 34.7387C97.3853 34.7101 97.2378 34.6409 97.093 34.5741C96.4499 34.2783 95.8042 33.9873 95.1713 33.6724C94.7925 33.484 94.4214 33.2741 94.0732 33.0403C92.8912 32.2483 91.8033 31.3466 90.7535 30.4092C90.1078 29.8319 89.5105 29.2093 88.8801 28.6177C87.7083 27.518 86.628 26.342 85.6112 25.1111C85.0723 24.4599 84.4368 24.3979 83.8369 24.9895C83.443 25.3783 83.1227 25.8291 82.7566 26.2418C82.3499 26.7022 81.9483 27.165 81.5136 27.5991C81.0688 28.0452 80.5859 28.4602 80.1207 28.8896C79.7445 29.2355 79.381 29.5909 78.9895 29.9201C78.4685 30.3591 77.894 30.7479 77.3958 31.2059C76.6891 31.8571 75.9418 32.4559 75.1386 33.0021C73.771 33.9324 72.4238 34.889 70.8504 35.5044C70.7487 35.545 70.6521 35.6022 70.5581 35.6571C69.7726 36.1246 68.9287 36.4705 68.0492 36.7472C67.2638 36.9953 66.4834 37.2577 65.6929 37.4891C65.2531 37.6179 64.8007 37.7491 64.3457 37.7777C63.489 37.8326 62.6299 37.8278 61.786 38.0258C61.636 38.0616 61.4682 38.0258 61.3106 38.0425C60.9776 38.0735 60.6421 38.0902 60.3167 38.1618C59.694 38.2978 59.389 38.6437 59.3661 39.24C59.3508 39.6575 59.3915 40.0773 59.394 40.4948C59.4017 41.2271 59.4067 41.957 59.3966 42.6894C59.3915 43.1378 59.3356 43.5839 59.3457 44.0324C59.3559 44.5237 59.4398 45.0175 59.4449 45.5089C59.4576 47.0499 59.455 48.5909 59.4398 50.1319C59.4296 51.0741 59.3534 52.014 59.3559 52.9539C59.3585 53.7291 59.455 54.5044 59.361 55.2797C59.3356 55.4848 59.3839 55.6971 59.3864 55.907C59.394 56.3841 59.3966 56.8612 59.3966 57.3407C59.3966 57.7581 59.389 58.1756 59.3915 58.5954C59.394 59.1942 59.4474 59.7929 59.4042 60.3869C59.3178 61.5486 59.5008 62.684 59.6991 63.8195C59.8211 64.5232 60.2659 64.986 61.0412 65.0981C61.7478 65.1983 62.4596 65.277 63.1713 65.3462C63.6288 65.3915 64.0915 65.4082 64.5516 65.4249C64.8362 65.4344 65.1235 65.4297 65.4107 65.4201C65.8555 65.4034 66.3004 65.3581 66.7452 65.3605C67.6679 65.3653 68.5932 65.413 69.5159 65.4106C70.6775 65.4082 71.8417 65.3629 73.0034 65.3605C76.1426 65.3557 79.2793 65.3677 82.4186 65.3724C82.4974 65.3724 82.5787 65.3796 82.6575 65.3796C83.6133 65.3748 84.5665 65.37 85.5222 65.3653C85.7281 65.3653 85.9366 65.3605 86.1425 65.37C86.811 65.4011 87.4769 65.4559 88.1455 65.4655C89.18 65.4822 90.2171 65.4702 91.2466 65.6062C91.5414 65.6444 91.849 65.6038 92.1515 65.5847C92.5963 65.5537 93.0386 65.4798 93.4809 65.4774C95.2348 65.4678 96.9862 65.4702 98.7401 65.4822C99.9195 65.4893 101.099 65.5203 102.276 65.5346C102.705 65.5394 103.138 65.5561 103.56 65.5084C104.076 65.4488 104.576 65.4583 105.077 65.5728C105.626 65.6968 106.173 65.7088 106.734 65.6086C107.055 65.5513 107.395 65.5943 107.726 65.6038C108.059 65.6134 108.394 65.673 108.725 65.6515C109.408 65.6086 110.085 65.5823 110.773 65.5895C111.699 65.599 111.739 65.5299 111.778 64.683C111.805 64.0867 111.859 63.4927 111.902 62.8964C111.915 62.7318 111.943 62.5672 111.938 62.4049C111.894 61.3148 111.844 60.2247 111.8 59.1369C111.793 58.9723 111.788 58.8053 111.811 58.6431C111.925 57.8058 111.897 56.9733 111.798 56.1384C111.765 55.8593 111.79 55.5707 111.795 55.2892C111.808 54.4972 111.874 53.7053 111.826 52.9157C111.765 51.8971 111.734 50.8833 111.836 49.8695C111.917 49.0728 111.8 48.2856 111.706 47.5008C111.645 47.0046 111.429 46.8305 110.898 46.7756C110.631 46.747 110.357 46.7517 110.087 46.7661C109.419 46.7995 108.753 46.8686 108.084 46.8829C107.505 46.8973 106.943 46.9593 106.396 47.1525C105.987 47.2956 105.565 47.3529 105.128 47.3242C104.604 47.2908 104.335 47.0618 104.297 46.5728C104.269 46.215 104.276 45.8548 104.292 45.497C104.314 44.9579 104.62 44.5858 105.158 44.4331C105.519 44.3305 105.908 44.2614 106.282 44.2661C107.316 44.2804 108.348 44.3425 109.38 44.3878C109.411 44.3902 109.444 44.3973 109.475 44.3973C110.24 44.3949 111.007 44.4355 111.765 44.3782C112.66 44.3091 113.544 44.2733 114.434 44.4069C114.607 44.4331 114.782 44.4379 114.957 44.4403C116.742 44.4474 118.529 44.445 120.313 44.4617C120.87 44.4665 121.429 44.4951 121.981 44.5691C122.385 44.6239 122.784 44.7504 123.173 44.8792C123.445 44.9698 123.628 45.1797 123.635 45.4565C123.648 45.9192 123.651 46.3844 123.608 46.8448C123.572 47.2169 123.297 47.4268 122.891 47.4316C122.654 47.434 122.415 47.3958 122.182 47.3553C121.447 47.2241 120.715 47.069 119.978 46.9497C119.507 46.8734 119.024 46.871 118.557 46.7851C118.031 46.6873 117.515 46.704 116.991 46.778C116.594 46.8352 116.322 47.0118 116.152 47.36C115.888 47.8991 115.72 48.4526 115.735 49.0489C115.766 50.1892 115.631 51.3175 115.501 52.4482C115.395 53.3689 115.301 54.2945 115.283 55.22C115.25 56.8803 115.262 58.5405 115.283 60.2008C115.29 60.7972 115.349 61.3959 115.425 61.9875C115.552 62.9965 115.867 63.9793 115.885 65.0051C115.885 65.0647 115.906 65.122 115.921 65.1816C116.033 65.6205 116.083 65.6658 116.559 65.6849C116.925 65.6992 117.291 65.6825 117.657 65.704C118.613 65.7613 119.566 65.8113 120.514 65.6229C120.761 65.5752 121.02 65.5895 121.274 65.5823C122.037 65.5585 122.799 65.7064 123.562 65.5585C123.742 65.5227 123.94 65.58 124.131 65.5823C124.942 65.5871 125.758 65.6277 126.564 65.5776C127.189 65.537 127.804 65.5012 128.409 65.6706C129.05 65.8519 129.693 65.8304 130.351 65.7684C131.175 65.6897 132.003 65.6611 132.83 65.6301C133.465 65.6062 134.108 65.6563 134.741 65.599C136.439 65.4416 138.14 65.4201 139.843 65.4559C140.862 65.4774 141.881 65.444 142.901 65.4488C144.128 65.4535 145.353 65.4822 146.581 65.4845C147.107 65.4845 147.631 65.4368 148.157 65.4177C148.363 65.4106 148.569 65.4177 148.777 65.4177C149.764 65.4225 150.752 65.4321 151.739 65.4297C152.168 65.4297 152.598 65.3844 153.025 65.4058C154.138 65.4583 154.977 64.8453 155.125 63.8052C155.211 63.1993 155.257 62.5839 155.277 61.9732C155.318 60.852 155.341 59.7309 155.346 58.6121C155.351 57.281 155.33 55.9524 155.323 54.6213C155.318 53.5741 155.308 52.5269 155.313 51.4821C155.318 50.1367 155.338 48.7913 155.343 47.4459C155.346 47.0714 155.315 46.6993 155.318 46.3248C155.325 45.0843 155.435 43.8487 155.356 42.6035C155.282 41.4108 155.341 40.2109 155.325 39.0158C155.308 37.5511 155.272 36.0865 155.244 34.6218C155.241 34.4572 155.252 34.2926 155.254 34.128C155.267 33.6056 155.285 33.0832 155.287 32.5608C155.29 31.9478 155.239 31.3323 155.282 30.7216C155.379 29.4049 155.386 28.0953 155.267 26.7785C155.221 26.2776 155.267 25.7623 155.325 25.259C155.374 24.8678 155.374 24.4885 155.325 24.0997C155.269 23.6417 155.226 23.1765 155.236 22.7137C155.259 21.4733 155.33 20.2329 155.346 18.9949C155.356 18.0836 155.29 17.1724 155.292 16.2588C155.295 14.9444 155.333 13.6276 155.348 12.3133C155.353 11.7909 155.353 11.2661 155.338 10.7436C155.32 10.102 155.285 9.46029 155.262 8.81861C155.249 8.41547 155.247 8.01233 155.241 7.60919C155.239 7.44459 155.247 7.28 155.249 7.11779C155.262 6.34014 155.267 5.56487 155.285 4.78722C155.297 4.31014 155.351 3.83067 155.348 3.35358C155.341 1.88893 155.318 0.424271 155.295 -1.04039C155.292 -1.20259 155.285 -1.37435 155.226 -1.52224C154.72 -2.78414 153.869 -3.81464 152.783 -4.67817C151.899 -5.38187 151.068 -6.1142 150.765 -7.21865C150.758 -7.24728 150.74 -7.27352 150.73 -7.30215C150.646 -7.54546 150.486 -7.71721 150.216 -7.78639C150.267 -7.81024 150.318 -7.83171 150.369 -7.85557C150.338 -7.88181 150.308 -7.90804 150.275 -7.9319C150.254 -7.88419 150.234 -7.83648 150.214 -7.78639C150.099 -7.76015 149.972 -7.75299 149.875 -7.70051C149.753 -7.63372 149.665 -7.51922 149.55 -7.4405C149.235 -7.21865 149.049 -7.21388 148.724 -7.41664C148.432 -7.59794 148.251 -7.85795 148.155 -8.16806C148.071 -8.44 148.028 -8.72625 147.918 -8.98865C147.811 -9.24866 147.672 -9.50867 147.494 -9.73052C147.278 -9.99768 146.922 -10.0335 146.619 -9.93805C146.332 -9.8474 146.304 -9.55161 146.314 -9.28921C146.319 -9.15563 146.347 -9.02204 146.355 -8.88845C146.385 -8.35889 146.121 -8.18237 145.59 -8.35173C145.155 -8.49247 144.713 -8.61175 144.268 -8.72863C143.994 -8.80019 143.701 -8.82643 143.432 -8.9147C142.59 -9.18902 141.736 -9.13893 140.88 -9.0292C140.699 -9.00534 140.501 -8.94094 140.361 -8.83598C140.054 -8.60459 140.066 -8.33981 140.402 -8.14897C140.671 -7.99631 140.974 -7.88896 141.271 -7.784C142.349 -7.4071 143.287 -6.84414 144.072 -6.04264C144.982 -5.1147 145.384 -4.00786 145.445 -2.77698C145.475 -2.17347 145.041 -1.92538 144.469 -2.20448C144.235 -2.31898 144.011 -2.48596 143.836 -2.67202C143.147 -3.40673 142.237 -3.79556 141.302 -4.14622C141.004 -4.25833 140.684 -4.29411 140.364 -4.21062C140.066 -4.1319 139.949 -4.02695 139.965 -3.73592C139.975 -3.50215 140.023 -3.25884 140.11 -3.03938C140.842 -1.1859 141.373 0.72245 141.833 2.64749C142.041 3.52056 142.171 4.41033 142.326 5.29532C142.504 6.31151 142.712 7.32771 142.834 8.35106C142.992 9.6702 143.394 10.9273 143.813 12.1821C143.938 12.5494 144.133 12.8977 144.309 13.2507C144.537 13.7111 144.774 14.1667 145.01 14.6247C145.142 14.88 145.239 15.1615 145.417 15.3833C145.946 16.0369 146.238 16.7979 146.584 17.535C146.924 18.2578 146.35 18.6895 145.791 18.6681C145.107 18.6418 144.418 18.6156 143.747 18.4987C142.113 18.2124 140.488 18.1814 138.867 18.5464C138.353 18.6633 137.835 18.742 137.306 18.7086C136.711 18.6704 136.561 18.4414 136.726 17.9119C136.897 17.368 137.036 16.8146 137.184 16.2635C137.316 15.7721 137.438 15.2784 137.568 14.7846C137.779 13.9711 138.023 13.1649 138.198 12.3467C138.399 11.4092 138.551 10.4622 138.704 9.51753C138.755 9.20981 138.783 8.89017 138.75 8.58006C138.661 7.75947 138.645 6.94127 138.706 6.1183C138.762 5.37165 138.767 4.62263 138.605 3.88315C138.467 3.25339 138.315 2.62602 138.206 1.9915C138.127 1.53588 138.183 1.04925 138.046 0.612717C137.822 -0.105297 137.613 -0.811384 137.527 -1.5628C137.461 -2.1353 137.252 -2.69826 137.074 -3.25407C136.998 -3.49022 136.876 -3.73115 136.714 -3.92437C136.434 -4.25833 136.139 -4.25833 135.826 -3.95538C135.72 -3.85042 135.633 -3.71684 135.572 -3.58326C135.42 -3.24691 135.379 -2.89387 135.43 -2.5289C135.468 -2.24742 135.499 -1.96355 135.509 -1.67968C135.519 -1.34572 135.435 -1.02369 135.254 -0.732666C135.013 -0.343842 134.703 -0.298517 134.36 -0.606239C134.2 -0.749365 134.073 -0.925886 133.938 -1.09048C133.734 -1.3338 133.536 -1.58188 133.338 -1.82758C133.241 -1.77271 133.175 -1.73216 133.104 -1.69638C132.647 -1.46022 132.502 -1.15727 132.652 -0.69927C132.708 -0.529905 132.791 -0.365309 132.875 -0.205484C133.084 0.197655 133.3 0.598408 133.513 0.999159C133.755 1.44762 133.801 1.91278 133.635 2.39225C133.551 2.63318 133.46 2.87411 133.353 3.10788C133.119 3.62313 133.094 4.15032 133.226 4.68942C133.267 4.84925 133.315 5.00907 133.346 5.16889C133.414 5.53386 133.366 5.88691 133.178 6.21371C132.987 6.54767 132.677 6.64071 132.336 6.4451C132.123 6.32106 131.914 6.16601 131.762 5.98233C130.88 4.92081 130.178 3.7758 130.018 2.39941C129.993 2.17756 129.939 1.95572 129.873 1.74103C129.617 0.898972 129.53 0.0354443 129.568 -0.835238C129.624 -2.07328 129.899 -3.26599 130.532 -4.36806C130.979 -5.14333 131.564 -5.80409 132.385 -6.2621C132.547 -6.35274 132.71 -6.46008 132.837 -6.5889C133.173 -6.93002 133.076 -7.28545 132.598 -7.39279C131.912 -7.54546 131.243 -7.52161 130.643 -7.08746C130.244 -6.79882 129.934 -6.44577 129.657 -6.05933C129.497 -5.8351 129.345 -5.6061 129.159 -5.40096C128.966 -5.19104 128.775 -4.9191 128.422 -4.97635C128.043 -5.03837 127.957 -5.36279 127.888 -5.65381C127.776 -6.12613 127.497 -6.48871 127.148 -6.80836C126.538 -6.55312 126.365 -6.08796 126.404 -5.52261C126.421 -5.25544 126.454 -4.98589 126.5 -4.72111C126.627 -3.9697 126.246 -3.45683 125.623 -3.05846C125.293 -2.84855 125.046 -2.88909 124.797 -3.18966C124.67 -3.34233 124.566 -3.51408 124.426 -3.6572C124.103 -3.99117 123.852 -3.96254 123.648 -3.55463C123.569 -3.39719 123.524 -3.21113 123.524 -3.03699C123.524 -2.78652 123.552 -2.52651 123.618 -2.2832C123.791 -1.64629 123.666 -1.08571 123.259 -0.544214C122.525 0.436197 122.026 1.50487 121.963 2.73337C121.945 3.08164 121.821 3.44184 121.671 3.76626C121.434 4.27435 120.997 4.32207 120.636 3.8903C120.433 3.64699 120.28 3.36073 120.138 3.07687C119.479 1.76727 119.248 0.37656 119.205 -1.05947C119.157 -2.74836 119.777 -4.25595 120.58 -5.71583C120.682 -5.89951 120.824 -6.06649 120.969 -6.22632C121.671 -6.9992 122.354 -7.79354 123.315 -8.31118C123.412 -8.36366 123.498 -8.43284 123.582 -8.49963C124.075 -8.89323 124.634 -9.16755 125.255 -9.34407C125.758 -9.4872 126.266 -9.6184 126.757 -9.79492C127.733 -10.1456 128.75 -10.1933 129.767 -10.1623C130.689 -10.1337 131.607 -10.0215 132.491 -9.73528C132.667 -9.67803 132.868 -9.67088 133.056 -9.67804C133.391 -9.68996 133.442 -9.77822 133.353 -10.074C133.257 -10.3913 133.053 -10.6346 132.771 -10.8183C132.049 -11.2906 131.289 -11.6961 130.427 -11.906C130.135 -11.9776 129.84 -12.0492 129.558 -12.1517C129.174 -12.2949 129.126 -12.4809 129.329 -12.8173C129.439 -12.9962 129.533 -13.187 129.604 -13.3826C129.66 -13.5377 129.596 -13.6378 129.403 -13.719C128.823 -13.9599 128.28 -13.8669 127.746 -13.6188C127.433 -13.4733 127.136 -13.2967 126.833 -13.1298C126.218 -12.7886 125.611 -12.8626 125.018 -13.1775C124.734 -13.3277 124.579 -13.5591 124.627 -13.8859C124.652 -14.0481 124.66 -14.2127 124.675 -14.3773C124.703 -14.6874 124.451 -14.8974 124.154 -14.7709C123.915 -14.6684 123.689 -14.5133 123.498 -14.3416C123.292 -14.1579 123.137 -13.9241 122.957 -13.7142C122.677 -13.3874 122.314 -13.1942 121.876 -13.0987C120.494 -12.803 119.22 -12.2758 118.092 -11.46C117.99 -11.386 117.886 -11.3168 117.776 -11.2572C117.591 -11.157 117.395 -11.0878 117.194 -11.2238C117.001 -11.355 116.966 -11.553 117.011 -11.7462C117.062 -11.9633 117.131 -12.1827 117.235 -12.3807C117.649 -13.1703 118.074 -13.9503 118.681 -14.6421C119.187 -15.217 119.632 -15.8277 120.227 -16.3405C121.238 -17.2112 122.459 -17.6549 123.735 -17.9913C124.314 -18.1439 124.922 -18.2083 125.524 -18.2751C125.916 -18.3181 126.315 -18.2942 126.711 -18.2966C126.95 -18.299 127.194 -18.2584 127.425 -18.2966C128.333 -18.4493 129.19 -18.2966 130.054 -18.027C131.635 -17.5356 132.997 -16.7604 134.062 -15.5414C134.24 -15.3387 134.477 -15.1645 134.721 -15.0357C135.14 -14.8139 135.341 -14.883 135.572 -15.2838C135.661 -15.4389 135.725 -15.613 135.776 -15.7847C135.918 -16.2833 136.137 -16.7532 136.467 -17.1564C137.184 -18.0342 137.936 -18.8763 138.767 -19.6682C140.013 -20.8562 141.602 -21.276 143.234 -21.6553C143.31 -21.672 143.391 -21.6791 143.47 -21.6815C144.764 -21.7006 146.042 -21.6457 147.301 -21.2832C148.432 -20.9564 149.408 -20.3719 150.404 -19.8114C150.724 -19.6324 150.943 -19.3462 151.085 -19.0194C151.253 -18.6329 151.131 -18.3228 150.707 -18.2012C150.458 -18.1296 150.175 -18.132 149.911 -18.1487C148.864 -18.2131 147.817 -18.3467 146.795 -17.9603C146.444 -17.8267 146.073 -17.872 145.73 -18.0414C145.432 -18.1869 145.135 -18.33 144.843 -18.4827C144.543 -18.6377 144.222 -18.7117 143.884 -18.7212C143.65 -18.726 143.572 -18.683 143.62 -18.4731C143.668 -18.2608 143.772 -18.0557 143.887 -17.8625C144.011 -17.6549 144.192 -17.476 144.314 -17.2685C144.489 -16.9703 144.446 -16.7246 144.184 -16.5505C143.77 -16.2738 143.322 -16.1664 142.837 -16.4026C142.71 -16.4646 142.588 -16.5362 142.461 -16.5982C141.957 -16.851 141.469 -16.7866 141.014 -16.5004C140.531 -16.1974 140.493 -15.8324 140.875 -15.4174C141.169 -15.0977 141.159 -14.9475 140.803 -14.6779C140.557 -14.4895 140.29 -14.3249 140.043 -14.134C139.573 -13.7714 139.146 -13.3731 138.839 -12.8721C138.633 -12.5358 138.523 -12.1875 138.64 -11.7987C138.589 -11.7987 138.539 -11.7963 138.485 -11.7963C138.49 -11.7748 138.498 -11.751 138.503 -11.7295C138.574 -11.7748 138.617 -11.8011 138.661 -11.8273ZM141.752 14.3218C141.508 14.3647 141.108 14.4005 140.735 14.5079C140.247 14.6438 139.924 15.0947 139.916 15.5503C139.909 16.0226 140.249 16.2635 140.732 16.1228C140.809 16.1013 140.882 16.0703 140.948 16.0321C141.317 15.8175 141.711 15.6743 142.135 15.5932C142.446 15.5336 142.679 15.3666 142.842 15.1066C142.946 14.9396 142.923 14.806 142.801 14.6581C142.568 14.3743 142.24 14.3433 141.752 14.3218ZM140.953 9.41496C140.73 9.43643 140.554 9.43881 140.382 9.47221C140.12 9.52231 139.919 9.65828 139.792 9.88728C139.563 10.3047 139.792 10.7484 140.282 10.7484C140.692 10.7484 141.103 10.6792 141.508 10.5981C141.767 10.5457 141.922 10.3 141.927 10.059C141.932 9.80856 141.795 9.60579 141.513 9.51753C141.322 9.45551 141.114 9.4412 140.953 9.41496ZM141.101 7.20367C141.378 7.19651 141.647 7.12256 141.858 6.91742C142.021 6.75998 142.034 6.51189 141.899 6.40455C141.518 6.10399 140.87 6.10398 140.483 6.40216C140.265 6.57153 140.244 6.7242 140.407 6.94366C140.572 7.1655 140.821 7.19174 141.101 7.20367ZM138.887 -7.61464C138.808 -7.48582 138.739 -7.40949 138.722 -7.326C138.714 -7.28783 138.806 -7.2282 138.851 -7.1781C138.902 -7.2592 138.966 -7.33793 138.999 -7.42619C139.011 -7.45958 138.95 -7.51445 138.887 -7.61464Z" fill="#C15E35" fill-opacity="0.25"/>
<path d="M139.21 36.3584C139.21 37.8684 139.21 39.5859 139.21 41.3058C139.21 41.604 139.189 41.9045 139.202 42.2027C139.22 42.6488 139.255 43.0949 139.283 43.5409C139.294 43.7055 139.321 43.8701 139.306 44.0323C139.263 44.507 139.197 44.9817 139.146 45.4564C139.123 45.664 139.111 45.8739 139.108 46.0838C139.083 47.849 139.095 49.6143 139.029 51.3771C138.963 53.097 138.752 54.805 138.434 56.5034C138.246 57.5053 138.112 58.5119 137.809 59.4923C137.532 60.3916 137.082 61.2146 136.63 62.0376C136.515 62.2451 136.32 62.4169 136.157 62.5982C135.981 62.7914 135.788 62.9727 135.623 63.173C135.117 63.7933 134.439 64.1105 133.628 64.1988C133.231 64.2417 132.832 64.256 132.441 64.3228C131.159 64.5423 130.064 64.1606 129.139 63.371C128.564 62.882 128.061 62.3143 127.568 61.7489C127.184 61.3053 126.953 60.7733 126.78 60.2247C126.487 59.3063 126.231 58.3831 126.083 57.4337C125.916 56.3388 125.644 55.2558 125.532 54.1561C125.374 52.6104 125.265 51.0598 125.323 49.4998C125.377 48.0971 125.366 46.6897 125.211 45.2871C125.183 45.0366 125.191 44.7766 125.222 44.5261C125.339 43.6006 125.305 42.6774 125.234 41.7495C125.176 40.9742 125.178 40.1966 125.171 39.4189C125.163 38.5673 125.186 37.7133 125.173 36.8617C125.161 36.1294 125.105 35.3995 125.082 34.6671C125.054 33.7559 125.031 32.8423 125.023 31.931C125.018 31.3442 124.945 30.7717 124.812 30.1968C124.657 29.5265 124.551 28.8443 124.413 28.1692C124.34 27.8019 124.243 27.4393 124.157 27.0743C124.047 26.6139 124.037 26.1559 124.207 25.7027C124.421 25.135 124.787 24.9298 125.389 25.1016C125.872 25.2399 126.358 25.2614 126.851 25.2805C127.214 25.2948 127.586 25.3186 127.941 25.3878C128.612 25.5214 128.984 25.8983 129.001 26.54C129.014 27.0743 128.961 27.6182 128.862 28.143C128.717 28.9063 128.518 29.6625 128.315 30.4163C128.091 31.2464 127.919 32.0789 127.949 32.9401C127.982 33.8966 128.023 34.8532 128.043 35.8074C128.069 36.9882 128.081 38.169 128.089 39.3521C128.099 40.9504 128.114 42.5486 128.096 44.1468C128.074 46.1959 128.005 48.2426 127.99 50.2917C127.974 52.4362 128.117 54.5664 128.849 56.625C129.052 57.1952 129.324 57.7295 129.665 58.24C130.125 58.9294 130.799 59.1751 131.617 59.1393C132.077 59.1202 132.545 59.0868 132.995 58.9962C133.686 58.8602 134.233 58.4571 134.54 57.8846C135.382 56.3149 136.035 54.6785 136.182 52.9038C136.231 52.3241 136.251 51.7397 136.284 51.16C136.304 50.8308 136.33 50.504 136.347 50.1748C136.388 49.5045 136.454 48.8318 136.459 48.1615C136.475 46.1124 136.467 44.0634 136.459 42.0143C136.457 41.5968 136.411 41.1794 136.393 40.7595C136.358 39.8197 136.317 38.8774 136.297 37.9376C136.279 37.0263 136.309 36.1127 136.269 35.2015C136.225 34.2449 136.121 33.2931 136.048 32.339C136.03 32.1314 136.009 31.9215 136.007 31.7116C135.992 30.2422 135.834 28.7894 135.471 27.3558C135.364 26.936 135.308 26.5018 135.262 26.07C135.237 25.8506 135.27 25.6216 135.3 25.4021C135.346 25.0634 135.575 24.8702 135.923 24.8105C137.179 24.5887 138.437 24.4694 139.723 24.5792C140.397 24.6364 141.091 24.5458 141.769 24.4813C142.672 24.3955 143.572 24.269 144.471 24.1617C145.694 24.0138 146.922 24.0353 148.147 24.0734C149.021 24.1021 149.896 24.1808 150.768 24.2619C151.37 24.3167 151.833 24.6316 152.222 25.0491C152.832 25.7075 153.152 26.4923 153.195 27.3439C153.264 28.6726 153.264 30.0036 153.277 31.3347C153.279 31.6019 153.233 31.8738 153.167 32.1338C152.89 33.2096 152.107 33.7893 151.002 34.0445C150.46 34.1686 149.909 34.1161 149.387 34.0159C147.451 33.6438 145.664 32.9592 144.26 31.5923C143.988 31.3275 143.76 31.0127 143.559 30.693C143.373 30.3996 143.424 30.0847 143.65 29.8104C143.907 29.5003 144.306 29.3977 144.67 29.5981C144.942 29.7484 145.203 29.9344 145.417 30.1491C146.154 30.8934 147.049 31.3299 148.119 31.4611C148.513 31.5088 148.904 31.5923 149.301 31.6162C150.175 31.6687 150.793 31.2798 151.116 30.5117C151.294 30.0871 151.37 29.6434 151.352 29.1926C151.332 28.6702 151.274 28.1501 151.218 27.6301C151.159 27.0815 150.834 26.6879 150.341 26.4159C149.84 26.1392 149.298 25.9508 148.709 25.9675C147.753 25.9961 146.8 26.0462 145.847 26.0915C145.148 26.1249 144.446 26.1845 143.747 26.2012C142.751 26.2275 141.792 26.4469 140.831 26.6688C140.026 26.8548 139.566 27.3534 139.428 28.0905C139.314 28.7083 139.24 29.3357 139.215 29.9607C139.164 31.3061 139.146 32.6514 139.138 33.9968C139.133 34.7125 139.179 35.4305 139.21 36.3584Z" fill="#C15E35" fill-opacity="0.25"/>
<path d="M83.7302 5.63644C83.6844 4.3817 83.6234 3.12697 83.6006 1.87223C83.5853 1.03494 83.6285 0.197655 83.6361 -0.637245C83.6412 -1.08571 83.6133 -1.53417 83.626 -1.98263C83.6438 -2.62431 83.7022 -3.26599 83.7124 -3.90767C83.7276 -4.87855 83.7149 -5.84941 83.7124 -6.82029C83.7124 -6.95387 83.6844 -7.08984 83.6921 -7.22342C83.7277 -8.11796 83.7963 -9.0125 83.8039 -9.90942C83.8115 -10.7753 83.7607 -11.6412 83.7353 -12.5072C83.7149 -13.1799 83.6641 -13.8525 83.6844 -14.5228C83.7099 -15.3053 83.687 -16.0829 83.5116 -16.8439C83.3921 -17.3639 83.1634 -17.8648 82.9727 -18.3705C82.8812 -18.6091 82.7389 -18.8309 82.6575 -19.0719C82.4948 -19.5442 82.7033 -19.9354 83.2244 -20.0189C83.626 -20.0833 84.0683 -20.1191 84.4546 -20.0284C85.2757 -19.8376 86.0967 -19.8686 86.9228 -19.8686C87.0194 -19.8686 87.1135 -19.8734 87.2101 -19.8638C87.7184 -19.8161 87.8837 -19.5704 87.7489 -19.0838C87.6295 -18.6496 87.4744 -18.2203 87.421 -17.779C87.2863 -16.6363 87.1897 -15.4866 87.2024 -14.3344C87.2126 -13.4399 87.1313 -12.5453 87.1923 -11.646C87.2177 -11.262 87.1262 -10.8707 87.116 -10.4843C87.1033 -10.0215 87.1185 -9.55638 87.1211 -9.0936C87.1211 -8.82405 87.1465 -8.55211 87.1109 -8.28733C87.0194 -7.64565 87.0474 -7.00874 87.0652 -6.36467C87.1007 -5.01929 87.0906 -3.6739 87.0779 -2.32852C87.0753 -1.91107 86.9838 -1.496 86.9711 -1.07855C86.9533 -0.496508 86.966 0.0855408 86.9762 0.667585C86.9813 1.03971 87.0169 1.41184 87.0194 1.78635C87.0245 2.33977 87.055 2.89558 86.9991 3.44423C86.933 4.09068 86.966 4.72521 87.0525 5.3645C87.0931 5.67461 87.0728 5.99187 87.088 6.30436C87.1236 7.07962 87.2202 7.85966 87.1846 8.63254C87.1465 9.50323 87.3346 10.3238 87.5863 11.1444C87.6168 11.2446 87.66 11.3424 87.6854 11.445C87.998 12.7904 88.9309 13.704 90.0926 14.4458C90.2985 14.5794 90.5374 14.6987 90.7763 14.7512C91.8516 14.9873 92.937 15.0923 94.0452 14.9301C95.1433 14.7679 96.0686 14.2717 96.8744 13.6109C97.4641 13.1291 97.8428 12.4635 98.1046 11.7646C98.6003 10.4502 98.8037 9.10247 98.6105 7.70461C98.5546 7.29432 98.613 6.86971 98.6232 6.45226C98.6308 6.08013 98.6842 5.70323 98.6486 5.33587C98.6054 4.88503 98.6181 4.44134 98.6969 3.99765C98.8087 3.34642 98.8469 2.69759 98.8138 2.03444C98.7782 1.36652 98.8494 0.691439 98.8952 0.0211315C98.9765 -1.17636 98.9308 -2.36907 98.8342 -3.56417C98.791 -4.09851 98.8316 -4.64 98.824 -5.17672C98.8011 -6.4911 98.7706 -7.80547 98.7427 -9.11984C98.7401 -9.28444 98.6969 -9.45142 98.7198 -9.61124C98.8214 -10.3293 98.7757 -11.0401 98.6842 -11.7581C98.6308 -12.1708 98.6588 -12.5954 98.6562 -13.0129C98.6511 -14.0148 98.6588 -15.0166 98.6486 -16.0161C98.641 -16.7866 98.4859 -17.5309 98.1326 -18.2322C98.0106 -18.4755 97.8759 -18.7164 97.7793 -18.9669C97.5937 -19.4583 97.8428 -19.828 98.3893 -19.828C99.0401 -19.828 99.6933 -19.797 100.344 -19.7446C100.824 -19.7064 101.295 -19.6873 101.765 -19.809C101.991 -19.8686 102.235 -19.9115 102.469 -19.8996C102.881 -19.8781 103.135 -19.5633 103.054 -19.184C103.008 -18.9669 102.906 -18.7594 102.827 -18.5471C102.665 -18.1248 102.484 -17.7098 102.345 -17.2804C102.261 -17.0252 102.212 -16.7532 102.2 -16.4884C102.139 -15.2647 102.085 -14.041 102.111 -12.8125C102.139 -11.4075 102.067 -10.0025 102.06 -8.59744C102.057 -8.10604 102.128 -7.61464 102.151 -7.12324C102.167 -6.79643 102.2 -6.46247 102.151 -6.14282C101.986 -5.04075 102.009 -3.9363 102.078 -2.82946C102.085 -2.7245 102.098 -2.61954 102.095 -2.51697C102.078 -1.45545 102.052 -0.393932 102.045 0.667585C102.042 1.18999 102.08 1.7124 102.093 2.23481C102.101 2.5473 102.088 2.86218 102.088 3.17706C102.085 3.86406 102.095 4.55107 102.08 5.23807C102.073 5.66983 102.032 6.1016 102.001 6.53336C101.994 6.63832 101.961 6.7409 101.956 6.84347C101.92 7.70938 101.867 8.57529 101.862 9.4412C101.859 9.96839 101.821 10.4813 101.658 10.9893C101.452 11.6334 101.279 12.2846 101.081 12.9287C100.842 13.7135 100.316 14.3719 99.9729 15.109C99.6552 15.7888 99.1519 16.3518 98.7071 16.9505C98.5215 17.1986 98.247 17.4205 97.9623 17.5684C97.3395 17.8928 96.7168 18.2244 95.9949 18.3532C95.4636 18.4462 94.9476 18.606 94.424 18.7325C94.3172 18.7587 94.2054 18.7969 94.0986 18.7897C93.3233 18.7372 92.543 18.7396 91.7778 18.544C90.4713 18.2077 89.2893 17.6304 88.1429 16.9768C87.4541 16.5832 86.8669 16.0846 86.389 15.4716C86.267 15.3141 86.1399 15.1615 86.0103 15.0088C84.9401 13.766 84.3631 12.3252 84.0606 10.7723C83.9971 10.4479 83.9132 10.1282 83.8725 9.8014C83.8014 9.25514 83.7251 8.70411 83.7048 8.15546C83.6768 7.31817 83.6971 6.48088 83.6971 5.6436C83.7022 5.63644 83.7175 5.63644 83.7302 5.63644Z" fill="#C15E35" fill-opacity="0.25"/>
<path d="M109.081 26.0176C108.882 26.3181 108.641 26.9622 108.641 27.2318C108.638 28.279 108.638 29.3238 108.651 30.371C108.661 31.0437 108.712 31.7164 108.722 32.3891C108.74 33.7344 108.687 35.0822 108.765 36.4252C108.844 37.7491 108.801 39.0873 109.147 40.3922C109.19 40.5496 109.2 40.7166 109.205 40.8812C109.22 41.2629 109.325 41.6111 109.533 41.9451C109.805 42.3816 109.663 42.7084 109.139 42.7323C107.868 42.7895 106.61 43.0495 105.329 42.9565C105.186 42.947 105.039 42.9327 104.907 42.8897C104.581 42.78 104.48 42.5486 104.602 42.2457C104.612 42.217 104.625 42.1884 104.642 42.1646C105.186 41.4561 105.273 40.6116 105.435 39.791C105.565 39.1398 105.56 38.4886 105.524 37.8278C105.481 37.0239 105.491 36.2105 105.573 35.409C105.677 34.3785 105.707 33.3528 105.695 32.3199C105.669 30.2732 105.672 28.2241 105.654 26.1774C105.652 25.8339 105.598 25.4928 105.585 25.1493C105.573 24.7771 105.563 24.4026 105.578 24.0305C105.593 23.6918 105.565 23.3674 105.349 23.0883C104.978 22.604 104.592 22.1293 104.21 21.6522C103.798 21.1322 103.178 20.9247 102.581 20.679C102.421 20.6122 102.25 20.5621 102.1 20.481C101.699 20.2639 101.536 19.9204 101.635 19.5387C101.719 19.2143 102.022 19.002 102.456 18.9638C103.486 18.8708 104.515 18.7778 105.532 18.5941C106.157 18.4796 106.793 18.4367 107.428 18.5965C107.576 18.6347 107.743 18.606 107.904 18.6036C108.143 18.6013 108.382 18.575 108.62 18.5917C109.231 18.6347 109.752 18.8708 110.031 19.3885C110.514 20.2782 111.028 21.1584 111.302 22.1389C111.406 22.5134 111.561 22.876 111.729 23.229C111.981 23.761 112.278 24.2738 112.535 24.8034C113.234 26.2442 113.905 27.6993 114.617 29.1353C115.087 30.0823 115.613 31.0079 116.109 31.9454C116.294 32.2936 116.467 32.6443 116.645 32.995C117.034 33.7655 117.418 34.5359 117.807 35.3064C117.947 35.5855 118.191 35.774 118.455 35.9457C118.62 36.0555 118.699 36.0173 118.783 35.8622C119.012 35.44 119.093 34.9868 119.126 34.5216C119.136 34.388 119.134 34.2521 119.136 34.1185C119.146 32.5036 119.169 30.891 119.159 29.2761C119.154 28.1549 119.098 27.0338 119.075 25.915C119.063 25.2447 119.116 24.5696 119.068 23.9017C118.991 22.8593 118.877 21.8168 118.73 20.7815C118.681 20.4357 118.483 20.1089 118.343 19.7773C118.267 19.596 118.15 19.429 118.097 19.2453C118.005 18.9352 118.137 18.7134 118.465 18.618C118.646 18.5655 118.841 18.544 119.03 18.5416C119.985 18.5297 120.941 18.5273 121.897 18.5225C121.976 18.5225 122.057 18.5273 122.136 18.5369C122.835 18.6156 123.076 18.9448 122.901 19.5864C122.842 19.8035 122.774 20.0182 122.697 20.2305C122.331 21.2395 122.354 22.2915 122.309 23.334C122.276 24.1235 122.298 24.9155 122.298 25.7075C122.298 27.5776 122.303 29.4454 122.296 31.3156C122.293 31.807 122.237 32.3008 122.222 32.7922C122.209 33.15 122.222 33.5078 122.227 33.868C122.227 33.9277 122.253 33.9873 122.253 34.0445C122.245 35.2826 122.265 36.5206 122.215 37.7563C122.181 38.6079 122.11 39.4571 122.253 40.3063C122.337 40.8072 122.413 41.3106 122.487 41.8139C122.583 42.4532 122.25 42.8683 121.556 42.904C120.936 42.935 120.313 42.9136 119.693 42.8969C119.309 42.8873 118.991 42.7132 118.732 42.4508C118.318 42.031 117.967 41.5754 117.708 41.0529C116.968 39.5764 116.117 38.1594 115.222 36.7615C115.001 36.4157 114.795 36.0626 114.591 35.7048C114.083 34.8079 113.582 33.9086 113.079 33.0093C113.048 32.9568 113.013 32.9067 112.993 32.8494C112.642 31.8953 112.034 31.0675 111.536 30.1849C111.246 29.6697 110.989 29.1377 110.743 28.6058C110.372 27.809 109.947 27.0433 109.398 26.342C109.312 26.2251 109.195 26.1297 109.081 26.0176Z" fill="#C15E35" fill-opacity="0.25"/>
<path d="M96.7091 61.7728C95.6288 61.8157 94.546 61.8563 93.4657 61.8992C93.3538 61.904 93.242 61.9159 93.1327 61.9135C90.2349 61.8491 87.3372 62.009 84.4419 61.9016C83.1659 61.8539 81.8949 61.9541 80.624 61.9064C80.5274 61.904 80.4308 61.9135 80.3368 61.8992C79.442 61.7633 78.5574 61.8754 77.6729 61.978C77.4695 62.0018 77.2611 62.0066 77.0526 62.0042C75.619 61.9851 74.1879 61.966 72.7543 61.9374C71.7197 61.9183 70.6852 61.8802 69.6506 61.8587C68.9185 61.8444 68.1865 61.8301 67.4544 61.8372C67.2028 61.8396 66.9537 61.9231 66.702 61.9469C66.2292 61.9899 65.7539 62.0495 65.2785 62.0424C64.6965 62.0328 64.3203 61.7299 64.2389 61.2862C64.1423 60.7542 64.3889 60.2843 64.91 60.0744C65.126 59.9861 65.365 59.9336 65.5963 59.8931C66.4987 59.7333 67.3171 59.4065 68.1128 58.9652C69.371 58.2662 70.4945 57.4051 71.5443 56.47C72.3603 55.7424 73.0593 54.898 73.771 54.075C74.2184 53.5574 74.4065 52.9109 74.5743 52.2669C74.6607 51.9329 74.7471 51.5989 74.8539 51.2698C75.0115 50.7903 75.3851 50.4945 75.8681 50.3251C76.4909 50.1057 77.106 50.3681 77.3576 50.9429C77.4237 51.0932 77.4695 51.2554 77.5102 51.4153C77.6068 51.7755 77.8177 51.9949 78.2422 51.9902C78.4481 51.9878 78.6566 52.014 78.8625 52.014C82.4796 52.0188 86.0967 52.0235 89.7138 52.0212C90.1587 52.0212 90.6035 51.9758 91.0458 51.9424C91.3101 51.921 91.4804 51.7898 91.5465 51.5369C91.5999 51.3342 91.6762 51.1362 91.7499 50.9406C91.91 50.5231 92.2176 50.2607 92.6955 50.2249C93.1912 50.1868 93.6309 50.337 93.8749 50.7569C94.03 51.0241 94.1062 51.3413 94.1749 51.6419C94.3121 52.2406 94.4087 52.8465 94.5434 53.4429C94.6553 53.9391 94.9654 54.3398 95.3162 54.7143C95.6848 55.1055 96.033 55.5158 96.4117 55.8975C96.6812 56.1694 96.9837 56.4151 97.2811 56.6632C98.4758 57.6651 99.8204 58.469 101.234 59.1631C101.75 59.416 102.334 59.5472 102.891 59.7237C103.102 59.7905 103.328 59.8168 103.537 59.8859C103.715 59.9456 103.89 60.0243 104.045 60.1269C104.411 60.3702 104.612 60.6994 104.513 61.1311C104.419 61.5486 104.088 61.7824 103.674 61.8301C103.14 61.8921 102.591 61.9207 102.057 61.8778C101.102 61.8014 100.156 61.8086 99.1977 61.873C98.3766 61.9279 97.5429 61.8372 96.7168 61.811C96.7117 61.799 96.7117 61.7871 96.7091 61.7728ZM80.4766 57.8201C80.4766 57.8058 80.4766 57.7939 80.4766 57.7796C79.6174 57.7796 78.7557 57.8035 77.8965 57.7724C77.0145 57.7414 76.1452 57.8202 75.2809 57.9466C75.0496 57.98 74.8056 58.0515 74.6124 58.1684C74.4065 58.2925 74.2006 58.4666 74.0862 58.6646C73.7812 59.1798 73.9871 59.6283 74.5972 59.7547C75.0267 59.843 75.4792 59.8764 75.9215 59.8716C76.8442 59.8621 77.7669 59.8001 78.6896 59.7786C79.3403 59.7643 79.9936 59.7786 80.6469 59.7881C80.9163 59.7929 81.1858 59.8263 81.4552 59.8358C81.8212 59.8478 82.1898 59.8859 82.5482 59.8454C83.2803 59.7595 84.0098 59.7595 84.7419 59.8311C84.93 59.8502 85.1232 59.8454 85.3113 59.8382C85.7256 59.8215 86.1374 59.7714 86.5492 59.781C87.2812 59.7977 88.0108 59.8645 88.7403 59.8812C89.5181 59.9002 90.2985 59.8907 91.0763 59.8883C91.9685 59.8859 92.8607 59.8859 93.7504 59.8621C94.0478 59.8549 94.3528 59.7977 94.64 59.719C95.0772 59.5997 95.2552 59.2443 95.1077 58.8411C94.9756 58.4809 94.7112 58.24 94.3452 58.0802C93.9868 57.9227 93.6055 57.9108 93.2242 57.9084C91.633 57.8917 90.0392 57.9442 88.4505 57.8035C88.2446 57.7844 88.0362 57.8011 87.8303 57.8082C87.083 57.8345 86.3356 57.8798 85.5883 57.8846C85.0011 57.8893 84.4114 57.8297 83.8242 57.8249C82.7058 57.813 81.5899 57.8201 80.4766 57.8201ZM84.4368 53.7768C83.4023 53.7768 82.3677 53.7768 81.3306 53.7768C80.2961 53.7768 79.259 53.7745 78.2244 53.784C77.9245 53.7864 77.6169 53.8007 77.3271 53.8651C76.8747 53.9653 76.6332 54.2754 76.6078 54.7072C76.5697 55.3107 76.9077 55.7305 77.5712 55.8498C78.4507 56.0072 79.3378 56.0454 80.2351 55.9953C80.868 55.9595 81.506 55.981 82.1415 55.981C82.3804 55.981 82.6194 56.0048 82.8583 56.0024C84.8486 55.9762 86.8389 55.9404 88.8267 55.9237C89.5588 55.9166 90.2908 55.95 91.0229 55.9643C91.4271 55.9714 91.816 55.9261 92.1693 55.7162C92.3447 55.6112 92.4337 55.4777 92.4616 55.2821C92.5836 54.4519 92.1083 53.8746 91.2186 53.8007C91.1068 53.7912 90.9949 53.7912 90.8831 53.7912C90.0239 53.7935 89.1622 53.7912 88.3031 53.8031C87.6498 53.8102 86.9991 53.8508 86.3458 53.846C85.7103 53.8389 85.0749 53.8007 84.4368 53.7768Z" fill="#C15E35" fill-opacity="0.25"/>
<path d="M66.3665 -20.1048C66.7325 -20.1048 67.0986 -20.1191 67.4646 -20.1024C68.0696 -20.0714 68.6695 -20.0117 69.2744 -19.9759C69.6252 -19.9545 69.976 -19.933 70.3242 -19.9521C71.4325 -20.0117 72.5179 -19.8591 73.6033 -19.6802C74.3099 -19.5657 75.0166 -19.4583 75.7258 -19.3462C76.3511 -19.246 76.9128 -19.0218 77.3983 -18.6258C77.589 -18.4707 77.8051 -18.3372 78.0237 -18.2155C78.9845 -17.6835 79.6403 -16.894 80.0241 -15.9398C80.3673 -15.0906 80.5783 -14.1937 80.8477 -13.3182C80.8604 -13.2753 80.8757 -13.2299 80.8757 -13.187C80.8579 -12.1899 80.9519 -11.1952 80.7765 -10.1909C80.53 -8.78112 79.8335 -7.59794 78.9286 -6.49826C78.6896 -6.20962 78.3668 -5.97346 78.0542 -5.74923C77.7517 -5.53216 77.4212 -5.34132 77.0831 -5.17911C76.6612 -4.97397 76.2189 -4.8046 75.7817 -4.62808C75.6521 -4.5756 75.5021 -4.56367 75.3699 -4.51358C73.5702 -3.84804 71.6892 -3.73116 69.7828 -3.76455C69.5922 -3.76694 69.399 -3.76217 69.2109 -3.73593C68.4636 -3.63097 67.9348 -3.11094 67.8967 -2.40247C67.8764 -2.01603 67.9221 -1.6272 67.9298 -1.23838C67.9374 -0.866253 67.9323 -0.494123 67.9298 -0.121996C67.9272 0.0569115 67.9043 0.235819 67.9145 0.414726C67.9501 1.0254 68.0009 1.63607 68.0365 2.24674C68.1077 3.44661 68.3187 4.61786 68.8118 5.73662C68.9847 6.13022 68.8398 6.41409 68.3695 6.48803C67.7417 6.58584 67.1062 6.6407 66.4707 6.67887C65.7895 6.72181 65.1032 6.72658 64.4194 6.74566C64.3254 6.74805 64.2262 6.74804 64.1347 6.73373C63.6009 6.65024 63.395 6.29004 63.6797 5.8559C63.9949 5.37642 64.2262 4.8731 64.3279 4.32445C64.3991 3.92847 64.4397 3.52533 64.4702 3.12219C64.5363 2.22765 64.5973 1.33311 64.6431 0.438578C64.788 -2.2498 64.7931 -4.94057 64.7321 -7.63134C64.7016 -8.96002 64.6126 -10.2935 64.6533 -11.6198C64.7016 -13.1632 64.549 -14.697 64.5389 -16.2356C64.5338 -16.863 64.3533 -17.445 63.9415 -17.9531C63.7483 -18.1916 63.578 -18.4445 63.4103 -18.6974C62.9121 -19.4559 63.5145 -20.0666 64.1728 -20.0928C64.8998 -20.1262 65.6319 -20.1048 66.3665 -20.1048ZM69.9302 -6.70579C70.9038 -6.61991 71.7553 -6.69863 72.5891 -6.93479C73.3796 -7.16141 74.1905 -7.33554 74.9607 -7.61225C75.9876 -7.97961 76.7349 -8.6523 77.0984 -9.65418C77.1797 -9.8808 77.2407 -10.1122 77.3272 -10.3364C77.7034 -11.3097 77.6907 -12.3306 77.4721 -13.3015C77.1619 -14.6803 76.2265 -15.6726 74.8031 -16.1879C73.8804 -16.5218 72.9195 -16.7318 71.9231 -16.789C71.5596 -16.8105 71.1961 -16.8749 70.8326 -16.9083C70.3903 -16.9488 69.9429 -17.018 69.5032 -16.9965C68.7203 -16.9584 68.3288 -16.5624 68.2653 -15.8253C68.2399 -15.5414 68.2272 -15.2576 68.2068 -14.9761C68.1611 -14.3511 68.0975 -13.7261 68.0696 -13.0987C68.0543 -12.7719 68.1179 -12.4428 68.1102 -12.116C68.0925 -11.324 68.0391 -10.5344 68.0264 -9.74483C68.0136 -8.98388 68.0086 -8.22054 68.0442 -7.45959C68.0696 -6.89901 68.2882 -6.72964 68.8906 -6.71294C69.2719 -6.69625 69.6557 -6.70579 69.9302 -6.70579Z" fill="#C15E35" fill-opacity="0.25"/>
<path d="M89.9832 45.4111C89.9832 45.7856 89.9731 46.1578 89.9858 46.5323C90.001 47.0094 90.0468 47.4865 90.0493 47.9635C90.0519 48.3476 90.0595 48.7436 89.9731 49.1157C89.8511 49.631 89.5181 49.8027 88.9589 49.8075C88.0692 49.817 87.177 49.8528 86.2873 49.8743C85.9213 49.8838 85.5553 49.8886 85.1892 49.891C84.3936 49.8934 83.598 49.8934 82.8049 49.8957C82.7414 49.8957 82.6753 49.9124 82.6143 49.9053C81.8797 49.8194 81.1578 49.9053 80.4282 49.984C79.5996 50.0723 79.1268 49.6119 79.2005 48.8223C79.2666 48.1043 79.2488 47.3934 79.1903 46.6754C79.1471 46.1411 79.2158 45.5996 79.2285 45.0629C79.2437 44.3759 79.2513 43.6888 79.2564 43.0018C79.2564 42.9136 79.2437 42.8229 79.2234 42.7347C79.1217 42.2886 78.9412 42.1145 78.4608 42.0668C78.1787 42.0381 77.8889 42.0811 77.6042 42.0739C77.3373 42.0668 77.0526 42.0835 76.806 42.0047C76.2595 41.8306 76.1782 41.3416 76.6332 41.0029C77.0068 40.7238 77.4237 40.4995 77.7974 40.218C78.5803 39.6288 79.3403 39.0158 80.1156 38.4194C80.4359 38.1737 80.7765 37.9519 81.1095 37.7205C81.567 37.4032 82.0805 37.3197 82.6448 37.3412C83.5522 37.3746 84.4597 37.3627 85.3671 37.3603C85.573 37.3603 85.7815 37.3341 85.9823 37.2959C86.816 37.1456 87.571 37.3126 88.2293 37.8064C88.7885 38.2262 89.3401 38.6556 89.8638 39.1136C90.5552 39.7147 91.2694 40.2825 92.0778 40.7428C92.1311 40.7738 92.1871 40.8072 92.2379 40.8406C92.7666 41.208 92.7082 41.7543 92.0981 41.988C91.8998 42.0644 91.666 42.0691 91.4448 42.0835C91.2237 42.0978 90.9975 42.0668 90.7763 42.0811C90.3239 42.1121 90.1027 42.291 90.0722 42.7204C90.0087 43.6149 89.9807 44.5094 89.94 45.404C89.9553 45.4111 89.968 45.4111 89.9832 45.4111ZM81.7322 46.0528C81.7322 46.2079 81.7297 46.4464 81.7322 46.6873C81.7373 46.9402 81.7322 47.1954 81.7627 47.4483C81.8365 48.0184 82.1466 48.288 82.7617 48.3333C82.9676 48.3476 83.176 48.3476 83.3819 48.3476C83.8751 48.35 84.3682 48.3524 84.8613 48.3452C85.3672 48.3357 85.8781 48.3428 86.3788 48.288C86.9558 48.2259 87.1389 48.0041 87.1643 47.4578C87.1668 47.3839 87.1566 47.3099 87.1566 47.2336C87.1592 46.5776 87.1592 45.9216 87.1643 45.2656C87.1694 44.426 87.1541 43.5934 86.6839 42.8349C86.3661 42.3268 85.9264 41.9857 85.2909 41.9308C84.9147 41.8974 84.5283 41.8783 84.1521 41.9189C83.0591 42.0334 82.2228 42.749 81.933 43.7485C81.7195 44.4784 81.7221 45.2227 81.7322 46.0528Z" fill="#C15E35" fill-opacity="0.25"/>
<path d="M126.132 15.7936C125.966 15.765 125.794 15.7411 125.621 15.7077C125.435 15.6696 125.252 15.598 125.064 15.5813C123.958 15.4763 123.058 14.9516 122.164 14.3886C121.287 13.8376 120.476 13.2221 119.698 12.5542C118.946 11.9077 118.173 11.2875 117.509 10.5552C117.263 10.2856 116.96 10.0543 116.663 9.83241C115.862 9.23367 115.14 8.56575 114.449 7.85728C113.674 7.06531 112.845 6.31867 112.042 5.55056C111.874 5.39074 111.714 5.22376 111.549 5.06155C109.678 3.22 107.985 1.23293 106.295 -0.751746C105.997 -1.1024 105.707 -1.46022 105.443 -1.83235C105.296 -2.04227 105.189 -2.28081 105.097 -2.51935C104.955 -2.89148 105.08 -3.23021 105.329 -3.52601C105.57 -3.81226 105.903 -3.84804 106.208 -3.6095C106.404 -3.45683 106.587 -3.28508 106.737 -3.09424C107.733 -1.84189 108.966 -0.794686 110.1 0.338394C110.362 0.598406 110.601 0.877501 110.85 1.14944C111.516 1.87223 112.174 2.60217 112.853 3.31541C113.448 3.93801 114.073 4.53676 114.675 5.1522C115.692 6.18986 116.844 7.09155 117.97 8.0171C119.06 8.91164 120.148 9.81333 121.261 10.684C122.288 11.4879 123.325 12.2823 124.515 12.8786C124.894 13.0671 125.232 13.3247 125.588 13.5489C125.997 13.8089 126.411 14.0594 126.815 14.329C127.105 14.5222 127.4 14.7464 127.316 15.1305C127.225 15.5408 126.859 15.6743 126.467 15.7507C126.365 15.7698 126.254 15.7793 126.132 15.7936Z" fill="#C15E35" fill-opacity="0.25"/>
<path d="M74.2896 42.4126C74.2387 42.9446 74.1955 43.405 74.1523 43.8654C74.1345 44.0586 74.0913 44.2542 74.104 44.445C74.1726 45.5304 73.9769 46.5967 73.7736 47.6534C73.5905 48.6076 73.2677 49.5379 72.7212 50.38C72.5306 50.6734 72.3399 50.9692 72.1798 51.2793C71.2774 53.0207 69.7879 54.118 67.8763 54.7501C67.6552 54.824 67.4112 54.8694 67.1773 54.8694C66.7401 54.8694 66.3436 54.7262 66.1453 54.3374C65.9343 53.9247 66.0233 53.5097 66.3182 53.159C66.4605 52.9897 66.6664 52.8537 66.8672 52.7416C67.0553 52.6366 67.2739 52.5698 67.4849 52.5078C68.217 52.2955 68.8575 51.952 69.3659 51.4057C69.4803 51.2817 69.6048 51.16 69.7421 51.0622C70.5504 50.4826 70.9953 49.6811 71.2927 48.7961C71.4655 48.2832 71.6282 47.7656 71.7553 47.2408C71.8722 46.747 71.9332 46.2413 72.0247 45.7403C72.1137 45.2537 72.223 44.7718 72.3018 44.2852C72.3425 44.0371 72.3501 43.7795 72.3425 43.529C72.3247 42.8277 72.2738 42.1264 72.2738 41.4251C72.2738 41.1627 72.3425 40.8884 72.4365 40.6403C72.5026 40.4661 72.6399 40.2992 72.7898 40.1751C73.1203 39.8984 73.5295 39.9342 73.7863 40.2753C73.9286 40.4637 74.043 40.6975 74.0862 40.9241C74.1853 41.437 74.2311 41.957 74.2896 42.4126Z" fill="#C15E35" fill-opacity="0.25"/>
<path d="M97.7513 45.1225C97.7259 45.4803 97.6776 45.8381 97.6776 46.1959C97.6776 46.506 97.7106 46.8209 97.7589 47.1286C97.8301 47.5867 97.9241 48.0399 98.0157 48.4955C98.069 48.7603 98.1046 49.0298 98.1936 49.2827C98.4452 50.0055 98.6994 50.7283 98.9917 51.4391C99.1951 51.9329 99.5637 52.3337 100.006 52.6676C100.217 52.8274 100.428 52.9873 100.626 53.159C101.15 53.617 101.742 53.9391 102.451 54.0869C102.756 54.1514 103.056 54.2802 103.331 54.4257C103.804 54.6762 104.04 55.1676 103.913 55.5516C103.796 55.9047 103.308 56.1957 102.797 56.1814C102.578 56.1766 102.355 56.1265 102.144 56.0669C100.921 55.7234 99.8128 55.1843 98.8926 54.3374C98.7452 54.2015 98.5952 54.0631 98.4757 53.9057C97.6369 52.7964 96.7828 51.6848 96.3914 50.3537C96.1677 49.5952 96.0203 48.8056 95.9338 48.0232C95.8271 47.0452 95.8067 46.0552 95.7737 45.0724C95.7635 44.7623 95.8093 44.445 95.8652 44.1373C95.9008 43.9346 95.9771 43.7294 96.0813 43.5481C96.3787 43.0162 97.0091 42.9708 97.4107 43.4408C97.6191 43.6817 97.7132 43.9679 97.7284 44.2709C97.7437 44.5548 97.731 44.8386 97.731 45.1225C97.7361 45.1225 97.7437 45.1225 97.7513 45.1225Z" fill="#C15E35" fill-opacity="0.25"/>
<path d="M111.734 14.2884C111.277 14.2717 110.896 14.1548 110.624 13.8566C110.128 13.3128 109.607 12.7808 109.177 12.1916C108.15 10.7866 107.151 9.36487 106.178 7.92645C105.753 7.29908 105.415 6.61685 105.049 5.95609C104.978 5.82727 104.93 5.6746 104.914 5.52909C104.879 5.20706 105.003 4.93989 105.313 4.77291C105.58 4.62978 105.86 4.65841 106.137 4.92558C106.513 5.28816 106.884 5.66506 107.194 6.07774C107.573 6.57868 107.932 7.08678 108.399 7.52331C108.554 7.66882 108.689 7.84535 108.798 8.02425C109.286 8.84007 109.935 9.53662 110.618 10.2069C110.794 10.3787 110.941 10.5767 111.091 10.7675C111.488 11.2732 111.879 11.7813 112.268 12.2894C112.416 12.4826 112.573 12.6735 112.693 12.8834C113.056 13.5322 112.787 14.0737 112.027 14.2431C111.912 14.2693 111.8 14.2789 111.734 14.2884Z" fill="#C15E35" fill-opacity="0.25"/>
<path d="M135.674 12.1344C135.684 12.7617 135.14 13.1625 134.604 12.9979C134.38 12.9287 134.161 12.819 133.971 12.6902C133.058 12.0628 132.158 11.4211 131.254 10.7842C131.203 10.7484 131.16 10.7007 131.106 10.6697C130.199 10.1401 129.395 9.48414 128.564 8.85916C127.771 8.26041 126.915 7.72846 126.157 7.09394C125.677 6.69318 125.303 6.17316 124.924 5.67699C124.711 5.39551 124.764 5.13549 124.962 4.93273C125.186 4.70612 125.471 4.65841 125.748 4.78722C126.16 4.97806 126.584 5.16889 126.94 5.43606C127.733 6.0348 128.485 6.68125 129.261 7.30385C129.454 7.45891 129.657 7.60203 129.861 7.74754C130.277 8.04572 130.694 8.3439 131.114 8.6397C131.33 8.79236 131.543 8.94742 131.764 9.09531C132.865 9.8348 133.971 10.5671 135.069 11.3114C135.234 11.4235 135.382 11.5714 135.493 11.7288C135.593 11.8743 135.638 12.0532 135.674 12.1344Z" fill="#C15E35" fill-opacity="0.25"/>
<path d="M149.004 62.1139C149.156 62.1258 149.309 62.1473 149.459 62.1473C150.325 62.1497 151.169 62.2737 151.985 62.5481C152.12 62.5934 152.255 62.6459 152.372 62.7198C152.504 62.8033 152.481 62.9441 152.331 62.9918C152.242 63.018 152.145 63.0228 152.049 63.0275C151.431 63.049 150.811 63.0872 150.193 63.0753C149.865 63.0705 149.53 63.0037 149.215 62.9154C148.765 62.7914 148.322 62.7222 147.852 62.7675C146.444 62.9035 145.033 63.0252 143.625 63.1492C143.437 63.1659 143.246 63.1659 143.058 63.1564C143.015 63.154 142.946 63.0824 142.944 63.0419C142.941 63.0013 142.997 62.9369 143.045 62.913C143.114 62.8796 143.195 62.8701 143.274 62.8558C143.9 62.7413 144.525 62.6339 145.148 62.5123C145.364 62.4694 145.575 62.3978 145.783 62.3286C145.847 62.3071 145.936 62.2475 145.941 62.1998C145.946 62.1473 145.88 62.0638 145.821 62.0352C145.427 61.842 145.023 61.6607 144.629 61.4699C144.484 61.4007 144.235 61.3983 144.273 61.1764C144.306 60.9808 144.532 60.9808 144.698 60.9498C145.087 60.8735 145.478 60.8043 145.869 60.7423C146.358 60.6636 146.68 60.425 146.777 59.9527C146.795 59.8668 146.83 59.7834 146.876 59.6474C146.624 59.6044 146.383 59.5591 146.141 59.521C145.923 59.4852 145.699 59.4685 145.483 59.4208C145.343 59.3898 145.178 59.3206 145.211 59.1608C145.229 59.0725 145.366 58.9938 145.468 58.9389C145.547 58.896 145.651 58.8888 145.745 58.8817C146.665 58.8125 147.583 58.7362 148.503 58.6861C148.752 58.6717 149.011 58.7147 149.255 58.7743C149.484 58.8292 149.507 58.9675 149.344 59.125C149.288 59.1798 149.235 59.2371 149.169 59.2776C148.777 59.5186 148.721 59.8979 148.663 60.3272C148.971 60.3392 149.253 60.3416 149.532 60.3606C149.802 60.3797 150.071 60.406 150.338 60.4489C150.478 60.4704 150.618 60.5181 150.742 60.5825C151.088 60.7566 151.093 61.0023 150.76 61.1836C150.679 61.2289 150.585 61.2528 150.498 61.291C150.038 61.4937 149.578 61.6965 149.118 61.9064C149.065 61.9302 149.027 61.9827 148.983 62.0209C148.991 62.0519 148.999 62.0829 149.004 62.1139ZM148.142 61.8515C148.767 61.842 149.237 61.5867 149.558 61.0882C149.665 60.9212 149.619 60.8067 149.4 60.7852C149.212 60.7662 149.019 60.7829 148.831 60.7876C148.287 60.8019 148.233 60.8401 148.045 61.3267C148.007 61.4245 147.964 61.5223 147.939 61.6225C147.89 61.8062 147.956 61.8754 148.142 61.8515ZM145.829 61.2695C145.829 61.2647 145.829 61.2599 145.826 61.2552C145.686 61.2695 145.547 61.2743 145.412 61.3029C145.369 61.3124 145.331 61.384 145.315 61.4341C145.308 61.4555 145.364 61.5152 145.397 61.52C145.613 61.5486 145.829 61.5772 146.045 61.5772C146.098 61.5772 146.185 61.4651 146.19 61.4007C146.192 61.3577 146.086 61.2933 146.014 61.2647C145.964 61.2432 145.892 61.2671 145.829 61.2695Z" fill="#C15E35" fill-opacity="0.25"/>
<path d="M82.7541 32.7421C82.7897 32.3103 82.8278 31.881 82.8558 31.4492C82.871 31.2106 82.8736 30.9721 82.8685 30.7336C82.8558 29.9416 83.5014 29.2236 84.3377 29.1067C85.0545 29.0065 85.7129 29.3953 85.9442 30.0967C86.0509 30.4211 86.0814 30.7693 86.1348 31.1081C86.1551 31.2393 86.1501 31.3752 86.1552 31.5112C86.1857 32.1505 86.2085 32.7922 86.2467 33.4315C86.295 34.2067 86.0331 34.5598 85.235 34.7697C84.6427 34.9248 84.0708 34.858 83.509 34.6504C83.0642 34.4858 82.8227 34.1734 82.7998 33.7297C82.782 33.4029 82.7973 33.0737 82.7973 32.7445C82.7846 32.7421 82.7693 32.7421 82.7541 32.7421Z" fill="#C15E35" fill-opacity="0.25"/>
<path d="M63.0671 43.6507C63.1281 43.3048 63.1738 42.9494 63.2526 42.6011C63.3696 42.0906 63.4916 41.5801 63.6466 41.0792C63.8424 40.447 64.338 40.0916 65.0015 39.9509C65.4844 39.8483 65.881 40.0391 66.1174 40.447C66.1707 40.5377 66.2267 40.6355 66.2444 40.7357C66.3537 41.3058 66.5164 41.8664 66.4198 42.458C66.3461 42.9136 66.3487 43.3835 66.2673 43.8367C66.1097 44.7074 65.2734 45.3753 64.4092 45.3586C63.8144 45.3467 63.3721 45.0438 63.2145 44.5023C63.1383 44.2327 63.1179 43.9465 63.0671 43.6507Z" fill="#C15E35" fill-opacity="0.25"/>
<path d="M145.315 4.77291C145.605 4.78484 145.854 4.99476 146.096 5.21422C146.38 5.47423 146.64 5.76048 146.947 5.99425C148.284 7.00568 149.512 8.14352 150.92 9.07384C151.124 9.20743 151.307 9.38872 151.449 9.57956C151.66 9.86581 151.624 10.2475 151.398 10.4979C151.157 10.7651 150.841 10.851 150.493 10.7365C150.257 10.6578 150.015 10.5552 149.817 10.4121C149.11 9.90397 148.411 9.38634 147.73 8.84962C147.107 8.3606 146.505 7.85012 145.905 7.33964C145.542 7.02953 145.173 6.71465 144.855 6.36638C144.677 6.17077 144.54 5.91076 144.474 5.65791C144.36 5.20467 144.764 4.77052 145.315 4.77291Z" fill="#C15E35" fill-opacity="0.25"/>
<path d="M97.9928 39.1351C97.9928 38.7629 97.9724 38.3908 98.003 38.0187C98.0157 37.8493 98.1021 37.6704 98.2038 37.5225C98.4961 37.0955 98.9384 37.0025 99.401 37.2649C99.7747 37.4772 100.08 37.7706 100.268 38.1403C100.563 38.72 100.84 39.3092 101.096 39.9032C101.272 40.3063 101.371 40.7309 101.274 41.1746C101.165 41.6779 100.888 42.0691 100.359 42.2409C99.8128 42.4174 99.3197 42.2767 98.9028 41.9165C98.3029 41.3988 98.0868 40.719 98.0207 39.9867C97.9953 39.7052 98.0157 39.4189 98.0157 39.1351C98.008 39.1351 98.0004 39.1351 97.9928 39.1351Z" fill="#C15E35" fill-opacity="0.25"/>
<path d="M147.133 53.5192C146.749 53.4071 146.431 53.3212 146.121 53.2139C146.05 53.19 145.958 53.0803 145.966 53.0207C145.974 52.9586 146.083 52.8704 146.159 52.8584C146.599 52.7845 147.039 52.7249 147.481 52.6676C147.781 52.6294 148.083 52.6127 148.381 52.565C148.727 52.5102 149.052 52.5722 149.352 52.7249C149.629 52.8656 149.624 53.097 149.342 53.2306C149.174 53.3117 148.983 53.3522 148.803 53.4095C147.989 53.6647 147.166 53.8961 146.365 54.1824C146.025 54.304 145.73 54.5426 145.328 54.7787C145.727 54.9075 146.025 54.9028 146.319 54.8813C147.303 54.8026 148.284 54.7191 149.268 54.638C149.332 54.6332 149.4 54.6356 149.456 54.6165C150.219 54.347 150.892 54.669 151.579 54.9004C151.637 54.9195 151.698 54.9481 151.746 54.9863C151.884 55.0888 151.861 55.2486 151.69 55.2964C151.556 55.3345 151.408 55.3345 151.266 55.3441C150.915 55.3631 150.567 55.3703 150.216 55.3918C149.817 55.418 149.428 55.4156 149.037 55.294C148.383 55.0912 147.71 55.189 147.046 55.2582C146.238 55.3417 145.435 55.4657 144.626 55.5325C144.283 55.5611 143.933 55.4991 143.587 55.4609C143.483 55.449 143.373 55.3942 143.287 55.3345C143.134 55.2296 143.139 55.0602 143.302 54.9648C143.422 54.8932 143.561 54.8503 143.696 54.8073C144.571 54.5306 145.45 54.273 146.317 53.9772C146.602 53.877 146.848 53.679 147.133 53.5192Z" fill="#C15E35" fill-opacity="0.25"/>
<path d="M147.934 45.633C146.866 46.0647 146.035 46.6396 146.075 47.9087C146.538 47.8944 146.985 47.9087 147.423 47.8586C147.969 47.7942 148.455 47.5533 148.897 47.2551C149.238 47.0261 149.502 46.7374 149.596 46.3271C149.67 45.9979 149.837 45.9431 150.148 46.0934C150.76 46.3868 150.877 46.8925 150.412 47.3743C149.825 47.985 149.062 48.319 148.221 48.4836C147.801 48.5647 147.369 48.5981 146.942 48.6195C146.101 48.6625 145.387 48.3476 144.749 47.8681C144.26 47.5008 144.233 47.0809 144.637 46.6229C144.977 46.2365 145.407 45.9979 145.951 45.9789C146.324 45.9669 146.67 45.8811 147.008 45.7332C147.295 45.602 147.598 45.5185 147.934 45.633Z" fill="#C15E35" fill-opacity="0.25"/>
<path d="M146.884 39.4905C146.635 39.3879 146.436 39.3116 146.243 39.2209C146.124 39.1637 145.925 39.1327 145.981 38.9609C146.007 38.8822 146.169 38.813 146.281 38.7916C146.609 38.7295 146.94 38.6794 147.273 38.6556C147.669 38.627 148.068 38.6174 148.465 38.6294C148.681 38.6365 148.907 38.6771 149.108 38.7534C149.291 38.8226 149.286 38.9991 149.123 39.1064C149.047 39.1565 148.955 39.1995 148.866 39.2186C148.129 39.3784 147.484 39.7457 146.805 40.0344C146.342 40.23 145.885 40.4423 145.427 40.6474C145.366 40.676 145.315 40.7214 145.277 40.8454C145.618 40.8502 145.961 40.8764 146.299 40.8573C147.504 40.7834 148.709 40.6927 149.916 40.6116C150.468 40.5759 150.989 40.7142 151.51 40.8573C151.586 40.8788 151.665 40.9098 151.721 40.9575C151.769 41.0029 151.807 41.0792 151.807 41.1412C151.807 41.1818 151.731 41.2486 151.683 41.2533C151.543 41.2724 151.398 41.2748 151.258 41.27C150.892 41.2557 150.529 41.2342 150.163 41.2128C150.02 41.2032 149.868 41.2128 149.738 41.1698C148.828 40.8764 147.913 41.0172 147.001 41.1412C146.167 41.2533 145.338 41.4012 144.504 41.5276C144.128 41.5849 143.772 41.4966 143.45 41.3201C143.211 41.1889 143.211 40.9933 143.46 40.8788C143.686 40.7739 143.933 40.6999 144.179 40.6427C145.148 40.4232 145.976 39.9199 146.884 39.4905Z" fill="#C15E35" fill-opacity="0.25"/>
</svg>
