<svg width="214" height="97" viewBox="0 0 214 97" fill="none" xmlns="http://www.w3.org/2000/svg">
<path d="M158.195 25.8211C158.137 27.4956 158.03 29.1678 158.035 30.8424C158.04 32.245 157.941 33.6524 158.104 35.0551C158.165 35.5703 158.086 36.0975 158.068 36.6199C158.055 37.0087 158.025 37.3952 158.022 37.784C158.017 38.5903 158.017 39.3965 158.027 40.2028C158.035 40.8445 158.06 41.4862 158.081 42.1303C158.086 42.2949 158.104 42.4594 158.106 42.6217C158.116 43.6068 158.127 44.5944 158.129 45.5796C158.129 45.9231 158.106 46.2666 158.078 46.6101C157.982 47.8505 157.954 49.0886 158.101 50.329C158.129 50.5651 158.129 50.8061 158.124 51.0446C158.104 51.8366 158.066 52.6262 158.05 53.4181C158.032 54.3293 158.02 55.243 158.022 56.1542C158.027 57.3803 158.055 58.6064 158.066 59.8325C158.068 60.1474 158.04 60.4599 158.032 60.7748C158.025 61.073 157.997 61.3759 158.027 61.6717C158.185 63.2103 158.162 64.7465 158.007 66.2828C157.949 66.8624 157.931 67.4468 157.857 68.0265C157.814 68.3485 157.75 68.6897 157.593 68.9711C156.998 70.035 156.096 70.7697 154.789 70.9153C153.399 71.0727 151.998 71.1657 150.602 71.2802C150.399 71.2969 150.188 71.2564 149.982 71.2588C149.426 71.2659 148.866 71.2492 148.315 71.3017C147.262 71.4019 146.213 71.4448 145.168 71.285C144.194 71.1371 143.228 71.1538 142.265 71.2898C141.482 71.3995 140.714 71.3876 139.934 71.2707C139.433 71.1967 138.92 71.1967 138.412 71.1896C137.329 71.1729 136.246 71.1681 135.163 71.1657C134.876 71.1657 134.591 71.1872 134.304 71.1896C132.789 71.2015 131.276 71.2063 129.761 71.2254C129.141 71.2325 128.521 71.2659 127.898 71.285C127.771 71.2898 127.644 71.2993 127.517 71.2969C126.419 71.285 125.321 71.2683 124.223 71.2611C123.953 71.2588 123.681 71.2874 123.412 71.3041C123.315 71.3089 123.219 71.3375 123.127 71.3279C121.704 71.1562 120.27 71.4067 118.841 71.1872C118.114 71.0751 117.347 71.0512 116.61 71.2421C116.292 71.3232 115.977 71.2993 115.664 71.223C115.163 71.1013 114.652 71.0775 114.144 71.1347C112.904 71.2755 111.661 71.1944 110.418 71.2039C109.813 71.2087 109.21 71.2492 108.605 71.2778C108.445 71.285 108.287 71.3256 108.13 71.316C107.24 71.2707 106.353 71.1991 105.461 71.1681C104.744 71.1419 104.027 71.161 103.31 71.1586C102.817 71.1562 102.324 71.1538 101.831 71.1538C101.544 71.1538 101.259 71.1538 100.972 71.161C100.639 71.1681 100.303 71.1753 99.9704 71.1944C99.2561 71.2325 98.5418 71.2778 97.825 71.3208C97.6191 71.3327 97.4107 71.3709 97.2073 71.3613C96.46 71.3303 95.7127 71.254 94.9654 71.2492C93.6283 71.2421 92.2913 71.2731 90.9543 71.2898C90.7789 71.2922 90.6035 71.3017 90.4281 71.2993C88.7886 71.2731 87.1465 71.2492 85.507 71.2158C84.8868 71.2039 84.2665 71.1657 83.6463 71.1538C83.2981 71.1466 82.9473 71.1657 82.5965 71.1729C82.0551 71.1872 81.5162 71.2087 80.9748 71.2134C79.3174 71.2325 77.6627 71.2468 76.0054 71.2564C75.7512 71.2588 75.4919 71.2564 75.2453 71.2087C74.7674 71.1156 74.2997 71.1323 73.8193 71.1848C73.4101 71.2301 72.9957 71.2206 72.584 71.2373C72.4416 71.2421 72.2967 71.2349 72.1569 71.2564C70.9038 71.4496 69.6455 71.3876 68.3924 71.2993C67.1062 71.2087 65.8225 71.0989 64.5287 71.1276C63.3518 71.1538 62.1723 71.1371 60.9954 71.1443C60.7718 71.1443 60.5506 71.1705 60.3269 71.1657C59.2847 71.1467 58.3442 70.7936 57.541 70.2163C56.8979 69.7536 56.5268 69.0713 56.42 68.2937C56.3895 68.0718 56.3743 67.8452 56.3717 67.6234C56.3514 65.9941 56.3234 64.3649 56.3234 62.7356C56.3234 60.6412 56.3488 58.5492 56.3666 56.4548C56.3717 55.887 56.3997 55.3193 56.4149 54.7516C56.42 54.618 56.4454 54.4796 56.4226 54.3484C56.237 53.3227 56.4302 52.2898 56.3565 51.2593C56.3082 50.5747 56.3666 49.8853 56.3641 49.1983C56.359 48.0461 56.3234 46.8963 56.3387 45.7442C56.3539 44.4894 56.4149 43.2347 56.4556 41.98C56.4556 41.949 56.4632 41.9203 56.4607 41.8893C56.3488 40.7682 56.4886 39.6494 56.4861 38.5306C56.4836 37.679 56.4251 36.8274 56.4022 35.9758C56.3971 35.7373 56.4353 35.4987 56.4404 35.2602C56.448 34.8284 56.4404 34.3967 56.4429 33.9649C56.4454 33.5165 56.4556 33.0704 56.4632 32.6219C56.4683 32.2498 56.5192 31.8705 56.4709 31.5032C56.3412 30.5156 56.4251 29.5328 56.448 28.5452C56.4734 27.4241 56.5115 26.3029 56.4759 25.1818C56.4556 24.5353 56.509 23.8984 56.5547 23.2591C56.5802 22.9037 56.5649 22.5459 56.5649 22.188C56.5649 21.0812 56.5166 19.9744 56.5776 18.8699C56.6285 17.942 56.6564 17.0188 56.6056 16.0933C56.5827 15.6615 56.6285 15.2274 56.6335 14.7956C56.6437 13.6291 56.6488 12.465 56.6539 11.2985C56.6564 10.7618 56.6488 10.2251 56.6437 9.68838C56.6412 9.46415 56.6539 9.23992 56.6361 9.01569C56.5446 7.89215 56.6005 6.77577 56.7276 5.657C56.7759 5.23001 56.7479 4.79347 56.7454 4.36171C56.7378 3.1666 56.725 1.96912 56.7149 0.774019C56.7149 0.640434 56.7327 0.504463 56.7225 0.37088C56.5802 -1.4826 56.7378 -3.3337 56.7276 -5.18718C56.725 -5.70959 56.7047 -6.23438 56.7098 -6.75679C56.7123 -7.06928 56.7581 -7.38416 56.7657 -7.69665C56.7733 -8.12841 56.7733 -8.56256 56.7606 -8.99432C56.7505 -9.36884 56.692 -9.74097 56.6945 -10.1131C56.7022 -11.2796 56.7301 -12.446 56.7454 -13.6125C56.7505 -13.9417 56.7225 -14.2709 56.7276 -14.6001C56.7378 -15.2871 56.7606 -15.9741 56.7784 -16.6611C56.7911 -17.1382 56.8038 -17.6177 56.8089 -18.0947C56.8115 -18.3047 56.7733 -18.5146 56.7937 -18.7221C56.8776 -19.5833 56.9309 -20.4516 57.0835 -21.3032C57.269 -22.3384 58.7001 -23.6075 59.783 -23.7935C60.6192 -23.9367 61.4581 -23.9629 62.302 -23.8556C63.2654 -23.7315 64.2338 -23.6576 65.2099 -23.6862C65.6064 -23.6981 66.0081 -23.7029 66.4021 -23.753C66.9308 -23.8198 67.4519 -23.8246 67.9679 -23.6981C68.5957 -23.5455 69.2185 -23.5645 69.8616 -23.629C71.4452 -23.7864 73.0339 -23.9176 74.6302 -23.7435C74.9454 -23.7101 75.2682 -23.7148 75.5834 -23.7435C76.7298 -23.8532 77.8736 -23.8556 79.0175 -23.7387C79.2056 -23.7196 79.4013 -23.7268 79.5894 -23.7411C80.9417 -23.8413 82.294 -23.8007 83.6488 -23.7435C84.4445 -23.7101 85.2401 -23.7411 86.0382 -23.7435C86.3077 -23.7435 86.5771 -23.7387 86.8491 -23.7435C87.3422 -23.7506 87.8354 -23.7649 88.3285 -23.7673C89.0453 -23.7721 89.7596 -23.7721 90.4764 -23.7697C90.6975 -23.7697 90.9212 -23.7435 91.1424 -23.7506C91.8261 -23.7697 92.5099 -23.8174 93.1962 -23.8246C94.5028 -23.8341 95.8118 -23.7888 97.1158 -23.8317C98.4097 -23.8747 99.6908 -23.7387 100.977 -23.7005C101.803 -23.6767 102.629 -23.7601 103.458 -23.7792C104.317 -23.7983 105.179 -23.8031 106.038 -23.7959C106.564 -23.7912 107.088 -23.753 107.614 -23.7363C107.805 -23.7291 107.998 -23.7196 108.188 -23.7411C109.701 -23.9057 111.213 -23.7768 112.723 -23.7148C113.026 -23.7029 113.333 -23.6767 113.631 -23.7172C114.774 -23.877 115.921 -23.8102 117.067 -23.8174C118.501 -23.8269 119.934 -23.815 121.368 -23.8198C121.798 -23.8222 122.227 -23.877 122.657 -23.8723C124.169 -23.8627 125.684 -23.846 127.197 -23.8174C127.865 -23.8055 128.531 -23.7506 129.2 -23.7339C129.645 -23.722 130.094 -23.7101 130.537 -23.7482C131.907 -23.8651 133.274 -23.8317 134.644 -23.7673C135.12 -23.7458 135.6 -23.753 136.076 -23.7745C136.841 -23.8126 137.601 -23.8174 138.361 -23.6934C138.732 -23.6337 139.123 -23.6266 139.499 -23.66C140.267 -23.7291 141.025 -23.6743 141.79 -23.6218C142.407 -23.5789 143.028 -23.5979 143.648 -23.5932C143.76 -23.5932 143.872 -23.6123 143.981 -23.6146C145.381 -23.6218 146.779 -23.6361 148.18 -23.6313C148.77 -23.629 149.357 -23.5717 149.944 -23.5598C150.691 -23.5455 151.441 -23.5765 152.189 -23.5455C153.223 -23.5025 154.258 -23.4572 155.287 -23.3499C156.423 -23.233 157.28 -22.6986 157.74 -21.6777C158.068 -20.9501 158.241 -20.1987 158.198 -19.4067C158.188 -19.2135 158.182 -19.0155 158.208 -18.8247C158.264 -18.4049 158.259 -17.9922 158.162 -17.5771C158.121 -17.403 158.106 -17.2217 158.106 -17.0428C158.106 -16.2222 158.116 -15.3992 158.121 -14.5786C158.132 -12.9804 158.137 -11.3798 158.152 -9.78152C158.165 -8.34787 158.188 -6.91423 158.205 -5.48059C158.208 -5.31599 158.198 -5.15139 158.19 -4.9868C158.182 -4.85321 158.154 -4.71963 158.154 -4.58366C158.16 -3.47682 158.144 -2.37475 158.048 -1.27029C158.002 -0.738344 158.124 -0.19685 158.129 0.339872C158.147 2.26969 158.152 4.19711 158.152 6.12693C158.154 7.56057 158.139 8.9966 158.139 10.4302C158.139 11.611 158.147 12.7918 158.154 13.9726C158.157 14.6596 158.17 15.349 158.165 16.036C158.16 16.9162 158.134 17.7965 158.132 18.6767C158.126 20.3966 158.132 22.1165 158.132 23.8364C158.132 24.4948 158.132 25.1531 158.132 25.8091C158.157 25.8187 158.177 25.8187 158.195 25.8211ZM138.661 -8.82734C139.126 -8.78202 139.499 -8.97763 139.83 -9.24957C140.351 -9.67895 140.931 -10.0129 141.574 -10.2514C141.736 -10.3111 141.896 -10.3803 142.049 -10.4614C142.85 -10.8931 143.709 -11.1412 144.629 -11.2223C144.85 -11.2414 145.069 -11.2963 145.29 -11.3106C146.068 -11.3607 146.851 -11.4442 147.611 -11.1913C148.152 -11.0124 148.699 -10.8502 149.23 -10.6474C149.583 -10.5138 149.924 -10.3469 150.247 -10.156C152.036 -9.10882 153.18 -7.57738 153.94 -5.76445C154.093 -5.40187 154.212 -5.02974 154.375 -4.67192C154.453 -4.49779 154.575 -4.32842 154.72 -4.19722C155.005 -3.93959 155.274 -4.00877 155.404 -4.34989C155.452 -4.47632 155.483 -4.60752 155.506 -4.7411C155.717 -5.92904 155.742 -7.1313 155.638 -8.32164C155.521 -9.65271 155.549 -10.979 155.534 -12.3077C155.521 -13.3406 155.526 -14.3711 155.48 -15.4016C155.437 -16.3725 155.333 -17.3386 155.257 -18.3071C155.236 -18.5766 155.231 -18.8462 155.191 -19.1109C155.122 -19.557 154.934 -19.9673 154.484 -20.1701C153.864 -20.4492 153.203 -20.6662 152.504 -20.5971C151.365 -20.485 150.249 -20.7187 149.118 -20.7116C148.513 -20.7068 147.908 -20.7664 147.306 -20.7378C146.345 -20.6925 145.399 -20.7569 144.451 -20.8905C144.171 -20.9286 143.874 -20.9453 143.6 -20.8976C142.74 -20.7497 141.894 -20.7617 141.035 -20.9119C140.715 -20.9692 140.374 -20.9263 140.041 -20.9167C139.708 -20.9048 139.377 -20.8714 139.044 -20.8595C138.617 -20.8452 138.188 -20.838 137.758 -20.8332C137.298 -20.8285 136.83 -20.7855 136.378 -20.8404C135.631 -20.9286 134.888 -20.9668 134.139 -20.9525C133.295 -20.9334 132.451 -20.9358 131.607 -20.9215C131.256 -20.9167 130.905 -20.9048 130.56 -20.8714C130.064 -20.8237 129.581 -20.8332 129.085 -20.8976C128.681 -20.9501 128.264 -20.9096 127.852 -20.9048C127.456 -20.9024 127.059 -20.8857 126.665 -20.8881C126.251 -20.8905 125.832 -20.9668 125.428 -20.9119C124.317 -20.7617 123.201 -20.8022 122.087 -20.7664C121.66 -20.7521 121.233 -20.8189 120.804 -20.8428C120.565 -20.8571 120.321 -20.8881 120.09 -20.8547C119.467 -20.764 118.854 -20.8094 118.234 -20.8952C117.667 -20.9716 117.098 -20.9668 116.523 -20.8809C115.257 -20.6877 113.979 -20.733 112.713 -20.8905C112.248 -20.9477 111.798 -20.9453 111.335 -20.9048C110.687 -20.8475 110.034 -20.7951 109.383 -20.7927C108.412 -20.7879 107.441 -20.8261 106.473 -20.8499C106.282 -20.8547 106.091 -20.8833 105.903 -20.9048C105.443 -20.9573 104.986 -20.974 104.525 -20.8833C104.185 -20.8165 103.832 -20.7831 103.483 -20.7784C101.795 -20.7593 100.105 -20.745 98.4173 -20.7497C97.7971 -20.7521 97.1768 -20.8165 96.5566 -20.8356C96.0813 -20.8499 95.6034 -20.8404 95.1281 -20.8332C94.9527 -20.8308 94.7798 -20.7855 94.6044 -20.7879C92.9802 -20.807 91.3533 -20.8332 89.7291 -20.8523C89.3961 -20.8571 89.0606 -20.8452 88.7276 -20.8308C88.3768 -20.8141 88.0285 -20.7664 87.6803 -20.764C86.1348 -20.7617 84.5893 -20.7736 83.0413 -20.7784C81.2874 -20.7831 79.5335 -20.7784 77.7821 -20.7951C77.1619 -20.8022 76.5442 -20.8642 75.924 -20.8905C75.591 -20.9048 75.258 -20.9024 74.9225 -20.8976C74.4777 -20.8905 74.0328 -20.869 73.588 -20.8547C73.2067 -20.8428 72.8229 -20.8452 72.4442 -20.8118C71.6638 -20.745 70.886 -20.6901 70.1107 -20.8404C69.4015 -20.9764 68.6898 -20.9859 67.9704 -20.9191C67.3375 -20.8619 66.702 -20.7855 66.0691 -20.7855C65.0676 -20.7855 64.0737 -20.807 63.0722 -20.9883C62.3503 -21.1195 61.5801 -21.0455 60.8353 -21.0097C60.365 -20.9883 60.0397 -20.7092 59.9329 -20.2655C59.8745 -20.0198 59.8312 -19.7646 59.8389 -19.5141C59.849 -19.0752 59.8084 -18.6482 59.6711 -18.2283C59.5567 -17.8777 59.5491 -17.5246 59.6406 -17.1668C59.8312 -16.4106 59.7753 -15.6592 59.6254 -14.8983C59.5516 -14.5238 59.5821 -14.1278 59.5898 -13.7413C59.5974 -13.4145 59.6635 -13.0877 59.6609 -12.7585C59.6559 -11.1126 59.6457 -9.46902 59.6228 -7.82308C59.6152 -7.39131 59.5415 -6.96194 59.5161 -6.53017C59.4957 -6.20337 59.4525 -5.86941 59.5008 -5.54738C59.6609 -4.45962 59.7016 -3.37186 59.6228 -2.27934C59.5694 -1.56132 59.5161 -0.85046 59.605 -0.130058C59.6355 0.118027 59.5923 0.378036 59.5466 0.628508C59.4398 1.20817 59.4322 1.78783 59.4703 2.37226C59.5364 3.40276 59.6152 4.43089 59.6431 5.46378C59.6762 6.64457 59.6737 7.82535 59.6609 9.00614C59.6533 9.73847 59.5999 10.4684 59.5643 11.2007C59.5618 11.2747 59.5415 11.3486 59.5364 11.4226C59.5033 11.8997 59.455 12.3744 59.4423 12.8515C59.4296 13.3452 59.45 13.839 59.4678 14.3328C59.4805 14.6906 59.5033 15.0484 59.544 15.4039C59.6584 16.4034 59.6482 17.4029 59.5415 18.4024C59.4805 18.9796 59.4703 19.5641 59.4423 20.1461C59.4245 20.4729 59.4093 20.8021 59.4042 21.1289C59.394 21.6656 59.3457 22.2071 59.3966 22.7391C59.5161 23.9938 59.4576 25.2486 59.4195 26.5033C59.3915 27.4145 59.3635 28.3281 59.4093 29.2394C59.45 30.0337 59.4983 30.8185 59.394 31.6105C59.3585 31.8753 59.3559 32.152 59.394 32.4144C59.5135 33.2517 59.4525 34.0842 59.4042 34.9215C59.3712 35.5011 59.3991 36.0856 59.4195 36.6676C59.4347 37.0874 59.7092 37.357 60.1007 37.5097C60.3167 37.5956 60.5582 37.6838 60.7845 37.679C61.275 37.6671 61.7682 37.6266 62.2486 37.5407C63.123 37.3832 63.9898 37.1829 64.8591 37.0016C66.153 36.732 67.3781 36.2645 68.6237 35.8566C68.6821 35.8375 68.7381 35.8017 68.794 35.7755C69.465 35.463 70.1463 35.1672 70.8046 34.8356C71.3232 34.5756 71.8214 34.2822 72.3145 33.984C72.6882 33.7574 73.039 33.495 73.405 33.2588C74.0354 32.8509 74.6912 32.4764 75.2962 32.0399C75.9011 31.6033 76.4807 31.1334 77.0247 30.6301C77.5178 30.1745 77.5356 29.9121 77.1746 29.3563C76.895 28.9245 76.5951 28.488 76.2265 28.123C75.8071 27.7103 75.3978 27.3 75.0674 26.8205C74.9886 26.7084 74.9022 26.6011 74.8056 26.5009C73.7914 25.4275 72.7695 24.3588 71.6104 23.4189C71.3359 23.1947 71.041 22.9728 70.7131 22.8321C69.976 22.5125 69.2185 22.2429 68.4635 21.9567C68.2754 21.8851 68.0746 21.8231 67.8433 21.9495C67.8433 22.1785 67.8408 22.4147 67.8433 22.6508C67.8586 24.2037 67.8764 25.7567 67.8942 27.312C67.8967 27.4455 67.9145 27.5815 67.9196 27.7151C67.9602 28.6168 68.1051 29.497 68.4432 30.3486C68.6796 30.9426 68.4864 31.4268 68.0467 31.9063C67.1316 32.9034 65.9445 33.5427 64.7854 34.2249C64.7041 34.2726 64.6151 34.3084 64.5236 34.3323C64.1169 34.442 63.7305 34.2893 63.5856 33.9148C63.5068 33.7145 63.4967 33.4759 63.517 33.2588C63.5373 33.0561 63.6416 32.8605 63.7051 32.6601C63.9466 31.8872 64.2567 31.1239 64.4067 30.3343C64.5744 29.4565 64.6431 28.5571 64.6481 27.6578C64.6558 26.4627 64.7397 25.2676 64.7549 24.0701C64.7727 22.7701 64.7473 21.4676 64.7473 20.1676C64.7473 19.4066 64.7574 18.6433 64.7574 17.8823C64.7574 17.5531 64.7498 17.2263 64.7371 16.8972C64.7219 16.5513 64.5617 16.2674 64.2948 16.0312C64.1093 15.8666 63.911 15.7116 63.7509 15.5279C63.4052 15.1319 63.3543 14.5475 63.6568 14.1467C63.8093 13.944 64.0127 13.7436 64.2414 13.6339C65.1082 13.2212 65.9877 12.8371 66.8748 12.465C67.0858 12.3768 67.3375 12.3481 67.5739 12.341C68.4508 12.3219 69.0228 13.0542 68.7406 13.8295C68.6643 14.037 68.5271 14.2279 68.4127 14.4235C68.3136 14.5928 68.1814 14.7503 68.1026 14.9268C67.5968 16.0432 67.6247 17.2049 67.8052 18.369C67.8738 18.8103 68.1712 18.9582 68.6389 18.858C68.7762 18.8294 68.9211 18.7864 69.0405 18.7149C69.4447 18.4787 69.8845 18.2712 70.2302 17.9706C71.191 17.1405 72.1188 16.2769 73.044 15.4086C74.0735 14.4425 74.9225 13.3381 75.7639 12.2289C76.9103 10.7165 77.8304 9.10395 78.2168 7.26001C78.2371 7.15743 78.2727 7.05725 78.3159 6.95945C78.4557 6.65172 78.6464 6.37024 78.9717 6.2128C79.1192 6.14124 79.3073 6.09592 79.47 6.11023C79.9783 6.15555 80.4054 6.56346 80.3978 7.04532C80.3774 8.31437 80.3876 9.59534 79.6784 10.7523C79.6148 10.8549 79.5691 10.9694 79.5233 11.0791C79.2081 11.871 78.743 12.5843 78.199 13.2522C77.744 13.8104 77.2865 14.371 76.7832 14.8886C75.924 15.7712 75.0445 16.6395 74.1371 17.4768C73.433 18.1257 72.6729 18.7172 71.9383 19.3374C71.8087 19.4472 71.679 19.5617 71.5723 19.6905C71.3562 19.9553 71.3308 20.2511 71.5316 20.5254C71.6536 20.6948 71.8214 20.8403 71.9917 20.9691C72.6628 21.4724 73.3948 21.9161 74.0125 22.4695C75.7486 24.0296 77.4771 25.6016 79.0226 27.3382C79.592 27.9775 79.9656 27.9703 80.5503 27.3597C81.1908 26.6917 81.7882 25.988 82.1313 25.1317C82.3372 24.614 82.5431 24.0964 82.7261 23.5716C83.0007 22.7868 83.5497 22.3216 84.4241 22.1761C85.1537 22.0545 85.8578 22.3216 86.2162 22.9299C86.3839 23.2138 86.5161 23.5287 86.5924 23.8459C86.8669 24.9742 87.482 25.9165 88.3081 26.7538C88.6437 27.0949 88.9614 27.4503 89.3046 27.7843C90.0671 28.5261 90.817 29.2823 91.6152 29.9884C92.2049 30.5108 92.8632 30.9617 93.4911 31.4459C93.5775 31.5127 93.6639 31.5795 93.7427 31.651C94.6426 32.4692 95.6924 33.1038 96.7523 33.7049C98.1275 34.4873 99.5561 35.1934 101.17 35.4725C101.356 35.5035 101.551 35.5584 101.704 35.6562C101.938 35.8041 102.169 35.9735 102.342 36.1786C102.688 36.5889 102.647 37.0374 102.39 37.4834C102.136 37.9247 101.783 38.211 101.221 38.2014C100.807 38.1919 100.387 38.2086 99.9805 38.1513C99.1621 38.0368 98.3512 37.8866 97.5378 37.7387C97.3853 37.71 97.2378 37.6409 97.093 37.5741C96.4499 37.2783 95.8042 36.9873 95.1713 36.6724C94.7925 36.4839 94.4214 36.274 94.0732 36.0402C92.8912 35.2483 91.8033 34.3466 90.7535 33.4091C90.1078 32.8318 89.5105 32.2092 88.8801 31.6177C87.7083 30.518 86.628 29.3419 85.6112 28.1111C85.0723 27.4598 84.4368 27.3978 83.8369 27.9894C83.443 28.3782 83.1227 28.8291 82.7566 29.2418C82.3499 29.7022 81.9483 30.1649 81.5136 30.5991C81.0688 31.0452 80.5859 31.4602 80.1207 31.8896C79.7445 32.2355 79.381 32.5909 78.9895 32.9201C78.4685 33.359 77.894 33.7478 77.3958 34.2058C76.6891 34.8571 75.9418 35.4558 75.1386 36.0021C73.771 36.9324 72.4238 37.889 70.8504 38.5044C70.7487 38.5449 70.6521 38.6022 70.5581 38.6571C69.7726 39.1246 68.9287 39.4705 68.0492 39.7472C67.2638 39.9953 66.4834 40.2577 65.6929 40.4891C65.2531 40.6179 64.8007 40.7491 64.3457 40.7777C63.489 40.8326 62.6299 40.8278 61.786 41.0258C61.636 41.0616 61.4682 41.0258 61.3106 41.0425C60.9776 41.0735 60.6421 41.0902 60.3167 41.1618C59.694 41.2977 59.389 41.6436 59.3661 42.24C59.3508 42.6574 59.3915 43.0773 59.394 43.4947C59.4017 44.2271 59.4067 44.957 59.3966 45.6893C59.3915 46.1378 59.3356 46.5839 59.3457 47.0323C59.3559 47.5237 59.4398 48.0175 59.4449 48.5089C59.4576 50.0499 59.455 51.5909 59.4398 53.1319C59.4296 54.0741 59.3534 55.014 59.3559 55.9538C59.3585 56.7291 59.455 57.5044 59.361 58.2796C59.3356 58.4848 59.3839 58.6971 59.3864 58.907C59.394 59.3841 59.3966 59.8612 59.3966 60.3406C59.3966 60.7581 59.389 61.1755 59.3915 61.5954C59.394 62.1941 59.4474 62.7929 59.4042 63.3868C59.3178 64.5485 59.5008 65.684 59.6991 66.8195C59.8211 67.5232 60.2659 67.9859 61.0412 68.0981C61.7478 68.1982 62.4596 68.277 63.1713 68.3462C63.6288 68.3915 64.0915 68.4082 64.5516 68.4249C64.8362 68.4344 65.1235 68.4296 65.4107 68.4201C65.8555 68.4034 66.3004 68.3581 66.7452 68.3605C67.6679 68.3652 68.5932 68.4129 69.5159 68.4106C70.6775 68.4082 71.8417 68.3628 73.0034 68.3605C76.1426 68.3557 79.2793 68.3676 82.4186 68.3724C82.4974 68.3724 82.5787 68.3795 82.6575 68.3795C83.6133 68.3748 84.5665 68.37 85.5222 68.3652C85.7281 68.3652 85.9366 68.3605 86.1425 68.37C86.811 68.401 87.4769 68.4559 88.1455 68.4654C89.18 68.4821 90.2171 68.4702 91.2466 68.6062C91.5414 68.6443 91.849 68.6038 92.1515 68.5847C92.5963 68.5537 93.0386 68.4797 93.4809 68.4773C95.2348 68.4678 96.9862 68.4702 98.7401 68.4821C99.9195 68.4893 101.099 68.5203 102.276 68.5346C102.705 68.5394 103.138 68.5561 103.56 68.5084C104.076 68.4487 104.576 68.4583 105.077 68.5728C105.626 68.6968 106.173 68.7087 106.734 68.6086C107.055 68.5513 107.395 68.5942 107.726 68.6038C108.059 68.6133 108.394 68.673 108.725 68.6515C109.408 68.6086 110.085 68.5823 110.773 68.5895C111.699 68.599 111.739 68.5298 111.778 67.683C111.805 67.0866 111.859 66.4927 111.902 65.8963C111.915 65.7317 111.943 65.5671 111.938 65.4049C111.894 64.3148 111.844 63.2246 111.8 62.1369C111.793 61.9723 111.788 61.8053 111.811 61.6431C111.925 60.8058 111.897 59.9733 111.798 59.1384C111.765 58.8593 111.79 58.5706 111.795 58.2892C111.808 57.4972 111.874 56.7052 111.826 55.9157C111.765 54.8971 111.734 53.8833 111.836 52.8695C111.917 52.0727 111.8 51.2855 111.706 50.5007C111.645 50.0046 111.429 49.8304 110.898 49.7756C110.631 49.7469 110.357 49.7517 110.087 49.766C109.419 49.7994 108.753 49.8686 108.084 49.8829C107.505 49.8972 106.943 49.9592 106.396 50.1525C105.987 50.2956 105.565 50.3528 105.128 50.3242C104.604 50.2908 104.335 50.0618 104.297 49.5728C104.269 49.215 104.276 48.8548 104.292 48.497C104.314 47.9579 104.62 47.5857 105.158 47.4331C105.519 47.3305 105.908 47.2613 106.282 47.2661C107.316 47.2804 108.348 47.3424 109.38 47.3877C109.411 47.3901 109.444 47.3973 109.475 47.3973C110.24 47.3949 111.007 47.4355 111.765 47.3782C112.66 47.309 113.544 47.2732 114.434 47.4068C114.607 47.4331 114.782 47.4378 114.957 47.4402C116.742 47.4474 118.529 47.445 120.313 47.4617C120.87 47.4665 121.429 47.4951 121.981 47.569C122.385 47.6239 122.784 47.7503 123.173 47.8791C123.445 47.9698 123.628 48.1797 123.635 48.4564C123.648 48.9192 123.651 49.3844 123.608 49.8447C123.572 50.2169 123.297 50.4268 122.891 50.4316C122.654 50.4339 122.415 50.3958 122.182 50.3552C121.447 50.224 120.715 50.069 119.978 49.9497C119.507 49.8734 119.024 49.871 118.557 49.7851C118.031 49.6873 117.515 49.704 116.991 49.7779C116.594 49.8352 116.322 50.0117 116.152 50.36C115.888 50.8991 115.72 51.4525 115.735 52.0489C115.766 53.1891 115.631 54.3174 115.501 55.4481C115.395 56.3689 115.301 57.2944 115.283 58.22C115.25 59.8802 115.262 61.5405 115.283 63.2008C115.29 63.7971 115.349 64.3959 115.425 64.9875C115.552 65.9965 115.867 66.9793 115.885 68.005C115.885 68.0647 115.906 68.1219 115.921 68.1816C116.033 68.6205 116.083 68.6658 116.559 68.6849C116.925 68.6992 117.291 68.6825 117.657 68.704C118.613 68.7612 119.566 68.8113 120.514 68.6229C120.761 68.5751 121.02 68.5895 121.274 68.5823C122.037 68.5584 122.799 68.7063 123.562 68.5584C123.742 68.5227 123.94 68.5799 124.131 68.5823C124.942 68.5871 125.758 68.6276 126.564 68.5775C127.189 68.537 127.804 68.5012 128.409 68.6706C129.05 68.8519 129.693 68.8304 130.351 68.7684C131.175 68.6897 132.003 68.661 132.83 68.63C133.465 68.6062 134.108 68.6563 134.741 68.599C136.439 68.4416 138.14 68.4201 139.843 68.4559C140.862 68.4773 141.881 68.444 142.901 68.4487C144.128 68.4535 145.353 68.4821 146.581 68.4845C147.107 68.4845 147.631 68.4368 148.157 68.4177C148.363 68.4106 148.569 68.4177 148.777 68.4177C149.764 68.4225 150.752 68.432 151.739 68.4296C152.168 68.4296 152.598 68.3843 153.025 68.4058C154.138 68.4583 154.977 67.8452 155.125 66.8052C155.211 66.1993 155.257 65.5838 155.277 64.9731C155.318 63.852 155.341 62.7308 155.346 61.6121C155.351 60.281 155.33 58.9523 155.323 57.6213C155.318 56.574 155.308 55.5268 155.313 54.482C155.318 53.1366 155.338 51.7913 155.343 50.4459C155.346 50.0714 155.315 49.6992 155.318 49.3247C155.325 48.0843 155.435 46.8486 155.356 45.6034C155.282 44.4107 155.341 43.2109 155.325 42.0158C155.308 40.5511 155.272 39.0864 155.244 37.6218C155.241 37.4572 155.252 37.2926 155.254 37.128C155.267 36.6056 155.285 36.0832 155.287 35.5608C155.29 34.9477 155.239 34.3323 155.282 33.7216C155.379 32.4049 155.386 31.0952 155.267 29.7785C155.221 29.2775 155.267 28.7623 155.325 28.259C155.374 27.8678 155.374 27.4885 155.325 27.0996C155.269 26.6416 155.226 26.1765 155.236 25.7137C155.259 24.4733 155.33 23.2329 155.346 21.9948C155.356 21.0836 155.29 20.1724 155.292 19.2587C155.295 17.9444 155.333 16.6276 155.348 15.3132C155.353 14.7908 155.353 14.266 155.338 13.7436C155.32 13.1019 155.285 12.4603 155.262 11.8186C155.249 11.4154 155.247 11.0123 155.241 10.6092C155.239 10.4446 155.247 10.28 155.249 10.1178C155.262 9.3401 155.267 8.56484 155.285 7.78719C155.297 7.3101 155.351 6.83063 155.348 6.35354C155.341 4.88889 155.318 3.42423 155.295 1.95958C155.292 1.79737 155.285 1.62562 155.226 1.47772C154.72 0.215826 153.869 -0.814678 152.783 -1.67821C151.899 -2.38191 151.068 -3.11423 150.765 -4.21869C150.758 -4.24731 150.74 -4.27356 150.73 -4.30218C150.646 -4.54549 150.486 -4.71725 150.216 -4.78642C150.267 -4.81028 150.318 -4.83175 150.369 -4.8556C150.338 -4.88184 150.308 -4.90808 150.275 -4.93193C150.254 -4.88423 150.234 -4.83652 150.214 -4.78642C150.099 -4.76018 149.972 -4.75303 149.875 -4.70055C149.753 -4.63375 149.665 -4.51925 149.55 -4.44054C149.235 -4.21869 149.049 -4.21392 148.724 -4.41668C148.432 -4.59797 148.251 -4.85799 148.155 -5.16809C148.071 -5.44003 148.028 -5.72629 147.918 -5.98868C147.811 -6.2487 147.672 -6.50871 147.494 -6.73055C147.278 -6.99772 146.922 -7.0335 146.619 -6.93808C146.332 -6.84744 146.304 -6.55164 146.314 -6.28925C146.319 -6.15566 146.347 -6.02208 146.355 -5.88849C146.385 -5.35892 146.121 -5.1824 145.59 -5.35177C145.155 -5.49251 144.713 -5.61178 144.268 -5.72867C143.994 -5.80023 143.701 -5.82647 143.432 -5.91473C142.59 -6.18906 141.736 -6.13896 140.88 -6.02923C140.699 -6.00538 140.501 -5.94097 140.361 -5.83602C140.054 -5.60463 140.066 -5.33984 140.402 -5.14901C140.671 -4.99634 140.974 -4.889 141.271 -4.78404C142.349 -4.40714 143.287 -3.84418 144.072 -3.04267C144.982 -2.11474 145.384 -1.0079 145.445 0.222984C145.475 0.826498 145.041 1.07458 144.469 0.795486C144.235 0.680986 144.011 0.514008 143.836 0.327944C143.147 -0.406769 142.237 -0.795597 141.302 -1.14626C141.004 -1.25837 140.684 -1.29415 140.364 -1.21066C140.066 -1.13194 139.949 -1.02698 139.965 -0.73596C139.975 -0.502188 140.023 -0.258875 140.11 -0.0394154C140.842 1.81407 141.373 3.72241 141.833 5.64746C142.041 6.52052 142.171 7.41029 142.326 8.29528C142.504 9.31148 142.712 10.3277 142.834 11.351C142.992 12.6702 143.394 13.9273 143.813 15.182C143.938 15.5494 144.133 15.8977 144.309 16.2507C144.537 16.7111 144.774 17.1667 145.01 17.6247C145.142 17.88 145.239 18.1614 145.417 18.3833C145.946 19.0369 146.238 19.7978 146.584 20.5349C146.924 21.2577 146.35 21.6895 145.791 21.668C145.107 21.6418 144.418 21.6155 143.747 21.4986C142.113 21.2124 140.488 21.1814 138.867 21.5464C138.353 21.6632 137.835 21.742 137.306 21.7086C136.711 21.6704 136.561 21.4414 136.726 20.9118C136.897 20.368 137.036 19.8145 137.184 19.2635C137.316 18.7721 137.438 18.2783 137.568 17.7845C137.779 16.9711 138.023 16.1648 138.198 15.3466C138.399 14.4091 138.551 13.4621 138.704 12.5175C138.755 12.2098 138.783 11.8901 138.75 11.58C138.661 10.7594 138.645 9.94123 138.706 9.11826C138.762 8.37162 138.767 7.62259 138.605 6.88311C138.467 6.25336 138.315 5.62599 138.206 4.99146C138.127 4.53585 138.183 4.04922 138.046 3.61268C137.822 2.89467 137.613 2.18858 137.527 1.43717C137.461 0.864664 137.252 0.301702 137.074 -0.254103C136.998 -0.490259 136.876 -0.731188 136.714 -0.924408C136.434 -1.25837 136.139 -1.25837 135.826 -0.95542C135.72 -0.85046 135.633 -0.716877 135.572 -0.583294C135.42 -0.246946 135.379 0.106096 135.43 0.471067C135.468 0.752548 135.499 1.03642 135.509 1.32028C135.519 1.65424 135.435 1.97627 135.254 2.2673C135.013 2.65612 134.703 2.70145 134.36 2.39372C134.2 2.2506 134.073 2.07408 133.938 1.90948C133.734 1.66617 133.536 1.41809 133.338 1.17238C133.241 1.22725 133.175 1.2678 133.104 1.30359C132.647 1.53974 132.502 1.84269 132.652 2.30069C132.708 2.47006 132.791 2.63465 132.875 2.79448C133.084 3.19762 133.3 3.59837 133.513 3.99912C133.755 4.44758 133.801 4.91274 133.635 5.39222C133.551 5.63314 133.46 5.87407 133.353 6.10785C133.119 6.6231 133.094 7.15028 133.226 7.68939C133.267 7.84921 133.315 8.00903 133.346 8.16886C133.414 8.53383 133.366 8.88688 133.178 9.21368C132.987 9.54764 132.677 9.64067 132.336 9.44506C132.123 9.32102 131.914 9.16597 131.762 8.98229C130.88 7.92077 130.178 6.77576 130.018 5.39937C129.993 5.17753 129.939 4.95568 129.873 4.74099C129.617 3.89894 129.53 3.03541 129.568 2.16473C129.624 0.926687 129.899 -0.266029 130.532 -1.3681C130.979 -2.14336 131.564 -2.80413 132.385 -3.26213C132.547 -3.35278 132.71 -3.46012 132.837 -3.58894C133.173 -3.93005 133.076 -4.28548 132.598 -4.39283C131.912 -4.5455 131.243 -4.52164 130.643 -4.08749C130.244 -3.79886 129.934 -3.44581 129.657 -3.05937C129.497 -2.83514 129.345 -2.60614 129.159 -2.40099C128.966 -2.19107 128.775 -1.91913 128.422 -1.97639C128.043 -2.03841 127.957 -2.36282 127.888 -2.65385C127.776 -3.12616 127.497 -3.48875 127.148 -3.8084C126.538 -3.55316 126.365 -3.08799 126.404 -2.52265C126.421 -2.25548 126.454 -1.98593 126.5 -1.72115C126.627 -0.969734 126.246 -0.456865 125.623 -0.0584984C125.293 0.151419 125.046 0.11087 124.797 -0.189695C124.67 -0.342361 124.566 -0.514114 124.426 -0.65724C124.103 -0.991201 123.852 -0.962574 123.648 -0.554665C123.569 -0.397226 123.524 -0.211164 123.524 -0.0370274C123.524 0.213444 123.552 0.473454 123.618 0.716766C123.791 1.35368 123.666 1.91426 123.259 2.45575C122.525 3.43616 122.026 4.50483 121.963 5.73333C121.945 6.0816 121.821 6.4418 121.671 6.76622C121.434 7.27432 120.997 7.32203 120.636 6.89027C120.433 6.64695 120.28 6.3607 120.138 6.07683C119.479 4.76723 119.248 3.37652 119.205 1.94049C119.157 0.251608 119.777 -1.25599 120.58 -2.71587C120.682 -2.89955 120.824 -3.06653 120.969 -3.22635C121.671 -3.99923 122.354 -4.79358 123.315 -5.31122C123.412 -5.3637 123.498 -5.43288 123.582 -5.49967C124.075 -5.89326 124.634 -6.16759 125.255 -6.34411C125.758 -6.48724 126.266 -6.61843 126.757 -6.79496C127.733 -7.14561 128.75 -7.19333 129.767 -7.16232C130.689 -7.13369 131.607 -7.02157 132.491 -6.73532C132.667 -6.67807 132.868 -6.67092 133.056 -6.67807C133.391 -6.69 133.442 -6.77826 133.353 -7.07405C133.257 -7.39131 133.053 -7.63463 132.771 -7.81831C132.049 -8.29062 131.289 -8.69615 130.427 -8.90606C130.135 -8.97763 129.84 -9.04919 129.558 -9.15176C129.174 -9.29489 129.126 -9.48095 129.329 -9.8173C129.439 -9.99621 129.533 -10.187 129.604 -10.3826C129.66 -10.5377 129.596 -10.6379 129.403 -10.719C128.823 -10.9599 128.28 -10.8669 127.746 -10.6188C127.433 -10.4733 127.136 -10.2968 126.833 -10.1298C126.218 -9.78868 125.611 -9.86262 125.018 -10.1775C124.734 -10.3278 124.579 -10.5592 124.627 -10.886C124.652 -11.0482 124.66 -11.2128 124.675 -11.3774C124.703 -11.6875 124.451 -11.8974 124.154 -11.771C123.915 -11.6684 123.689 -11.5133 123.498 -11.3416C123.292 -11.1579 123.137 -10.9241 122.957 -10.7142C122.677 -10.3874 122.314 -10.1942 121.876 -10.0988C120.494 -9.80299 119.22 -9.27581 118.092 -8.45999C117.99 -8.38604 117.886 -8.31686 117.776 -8.25723C117.591 -8.15704 117.395 -8.08786 117.194 -8.22383C117.001 -8.35503 116.966 -8.55302 117.011 -8.74624C117.062 -8.96332 117.131 -9.18277 117.235 -9.38076C117.649 -10.1703 118.074 -10.9504 118.681 -11.6422C119.187 -12.217 119.632 -12.8277 120.227 -13.3406C121.238 -14.2113 122.459 -14.655 123.735 -14.9913C124.314 -15.144 124.922 -15.2084 125.524 -15.2752C125.916 -15.3181 126.315 -15.2943 126.711 -15.2966C126.95 -15.299 127.194 -15.2585 127.425 -15.2966C128.333 -15.4493 129.19 -15.2966 130.054 -15.0271C131.635 -14.5357 132.997 -13.7604 134.062 -12.5415C134.24 -12.3387 134.477 -12.1646 134.721 -12.0358C135.14 -11.8139 135.341 -11.8831 135.572 -12.2838C135.661 -12.4389 135.725 -12.613 135.776 -12.7848C135.918 -13.2833 136.137 -13.7533 136.467 -14.1564C137.184 -15.0342 137.936 -15.8763 138.767 -16.6683C140.013 -17.8562 141.602 -18.276 143.234 -18.6553C143.31 -18.672 143.391 -18.6792 143.47 -18.6816C144.764 -18.7006 146.042 -18.6458 147.301 -18.2832C148.432 -17.9564 149.408 -17.372 150.404 -16.8114C150.724 -16.6325 150.943 -16.3462 151.085 -16.0194C151.253 -15.633 151.131 -15.3229 150.707 -15.2012C150.458 -15.1297 150.175 -15.132 149.911 -15.1487C148.864 -15.2131 147.817 -15.3467 146.795 -14.9603C146.444 -14.8267 146.073 -14.872 145.73 -15.0414C145.432 -15.1869 145.135 -15.33 144.843 -15.4827C144.543 -15.6378 144.222 -15.7117 143.884 -15.7212C143.65 -15.726 143.572 -15.6831 143.62 -15.4732C143.668 -15.2609 143.772 -15.0557 143.887 -14.8625C144.011 -14.655 144.192 -14.476 144.314 -14.2685C144.489 -13.9703 144.446 -13.7246 144.184 -13.5505C143.77 -13.2738 143.322 -13.1664 142.837 -13.4026C142.71 -13.4646 142.588 -13.5362 142.461 -13.5982C141.957 -13.8511 141.469 -13.7867 141.014 -13.5004C140.531 -13.1975 140.493 -12.8325 140.875 -12.4174C141.169 -12.0978 141.159 -11.9475 140.803 -11.6779C140.557 -11.4895 140.29 -11.3249 140.043 -11.1341C139.573 -10.7715 139.146 -10.3731 138.839 -9.87217C138.633 -9.53582 138.523 -9.18755 138.64 -8.79872C138.589 -8.79872 138.539 -8.79633 138.485 -8.79633C138.49 -8.77486 138.498 -8.75101 138.503 -8.72954C138.574 -8.77487 138.617 -8.80111 138.661 -8.82734ZM141.752 17.3218C141.508 17.3647 141.108 17.4005 140.735 17.5078C140.247 17.6438 139.924 18.0946 139.916 18.5503C139.909 19.0226 140.249 19.2635 140.732 19.1228C140.809 19.1013 140.882 19.0703 140.948 19.0321C141.317 18.8174 141.711 18.6743 142.135 18.5932C142.446 18.5336 142.679 18.3666 142.842 18.1066C142.946 17.9396 142.923 17.806 142.801 17.6581C142.568 17.3742 142.24 17.3432 141.752 17.3218ZM140.953 12.4149C140.73 12.4364 140.554 12.4388 140.382 12.4722C140.12 12.5223 139.919 12.6582 139.792 12.8872C139.563 13.3047 139.792 13.7484 140.282 13.7484C140.692 13.7484 141.103 13.6792 141.508 13.5981C141.767 13.5456 141.922 13.2999 141.927 13.059C141.932 12.8085 141.795 12.6058 141.513 12.5175C141.322 12.4555 141.114 12.4412 140.953 12.4149ZM141.101 10.2036C141.378 10.1965 141.647 10.1225 141.858 9.91738C142.021 9.75994 142.034 9.51186 141.899 9.40451C141.518 9.10395 140.87 9.10395 140.483 9.40213C140.265 9.57149 140.244 9.72416 140.407 9.94362C140.572 10.1655 140.821 10.1917 141.101 10.2036ZM138.887 -4.61467C138.808 -4.48586 138.739 -4.40953 138.722 -4.32604C138.714 -4.28787 138.806 -4.22823 138.851 -4.17814C138.902 -4.25924 138.966 -4.33796 138.999 -4.42622C139.011 -4.45962 138.95 -4.51448 138.887 -4.61467Z" fill="white" fill-opacity="0.5"/>
<path d="M139.21 39.3584C139.21 40.8684 139.21 42.5859 139.21 44.3058C139.21 44.604 139.189 44.9045 139.202 45.2027C139.22 45.6488 139.255 46.0949 139.283 46.5409C139.294 46.7055 139.321 46.8701 139.306 47.0323C139.263 47.507 139.197 47.9817 139.146 48.4564C139.123 48.664 139.111 48.8739 139.108 49.0838C139.083 50.849 139.095 52.6142 139.029 54.3771C138.963 56.097 138.752 57.8049 138.434 59.5034C138.246 60.5053 138.112 61.5119 137.809 62.4923C137.532 63.3916 137.082 64.2146 136.63 65.0376C136.515 65.2451 136.32 65.4169 136.157 65.5982C135.981 65.7914 135.788 65.9727 135.623 66.173C135.117 66.7932 134.439 67.1105 133.628 67.1988C133.231 67.2417 132.832 67.256 132.441 67.3228C131.159 67.5423 130.064 67.1606 129.139 66.371C128.564 65.882 128.061 65.3143 127.568 64.7489C127.184 64.3052 126.953 63.7733 126.78 63.2246C126.487 62.3063 126.231 61.3831 126.083 60.4337C125.916 59.3388 125.644 58.2558 125.532 57.1561C125.374 55.6103 125.265 54.0598 125.323 52.4997C125.377 51.0971 125.366 49.6897 125.211 48.2871C125.183 48.0366 125.191 47.7766 125.222 47.5261C125.339 46.6006 125.305 45.6774 125.234 44.7495C125.176 43.9742 125.178 43.1966 125.171 42.4189C125.163 41.5673 125.186 40.7133 125.173 39.8617C125.161 39.1294 125.105 38.3995 125.082 37.6671C125.054 36.7559 125.031 35.8423 125.023 34.931C125.018 34.3442 124.945 33.7717 124.812 33.1968C124.657 32.5265 124.551 31.8443 124.413 31.1692C124.34 30.8019 124.243 30.4393 124.157 30.0743C124.047 29.6139 124.037 29.1559 124.207 28.7027C124.421 28.1349 124.787 27.9298 125.389 28.1015C125.872 28.2399 126.358 28.2614 126.851 28.2805C127.214 28.2948 127.586 28.3186 127.941 28.3878C128.612 28.5214 128.984 28.8983 129.001 29.54C129.014 30.0743 128.961 30.6182 128.862 31.143C128.717 31.9063 128.518 32.6625 128.315 33.4163C128.091 34.2464 127.919 35.0789 127.949 35.9401C127.982 36.8966 128.023 37.8532 128.043 38.8074C128.069 39.9881 128.081 41.1689 128.089 42.3521C128.099 43.9504 128.114 45.5486 128.096 47.1468C128.074 49.1959 128.005 51.2426 127.99 53.2917C127.974 55.4362 128.117 57.5664 128.849 59.625C129.052 60.1951 129.324 60.7295 129.665 61.24C130.125 61.9294 130.799 62.1751 131.617 62.1393C132.077 62.1202 132.545 62.0868 132.995 61.9961C133.686 61.8602 134.233 61.457 134.54 60.8845C135.382 59.3149 136.035 57.6785 136.182 55.9038C136.231 55.3241 136.251 54.7397 136.284 54.16C136.304 53.8308 136.33 53.504 136.347 53.1748C136.388 52.5045 136.454 51.8318 136.459 51.1615C136.475 49.1124 136.467 47.0633 136.459 45.0143C136.457 44.5968 136.411 44.1794 136.393 43.7595C136.358 42.8197 136.317 41.8774 136.297 40.9376C136.279 40.0263 136.309 39.1127 136.269 38.2015C136.225 37.2449 136.121 36.2931 136.048 35.3389C136.03 35.1314 136.009 34.9215 136.007 34.7116C135.992 33.2422 135.834 31.7894 135.471 30.3558C135.364 29.9359 135.308 29.5018 135.262 29.07C135.237 28.8506 135.27 28.6216 135.3 28.4021C135.346 28.0634 135.575 27.8702 135.923 27.8105C137.179 27.5887 138.437 27.4694 139.723 27.5791C140.397 27.6364 141.091 27.5457 141.769 27.4813C142.672 27.3955 143.572 27.269 144.471 27.1617C145.694 27.0138 146.922 27.0353 148.147 27.0734C149.021 27.1021 149.896 27.1808 150.768 27.2619C151.37 27.3167 151.833 27.6316 152.222 28.0491C152.832 28.7074 153.152 29.4923 153.195 30.3439C153.264 31.6725 153.264 33.0036 153.277 34.3347C153.279 34.6018 153.233 34.8738 153.167 35.1338C152.89 36.2096 152.107 36.7893 151.002 37.0445C150.46 37.1686 149.909 37.1161 149.387 37.0159C147.451 36.6438 145.664 35.9592 144.26 34.5923C143.988 34.3275 143.76 34.0126 143.559 33.693C143.373 33.3996 143.424 33.0847 143.65 32.8104C143.907 32.5003 144.306 32.3977 144.67 32.5981C144.942 32.7484 145.203 32.9344 145.417 33.1491C146.154 33.8934 147.049 34.3299 148.119 34.4611C148.513 34.5088 148.904 34.5923 149.301 34.6162C150.175 34.6686 150.793 34.2798 151.116 33.5117C151.294 33.0871 151.37 32.6434 151.352 32.1926C151.332 31.6702 151.274 31.1501 151.218 30.6301C151.159 30.0814 150.834 29.6879 150.341 29.4159C149.84 29.1392 149.298 28.9508 148.709 28.9675C147.753 28.9961 146.8 29.0462 145.847 29.0915C145.148 29.1249 144.446 29.1845 143.747 29.2012C142.751 29.2275 141.792 29.4469 140.831 29.6688C140.026 29.8548 139.566 30.3534 139.428 31.0905C139.314 31.7083 139.24 32.3357 139.215 32.9607C139.164 34.3061 139.146 35.6514 139.138 36.9968C139.133 37.7124 139.179 38.4305 139.21 39.3584Z" fill="white" fill-opacity="0.5"/>
<path d="M83.7302 8.63644C83.6844 7.3817 83.6234 6.12696 83.6006 4.87223C83.5853 4.03494 83.6285 3.19765 83.6361 2.36275C83.6412 1.91429 83.6133 1.46583 83.626 1.01737C83.6438 0.375685 83.7022 -0.265997 83.7124 -0.907679C83.7276 -1.87855 83.7149 -2.84942 83.7124 -3.82029C83.7124 -3.95387 83.6844 -4.08984 83.6921 -4.22343C83.7277 -5.11796 83.7963 -6.0125 83.8039 -6.90943C83.8115 -7.77534 83.7607 -8.64125 83.7353 -9.50716C83.7149 -10.1799 83.6641 -10.8525 83.6844 -11.5229C83.7099 -12.3053 83.687 -13.0829 83.5116 -13.8439C83.3921 -14.3639 83.1634 -14.8648 82.9727 -15.3706C82.8812 -15.6091 82.7389 -15.8309 82.6575 -16.0719C82.4948 -16.5442 82.7033 -16.9354 83.2244 -17.0189C83.626 -17.0833 84.0683 -17.1191 84.4546 -17.0284C85.2757 -16.8376 86.0967 -16.8686 86.9228 -16.8686C87.0194 -16.8686 87.1135 -16.8734 87.2101 -16.8638C87.7184 -16.8161 87.8837 -16.5704 87.7489 -16.0838C87.6295 -15.6496 87.4744 -15.2203 87.421 -14.779C87.2863 -13.6363 87.1897 -12.4866 87.2024 -11.3344C87.2126 -10.4399 87.1313 -9.54533 87.1923 -8.64602C87.2177 -8.26197 87.1262 -7.87075 87.116 -7.48431C87.1033 -7.02154 87.1185 -6.55638 87.1211 -6.09361C87.1211 -5.82405 87.1465 -5.55212 87.1109 -5.28733C87.0194 -4.64565 87.0474 -4.00874 87.0652 -3.36467C87.1007 -2.01929 87.0906 -0.673904 87.0779 0.67148C87.0753 1.08893 86.9838 1.50399 86.9711 1.92144C86.9533 2.50349 86.966 3.08554 86.9762 3.66758C86.9813 4.03971 87.0169 4.41184 87.0194 4.78635C87.0245 5.33977 87.055 5.89557 86.9991 6.44423C86.933 7.09068 86.966 7.7252 87.0525 8.3645C87.0931 8.6746 87.0728 8.99186 87.088 9.30436C87.1236 10.0796 87.2202 10.8597 87.1846 11.6325C87.1465 12.5032 87.3346 13.3238 87.5863 14.1444C87.6168 14.2446 87.66 14.3424 87.6854 14.445C87.998 15.7903 88.9309 16.704 90.0926 17.4458C90.2985 17.5794 90.5374 17.6987 90.7763 17.7512C91.8516 17.9873 92.937 18.0923 94.0452 17.9301C95.1433 17.7679 96.0686 17.2717 96.8744 16.6109C97.4641 16.1291 97.8428 15.4635 98.1046 14.7646C98.6003 13.4502 98.8037 12.1025 98.6105 10.7046C98.5546 10.2943 98.613 9.86971 98.6232 9.45226C98.6308 9.08013 98.6842 8.70323 98.6486 8.33587C98.6054 7.88502 98.6181 7.44133 98.6969 6.99764C98.8087 6.34642 98.8469 5.69758 98.8138 5.03443C98.7782 4.36651 98.8494 3.69143 98.8952 3.02113C98.9765 1.82364 98.9308 0.630926 98.8342 -0.564177C98.791 -1.09851 98.8316 -1.64001 98.824 -2.17673C98.8011 -3.4911 98.7706 -4.80547 98.7427 -6.11985C98.7401 -6.28444 98.6969 -6.45142 98.7198 -6.61125C98.8214 -7.32926 98.7757 -8.04012 98.6842 -8.75814C98.6308 -9.17082 98.6588 -9.59542 98.6562 -10.0129C98.6511 -11.0148 98.6588 -12.0166 98.6486 -13.0161C98.641 -13.7866 98.4859 -14.5309 98.1326 -15.2322C98.0106 -15.4755 97.8759 -15.7164 97.7793 -15.9669C97.5937 -16.4583 97.8428 -16.8281 98.3893 -16.8281C99.0401 -16.8281 99.6933 -16.797 100.344 -16.7446C100.824 -16.7064 101.295 -16.6873 101.765 -16.809C101.991 -16.8686 102.235 -16.9115 102.469 -16.8996C102.881 -16.8781 103.135 -16.5633 103.054 -16.184C103.008 -15.9669 102.906 -15.7594 102.827 -15.5471C102.665 -15.1249 102.484 -14.7098 102.345 -14.2804C102.261 -14.0252 102.212 -13.7532 102.2 -13.4884C102.139 -12.2647 102.085 -11.041 102.111 -9.8125C102.139 -8.40748 102.067 -7.00246 102.06 -5.59744C102.057 -5.10604 102.128 -4.61464 102.151 -4.12324C102.167 -3.79644 102.2 -3.46248 102.151 -3.14283C101.986 -2.04076 102.009 -0.936302 102.078 0.170538C102.085 0.275496 102.098 0.380455 102.095 0.483028C102.078 1.54455 102.052 2.60606 102.045 3.66758C102.042 4.18999 102.08 4.7124 102.093 5.23481C102.101 5.5473 102.088 5.86218 102.088 6.17705C102.085 6.86406 102.095 7.55106 102.08 8.23807C102.073 8.66983 102.032 9.10159 102.001 9.53336C101.994 9.63832 101.961 9.74089 101.956 9.84347C101.92 10.7094 101.867 11.5753 101.862 12.4412C101.859 12.9684 101.821 13.4812 101.658 13.9893C101.452 14.6334 101.279 15.2846 101.081 15.9287C100.842 16.7135 100.316 17.3719 99.9729 18.109C99.6552 18.7888 99.1519 19.3518 98.7071 19.9505C98.5215 20.1986 98.247 20.4205 97.9623 20.5684C97.3395 20.8928 96.7168 21.2244 95.9949 21.3532C95.4636 21.4462 94.9476 21.606 94.424 21.7325C94.3172 21.7587 94.2054 21.7969 94.0986 21.7897C93.3233 21.7372 92.543 21.7396 91.7778 21.544C90.4713 21.2077 89.2893 20.6304 88.1429 19.9768C87.4541 19.5832 86.8669 19.0846 86.389 18.4716C86.267 18.3141 86.1399 18.1615 86.0103 18.0088C84.9401 16.766 84.3631 15.3252 84.0606 13.7723C83.9971 13.4479 83.9132 13.1282 83.8725 12.8014C83.8014 12.2551 83.7251 11.7041 83.7048 11.1555C83.6768 10.3182 83.6971 9.48088 83.6971 8.64359C83.7022 8.63644 83.7175 8.63644 83.7302 8.63644Z" fill="white" fill-opacity="0.5"/>
<path d="M109.081 29.0176C108.882 29.3182 108.641 29.9623 108.641 30.2318C108.638 31.279 108.638 32.3239 108.651 33.3711C108.661 34.0437 108.712 34.7164 108.722 35.3891C108.74 36.7345 108.687 38.0823 108.765 39.4253C108.844 40.7492 108.801 42.0874 109.147 43.3923C109.19 43.5497 109.2 43.7167 109.205 43.8813C109.22 44.2629 109.325 44.6112 109.533 44.9452C109.805 45.3817 109.663 45.7085 109.139 45.7324C107.868 45.7896 106.61 46.0496 105.329 45.9566C105.186 45.947 105.039 45.9327 104.907 45.8898C104.581 45.7801 104.48 45.5487 104.602 45.2457C104.612 45.2171 104.625 45.1885 104.642 45.1646C105.186 44.4562 105.273 43.6117 105.435 42.7911C105.565 42.1399 105.56 41.4887 105.524 40.8279C105.481 40.024 105.491 39.2106 105.573 38.4091C105.677 37.3786 105.707 36.3528 105.695 35.32C105.669 33.2732 105.672 31.2242 105.654 29.1775C105.652 28.834 105.598 28.4928 105.585 28.1493C105.573 27.7772 105.563 27.4027 105.578 27.0306C105.593 26.6918 105.565 26.3674 105.349 26.0883C104.978 25.6041 104.592 25.1294 104.21 24.6523C103.798 24.1323 103.178 23.9247 102.581 23.679C102.421 23.6123 102.25 23.5622 102.1 23.4811C101.699 23.264 101.536 22.9205 101.635 22.5388C101.719 22.2144 102.022 22.0021 102.456 21.9639C103.486 21.8709 104.515 21.7779 105.532 21.5942C106.157 21.4797 106.793 21.4367 107.428 21.5966C107.576 21.6347 107.743 21.6061 107.904 21.6037C108.143 21.6013 108.382 21.5751 108.62 21.5918C109.231 21.6347 109.752 21.8709 110.031 22.3885C110.514 23.2783 111.028 24.1585 111.302 25.1389C111.406 25.5134 111.561 25.876 111.729 26.2291C111.981 26.761 112.278 27.2739 112.535 27.8035C113.234 29.2443 113.905 30.6994 114.617 32.1354C115.087 33.0824 115.613 34.008 116.109 34.9454C116.294 35.2937 116.467 35.6444 116.645 35.995C117.034 36.7655 117.418 37.536 117.807 38.3065C117.947 38.5856 118.191 38.7741 118.455 38.9458C118.62 39.0555 118.699 39.0174 118.783 38.8623C119.012 38.4401 119.093 37.9869 119.126 37.5217C119.136 37.3881 119.134 37.2522 119.136 37.1186C119.146 35.5036 119.169 33.8911 119.159 32.2761C119.154 31.155 119.098 30.0338 119.075 28.9151C119.063 28.2448 119.116 27.5697 119.068 26.9018C118.991 25.8593 118.877 24.8169 118.73 23.7816C118.681 23.4357 118.483 23.1089 118.343 22.7774C118.267 22.5961 118.15 22.4291 118.097 22.2454C118.005 21.9353 118.137 21.7134 118.465 21.618C118.646 21.5655 118.841 21.5441 119.03 21.5417C119.985 21.5298 120.941 21.5274 121.897 21.5226C121.976 21.5226 122.057 21.5274 122.136 21.5369C122.835 21.6156 123.076 21.9448 122.901 22.5865C122.842 22.8036 122.774 23.0183 122.697 23.2306C122.331 24.2396 122.354 25.2916 122.309 26.334C122.276 27.1236 122.298 27.9156 122.298 28.7075C122.298 30.5777 122.303 32.4455 122.296 34.3157C122.293 34.8071 122.237 35.3009 122.222 35.7923C122.209 36.1501 122.222 36.5079 122.227 36.8681C122.227 36.9277 122.253 36.9874 122.253 37.0446C122.245 38.2827 122.265 39.5207 122.215 40.7564C122.181 41.608 122.11 42.4572 122.253 43.3064C122.337 43.8073 122.413 44.3106 122.487 44.814C122.583 45.4533 122.25 45.8683 121.556 45.9041C120.936 45.9351 120.313 45.9137 119.693 45.897C119.309 45.8874 118.991 45.7133 118.732 45.4509C118.318 45.031 117.967 44.5754 117.708 44.053C116.968 42.5764 116.117 41.1595 115.222 39.7616C115.001 39.4157 114.795 39.0627 114.591 38.7049C114.083 37.808 113.582 36.9087 113.079 36.0093C113.048 35.9569 113.013 35.9068 112.993 35.8495C112.642 34.8953 112.034 34.0676 111.536 33.185C111.246 32.6697 110.989 32.1378 110.743 31.6058C110.372 30.8091 109.947 30.0434 109.398 29.3421C109.312 29.2252 109.195 29.1298 109.081 29.0176Z" fill="white" fill-opacity="0.5"/>
<path d="M96.7091 64.7728C95.6288 64.8158 94.546 64.8563 93.4657 64.8993C93.3538 64.904 93.242 64.916 93.1327 64.9136C90.2349 64.8492 87.3372 65.009 84.4419 64.9016C83.1659 64.8539 81.8949 64.9541 80.624 64.9064C80.5274 64.904 80.4308 64.9136 80.3368 64.8993C79.442 64.7633 78.5574 64.8754 77.6729 64.978C77.4695 65.0018 77.2611 65.0066 77.0526 65.0042C75.619 64.9851 74.1879 64.9661 72.7543 64.9374C71.7197 64.9183 70.6852 64.8802 69.6506 64.8587C68.9185 64.8444 68.1865 64.8301 67.4544 64.8372C67.2028 64.8396 66.9537 64.9231 66.702 64.947C66.2292 64.9899 65.7539 65.0495 65.2785 65.0424C64.6965 65.0328 64.3203 64.7299 64.2389 64.2862C64.1423 63.7543 64.3889 63.2843 64.91 63.0744C65.126 62.9861 65.365 62.9337 65.5963 62.8931C66.4987 62.7333 67.3171 62.4065 68.1128 61.9652C69.371 61.2662 70.4945 60.4051 71.5443 59.47C72.3603 58.7425 73.0593 57.898 73.771 57.075C74.2184 56.5574 74.4065 55.9109 74.5743 55.2669C74.6607 54.9329 74.7471 54.599 74.8539 54.2698C75.0115 53.7903 75.3851 53.4945 75.8681 53.3251C76.4909 53.1057 77.106 53.3681 77.3576 53.943C77.4237 54.0933 77.4695 54.2555 77.5102 54.4153C77.6068 54.7755 77.8177 54.995 78.2422 54.9902C78.4481 54.9878 78.6566 55.014 78.8625 55.014C82.4796 55.0188 86.0967 55.0236 89.7138 55.0212C90.1587 55.0212 90.6035 54.9759 91.0458 54.9425C91.3101 54.921 91.4804 54.7898 91.5465 54.5369C91.5999 54.3342 91.6762 54.1362 91.7499 53.9406C91.91 53.5231 92.2176 53.2607 92.6955 53.225C93.1912 53.1868 93.6309 53.3371 93.8749 53.7569C94.03 54.0241 94.1062 54.3413 94.1749 54.6419C94.3121 55.2406 94.4087 55.8465 94.5434 56.4429C94.6553 56.9391 94.9654 57.3398 95.3162 57.7143C95.6848 58.1055 96.033 58.5158 96.4117 58.8975C96.6812 59.1695 96.9837 59.4152 97.2811 59.6632C98.4758 60.6651 99.8204 61.469 101.234 62.1632C101.75 62.416 102.334 62.5472 102.891 62.7237C103.102 62.7905 103.328 62.8168 103.537 62.886C103.715 62.9456 103.89 63.0243 104.045 63.1269C104.411 63.3702 104.612 63.6994 104.513 64.1311C104.419 64.5486 104.088 64.7824 103.674 64.8301C103.14 64.8921 102.591 64.9207 102.057 64.8778C101.102 64.8015 100.156 64.8086 99.1977 64.873C98.3766 64.9279 97.5429 64.8372 96.7168 64.811C96.7117 64.7991 96.7117 64.7871 96.7091 64.7728ZM80.4766 60.8202C80.4766 60.8059 80.4766 60.7939 80.4766 60.7796C79.6174 60.7796 78.7557 60.8035 77.8965 60.7725C77.0145 60.7415 76.1452 60.8202 75.2809 60.9466C75.0496 60.98 74.8056 61.0516 74.6124 61.1684C74.4065 61.2925 74.2006 61.4666 74.0862 61.6646C73.7812 62.1799 73.9871 62.6283 74.5972 62.7548C75.0267 62.843 75.4792 62.8764 75.9215 62.8716C76.8442 62.8621 77.7669 62.8001 78.6896 62.7786C79.3403 62.7643 79.9936 62.7786 80.6469 62.7881C80.9163 62.7929 81.1858 62.8263 81.4552 62.8359C81.8212 62.8478 82.1898 62.886 82.5482 62.8454C83.2803 62.7595 84.0098 62.7595 84.7419 62.8311C84.93 62.8502 85.1232 62.8454 85.3113 62.8382C85.7256 62.8216 86.1374 62.7715 86.5492 62.781C87.2812 62.7977 88.0108 62.8645 88.7403 62.8812C89.5181 62.9003 90.2985 62.8907 91.0763 62.8883C91.9685 62.886 92.8607 62.886 93.7504 62.8621C94.0478 62.8549 94.3528 62.7977 94.64 62.719C95.0772 62.5997 95.2552 62.2443 95.1077 61.8411C94.9756 61.4809 94.7112 61.24 94.3452 61.0802C93.9868 60.9227 93.6055 60.9108 93.2242 60.9084C91.633 60.8917 90.0392 60.9442 88.4505 60.8035C88.2446 60.7844 88.0362 60.8011 87.8303 60.8082C87.083 60.8345 86.3356 60.8798 85.5883 60.8846C85.0011 60.8894 84.4114 60.8297 83.8242 60.8249C82.7058 60.813 81.5899 60.8202 80.4766 60.8202ZM84.4368 56.7769C83.4023 56.7769 82.3677 56.7769 81.3306 56.7769C80.2961 56.7769 79.259 56.7745 78.2244 56.784C77.9245 56.7864 77.6169 56.8007 77.3271 56.8651C76.8747 56.9653 76.6332 57.2754 76.6078 57.7072C76.5697 58.3107 76.9077 58.7305 77.5712 58.8498C78.4507 59.0072 79.3378 59.0454 80.2351 58.9953C80.868 58.9595 81.506 58.981 82.1415 58.981C82.3804 58.981 82.6194 59.0049 82.8583 59.0025C84.8486 58.9762 86.8389 58.9405 88.8267 58.9238C89.5588 58.9166 90.2908 58.95 91.0229 58.9643C91.4271 58.9715 91.816 58.9261 92.1693 58.7162C92.3447 58.6113 92.4337 58.4777 92.4616 58.2821C92.5836 57.4519 92.1083 56.8747 91.2186 56.8007C91.1068 56.7912 90.9949 56.7912 90.8831 56.7912C90.0239 56.7936 89.1622 56.7912 88.3031 56.8031C87.6498 56.8103 86.9991 56.8508 86.3458 56.846C85.7103 56.8389 85.0749 56.8007 84.4368 56.7769Z" fill="white" fill-opacity="0.5"/>
<path d="M66.3665 -17.1048C66.7325 -17.1048 67.0986 -17.1191 67.4646 -17.1024C68.0696 -17.0714 68.6695 -17.0117 69.2744 -16.976C69.6252 -16.9545 69.976 -16.933 70.3242 -16.9521C71.4325 -17.0117 72.5179 -16.8591 73.6033 -16.6802C74.3099 -16.5657 75.0166 -16.4583 75.7258 -16.3462C76.3511 -16.246 76.9128 -16.0218 77.3983 -15.6258C77.589 -15.4708 77.8051 -15.3372 78.0237 -15.2155C78.9845 -14.6836 79.6403 -13.894 80.0241 -12.9398C80.3673 -12.0906 80.5783 -11.1937 80.8477 -10.3182C80.8604 -10.2753 80.8757 -10.23 80.8757 -10.187C80.8579 -9.18992 80.9519 -8.19519 80.7765 -7.19092C80.53 -5.78113 79.8335 -4.59796 78.9286 -3.49828C78.6896 -3.20964 78.3668 -2.97348 78.0542 -2.74925C77.7517 -2.53218 77.4212 -2.34134 77.0831 -2.17913C76.6612 -1.97399 76.2189 -1.80462 75.7817 -1.6281C75.6521 -1.57562 75.5021 -1.56369 75.3699 -1.5136C73.5702 -0.848061 71.6892 -0.731174 69.7828 -0.76457C69.5922 -0.766956 69.399 -0.762186 69.2109 -0.735947C68.4636 -0.630987 67.9348 -0.110964 67.8967 0.597509C67.8764 0.98395 67.9221 1.37278 67.9298 1.7616C67.9374 2.13373 67.9323 2.50586 67.9298 2.87799C67.9272 3.05689 67.9043 3.2358 67.9145 3.41471C67.9501 4.02538 68.0009 4.63605 68.0365 5.24672C68.1077 6.44659 68.3187 7.61784 68.8118 8.7366C68.9847 9.1302 68.8398 9.41407 68.3695 9.48801C67.7417 9.58582 67.1062 9.64068 66.4707 9.67885C65.7895 9.72179 65.1032 9.72656 64.4194 9.74564C64.3254 9.74803 64.2262 9.74803 64.1347 9.73371C63.6009 9.65022 63.395 9.29003 63.6797 8.85588C63.9949 8.37641 64.2262 7.87308 64.3279 7.32443C64.3991 6.92845 64.4397 6.52531 64.4702 6.12217C64.5363 5.22763 64.5973 4.3331 64.6431 3.43856C64.788 0.750177 64.7931 -1.94059 64.7321 -4.63136C64.7016 -5.96004 64.6126 -7.2935 64.6533 -8.6198C64.7016 -10.1632 64.549 -11.697 64.5389 -13.2356C64.5338 -13.863 64.3533 -14.445 63.9415 -14.9531C63.7483 -15.1917 63.578 -15.4445 63.4103 -15.6974C62.9121 -16.4559 63.5145 -17.0666 64.1728 -17.0929C64.8998 -17.1262 65.6319 -17.1048 66.3665 -17.1048ZM69.9302 -3.70581C70.9038 -3.61993 71.7553 -3.69865 72.5891 -3.93481C73.3796 -4.16143 74.1905 -4.33556 74.9607 -4.61227C75.9876 -4.97963 76.7349 -5.65232 77.0984 -6.6542C77.1797 -6.88082 77.2407 -7.11221 77.3272 -7.33644C77.7034 -8.30969 77.6907 -9.33066 77.4721 -10.3015C77.1619 -11.6803 76.2265 -12.6726 74.8031 -13.1879C73.8804 -13.5219 72.9195 -13.7318 71.9231 -13.789C71.5596 -13.8105 71.1961 -13.8749 70.8326 -13.9083C70.3903 -13.9489 69.9429 -14.018 69.5032 -13.9966C68.7203 -13.9584 68.3288 -13.5624 68.2653 -12.8253C68.2399 -12.5414 68.2272 -12.2576 68.2068 -11.9761C68.1611 -11.3511 68.0975 -10.7261 68.0696 -10.0988C68.0543 -9.77196 68.1179 -9.44277 68.1102 -9.11597C68.0925 -8.32401 68.0391 -7.53443 68.0264 -6.74485C68.0136 -5.9839 68.0086 -5.22056 68.0442 -4.45961C68.0696 -3.89903 68.2882 -3.72966 68.8906 -3.71296C69.2719 -3.69627 69.6557 -3.70581 69.9302 -3.70581Z" fill="white" fill-opacity="0.5"/>
<path d="M89.9832 48.4112C89.9832 48.7857 89.9731 49.1578 89.9858 49.5323C90.001 50.0094 90.0468 50.4865 90.0493 50.9636C90.0519 51.3476 90.0595 51.7436 89.9731 52.1158C89.8511 52.631 89.5181 52.8028 88.9589 52.8075C88.0692 52.8171 87.177 52.8528 86.2873 52.8743C85.9213 52.8839 85.5553 52.8886 85.1892 52.891C84.3936 52.8934 83.598 52.8934 82.8049 52.8958C82.7414 52.8958 82.6753 52.9125 82.6143 52.9053C81.8797 52.8195 81.1578 52.9053 80.4282 52.9841C79.5996 53.0723 79.1268 52.6119 79.2005 51.8223C79.2666 51.1043 79.2488 50.3935 79.1903 49.6755C79.1471 49.1411 79.2158 48.5996 79.2285 48.0629C79.2437 47.3759 79.2513 46.6889 79.2564 46.0019C79.2564 45.9136 79.2437 45.823 79.2234 45.7347C79.1217 45.2886 78.9412 45.1145 78.4608 45.0668C78.1787 45.0382 77.8889 45.0811 77.6042 45.074C77.3373 45.0668 77.0526 45.0835 76.806 45.0048C76.2595 44.8306 76.1782 44.3416 76.6332 44.0029C77.0068 43.7238 77.4237 43.4996 77.7974 43.2181C78.5803 42.6289 79.3403 42.0158 80.1156 41.4195C80.4359 41.1738 80.7765 40.9519 81.1095 40.7205C81.567 40.4033 82.0805 40.3198 82.6448 40.3413C83.5522 40.3747 84.4597 40.3627 85.3671 40.3603C85.573 40.3603 85.7815 40.3341 85.9823 40.2959C86.816 40.1457 87.571 40.3126 88.2293 40.8064C88.7885 41.2263 89.3401 41.6556 89.8638 42.1136C90.5552 42.7148 91.2694 43.2825 92.0778 43.7429C92.1311 43.7739 92.1871 43.8073 92.2379 43.8407C92.7666 44.208 92.7082 44.7543 92.0981 44.9881C91.8998 45.0644 91.666 45.0692 91.4448 45.0835C91.2237 45.0978 90.9975 45.0668 90.7763 45.0811C90.3239 45.1121 90.1027 45.291 90.0722 45.7204C90.0087 46.6149 89.9807 47.5095 89.94 48.404C89.9553 48.4112 89.968 48.4112 89.9832 48.4112ZM81.7322 49.0529C81.7322 49.2079 81.7297 49.4465 81.7322 49.6874C81.7373 49.9402 81.7322 50.1955 81.7627 50.4483C81.8365 51.0185 82.1466 51.288 82.7617 51.3333C82.9676 51.3476 83.176 51.3476 83.3819 51.3476C83.8751 51.35 84.3682 51.3524 84.8613 51.3453C85.3672 51.3357 85.8781 51.3429 86.3788 51.288C86.9558 51.226 87.1389 51.0041 87.1643 50.4579C87.1668 50.3839 87.1566 50.31 87.1566 50.2337C87.1592 49.5777 87.1592 48.9217 87.1643 48.2657C87.1694 47.426 87.1541 46.5935 86.6839 45.8349C86.3661 45.3268 85.9264 44.9857 85.2909 44.9308C84.9147 44.8974 84.5283 44.8784 84.1521 44.9189C83.0591 45.0334 82.2228 45.749 81.933 46.7485C81.7195 47.4785 81.7221 48.2227 81.7322 49.0529Z" fill="white" fill-opacity="0.5"/>
<path d="M126.132 18.7936C125.966 18.765 125.794 18.7411 125.621 18.7077C125.435 18.6696 125.252 18.598 125.064 18.5813C123.958 18.4763 123.058 17.9515 122.164 17.3886C121.287 16.8376 120.476 16.2221 119.698 15.5542C118.946 14.9077 118.173 14.2875 117.509 13.5552C117.263 13.2856 116.96 13.0543 116.663 12.8324C115.862 12.2337 115.14 11.5657 114.449 10.8573C113.674 10.0653 112.845 9.31867 112.042 8.55056C111.874 8.39074 111.714 8.22376 111.549 8.06155C109.678 6.21999 107.985 4.23293 106.295 2.24825C105.997 1.89759 105.707 1.53977 105.443 1.16765C105.296 0.957728 105.189 0.719187 105.097 0.480644C104.955 0.108516 105.08 -0.230215 105.329 -0.526009C105.57 -0.812261 105.903 -0.848044 106.208 -0.6095C106.404 -0.456833 106.587 -0.285081 106.737 -0.0942463C107.733 1.15811 108.966 2.20531 110.1 3.33839C110.362 3.5984 110.601 3.8775 110.85 4.14944C111.516 4.87222 112.174 5.60216 112.853 6.31541C113.448 6.93801 114.073 7.53675 114.675 8.15219C115.692 9.18986 116.844 10.0915 117.97 11.0171C119.06 11.9116 120.148 12.8133 121.261 13.684C122.288 14.4879 123.325 15.2822 124.515 15.8786C124.894 16.0671 125.232 16.3247 125.588 16.5489C125.997 16.8089 126.411 17.0594 126.815 17.329C127.105 17.5222 127.4 17.7464 127.316 18.1305C127.225 18.5407 126.859 18.6743 126.467 18.7507C126.365 18.7697 126.254 18.7793 126.132 18.7936Z" fill="white" fill-opacity="0.5"/>
<path d="M74.2896 45.4126C74.2387 45.9446 74.1955 46.405 74.1523 46.8654C74.1345 47.0586 74.0913 47.2542 74.104 47.445C74.1726 48.5304 73.9769 49.5967 73.7736 50.6534C73.5905 51.6076 73.2677 52.5379 72.7212 53.38C72.5306 53.6734 72.3399 53.9692 72.1798 54.2793C71.2774 56.0207 69.7879 57.118 67.8763 57.7501C67.6552 57.8241 67.4112 57.8694 67.1773 57.8694C66.7401 57.8694 66.3436 57.7263 66.1453 57.3374C65.9343 56.9247 66.0233 56.5097 66.3182 56.159C66.4605 55.9897 66.6664 55.8537 66.8672 55.7416C67.0553 55.6366 67.2739 55.5698 67.4849 55.5078C68.217 55.2955 68.8575 54.952 69.3659 54.4057C69.4803 54.2817 69.6048 54.16 69.7421 54.0622C70.5504 53.4826 70.9953 52.6811 71.2927 51.7961C71.4655 51.2832 71.6282 50.7656 71.7553 50.2408C71.8722 49.747 71.9332 49.2413 72.0247 48.7403C72.1137 48.2537 72.223 47.7718 72.3018 47.2852C72.3425 47.0371 72.3501 46.7795 72.3425 46.529C72.3247 45.8277 72.2738 45.1264 72.2738 44.4251C72.2738 44.1627 72.3425 43.8884 72.4365 43.6403C72.5026 43.4661 72.6399 43.2992 72.7898 43.1751C73.1203 42.8984 73.5295 42.9342 73.7863 43.2753C73.9286 43.4638 74.043 43.6975 74.0862 43.9241C74.1853 44.437 74.2311 44.957 74.2896 45.4126Z" fill="white" fill-opacity="0.5"/>
<path d="M97.7513 48.1224C97.7259 48.4802 97.6776 48.838 97.6776 49.1958C97.6776 49.506 97.7106 49.8208 97.7589 50.1285C97.8301 50.5866 97.9241 51.0398 98.0157 51.4954C98.069 51.7602 98.1046 52.0297 98.1936 52.2826C98.4452 53.0054 98.6994 53.7282 98.9917 54.439C99.1951 54.9328 99.5637 55.3336 100.006 55.6675C100.217 55.8273 100.428 55.9872 100.626 56.1589C101.15 56.6169 101.742 56.939 102.451 57.0869C102.756 57.1513 103.056 57.2801 103.331 57.4256C103.804 57.6761 104.04 58.1675 103.913 58.5515C103.796 58.9046 103.308 59.1956 102.797 59.1813C102.578 59.1765 102.355 59.1264 102.144 59.0668C100.921 58.7233 99.8128 58.1842 98.8926 57.3373C98.7452 57.2014 98.5952 57.063 98.4757 56.9056C97.6369 55.7963 96.7828 54.6847 96.3914 53.3537C96.1677 52.5951 96.0203 51.8055 95.9338 51.0231C95.8271 50.0451 95.8067 49.0551 95.7737 48.0723C95.7635 47.7622 95.8093 47.4449 95.8652 47.1372C95.9008 46.9345 95.9771 46.7293 96.0813 46.548C96.3787 46.0161 97.0091 45.9707 97.4107 46.4407C97.6191 46.6816 97.7132 46.9678 97.7284 47.2708C97.7437 47.5547 97.731 47.8385 97.731 48.1224C97.7361 48.1224 97.7437 48.1224 97.7513 48.1224Z" fill="white" fill-opacity="0.5"/>
<path d="M111.734 17.2884C111.277 17.2717 110.896 17.1548 110.624 16.8566C110.128 16.3127 109.607 15.7808 109.177 15.1916C108.15 13.7865 107.151 12.3648 106.178 10.9264C105.753 10.299 105.415 9.61681 105.049 8.95605C104.978 8.82724 104.93 8.67457 104.914 8.52905C104.879 8.20702 105.003 7.93985 105.313 7.77287C105.58 7.62975 105.86 7.65837 106.137 7.92554C106.513 8.28813 106.884 8.66503 107.194 9.0777C107.573 9.57865 107.932 10.0867 108.399 10.5233C108.554 10.6688 108.689 10.8453 108.798 11.0242C109.286 11.84 109.935 12.5366 110.618 13.2069C110.794 13.3786 110.941 13.5766 111.091 13.7675C111.488 14.2732 111.879 14.7813 112.268 15.2894C112.416 15.4826 112.573 15.6734 112.693 15.8833C113.056 16.5322 112.787 17.0737 112.027 17.243C111.912 17.2693 111.8 17.2788 111.734 17.2884Z" fill="white" fill-opacity="0.5"/>
<path d="M135.674 15.1343C135.684 15.7617 135.14 16.1624 134.604 15.9978C134.38 15.9287 134.161 15.8189 133.971 15.6901C133.058 15.0627 132.158 14.4211 131.254 13.7842C131.203 13.7484 131.16 13.7007 131.106 13.6697C130.199 13.1401 129.395 12.4841 128.564 11.8591C127.771 11.2604 126.915 10.7284 126.157 10.0939C125.677 9.69314 125.303 9.17312 124.924 8.67695C124.711 8.39547 124.764 8.13545 124.962 7.93269C125.186 7.70608 125.471 7.65837 125.748 7.78718C126.16 7.97802 126.584 8.16885 126.94 8.43602C127.733 9.03476 128.485 9.68121 129.261 10.3038C129.454 10.4589 129.657 10.602 129.861 10.7475C130.277 11.0457 130.694 11.3439 131.114 11.6397C131.33 11.7923 131.543 11.9474 131.764 12.0953C132.865 12.8348 133.971 13.5671 135.069 14.3113C135.234 14.4235 135.382 14.5714 135.493 14.7288C135.593 14.8743 135.638 15.0532 135.674 15.1343Z" fill="white" fill-opacity="0.5"/>
<path d="M149.004 65.114C149.156 65.1259 149.309 65.1474 149.459 65.1474C150.325 65.1498 151.169 65.2738 151.985 65.5481C152.12 65.5935 152.255 65.6459 152.372 65.7199C152.504 65.8034 152.481 65.9441 152.331 65.9918C152.242 66.0181 152.145 66.0228 152.049 66.0276C151.431 66.0491 150.811 66.0872 150.193 66.0753C149.865 66.0705 149.53 66.0038 149.215 65.9155C148.765 65.7914 148.322 65.7223 147.852 65.7676C146.444 65.9036 145.033 66.0252 143.625 66.1493C143.437 66.166 143.246 66.166 143.058 66.1564C143.015 66.154 142.946 66.0825 142.944 66.0419C142.941 66.0014 142.997 65.937 143.045 65.9131C143.114 65.8797 143.195 65.8702 143.274 65.8559C143.9 65.7414 144.525 65.634 145.148 65.5124C145.364 65.4694 145.575 65.3979 145.783 65.3287C145.847 65.3072 145.936 65.2476 145.941 65.1999C145.946 65.1474 145.88 65.0639 145.821 65.0353C145.427 64.842 145.023 64.6608 144.629 64.4699C144.484 64.4007 144.235 64.3984 144.273 64.1765C144.306 63.9809 144.532 63.9809 144.698 63.9499C145.087 63.8736 145.478 63.8044 145.869 63.7424C146.358 63.6636 146.68 63.4251 146.777 62.9528C146.795 62.8669 146.83 62.7834 146.876 62.6474C146.624 62.6045 146.383 62.5592 146.141 62.521C145.923 62.4852 145.699 62.4685 145.483 62.4208C145.343 62.3898 145.178 62.3206 145.211 62.1608C145.229 62.0726 145.366 61.9938 145.468 61.939C145.547 61.896 145.651 61.8889 145.745 61.8817C146.665 61.8125 147.583 61.7362 148.503 61.6861C148.752 61.6718 149.011 61.7147 149.255 61.7744C149.484 61.8292 149.507 61.9676 149.344 62.125C149.288 62.1799 149.235 62.2372 149.169 62.2777C148.777 62.5186 148.721 62.8979 148.663 63.3273C148.971 63.3392 149.253 63.3416 149.532 63.3607C149.802 63.3798 150.071 63.406 150.338 63.449C150.478 63.4704 150.618 63.5181 150.742 63.5825C151.088 63.7567 151.093 64.0024 150.76 64.1837C150.679 64.229 150.585 64.2528 150.498 64.291C150.038 64.4938 149.578 64.6965 149.118 64.9065C149.065 64.9303 149.027 64.9828 148.983 65.021C148.991 65.052 148.999 65.083 149.004 65.114ZM148.142 64.8516C148.767 64.842 149.237 64.5868 149.558 64.0882C149.665 63.9213 149.619 63.8068 149.4 63.7853C149.212 63.7662 149.019 63.7829 148.831 63.7877C148.287 63.802 148.233 63.8402 148.045 64.3268C148.007 64.4246 147.964 64.5224 147.939 64.6226C147.89 64.8063 147.956 64.8754 148.142 64.8516ZM145.829 64.2695C145.829 64.2648 145.829 64.26 145.826 64.2552C145.686 64.2695 145.547 64.2743 145.412 64.3029C145.369 64.3125 145.331 64.384 145.315 64.4341C145.308 64.4556 145.364 64.5152 145.397 64.52C145.613 64.5486 145.829 64.5773 146.045 64.5773C146.098 64.5773 146.185 64.4651 146.19 64.4007C146.192 64.3578 146.086 64.2934 146.014 64.2648C145.964 64.2433 145.892 64.2672 145.829 64.2695Z" fill="white" fill-opacity="0.5"/>
<path d="M82.7541 35.7421C82.7897 35.3103 82.8278 34.8809 82.8558 34.4492C82.871 34.2106 82.8736 33.9721 82.8685 33.7335C82.8558 32.9416 83.5014 32.2235 84.3377 32.1067C85.0545 32.0065 85.7129 32.3953 85.9442 33.0966C86.0509 33.421 86.0814 33.7693 86.1348 34.108C86.1551 34.2392 86.1501 34.3752 86.1552 34.5112C86.1857 35.1505 86.2085 35.7921 86.2467 36.4314C86.295 37.2067 86.0331 37.5598 85.235 37.7697C84.6427 37.9247 84.0708 37.8579 83.509 37.6504C83.0642 37.4858 82.8227 37.1733 82.7998 36.7296C82.782 36.4028 82.7973 36.0736 82.7973 35.7444C82.7846 35.7421 82.7693 35.7421 82.7541 35.7421Z" fill="white" fill-opacity="0.5"/>
<path d="M63.0671 46.6507C63.1281 46.3048 63.1738 45.9494 63.2526 45.6011C63.3696 45.0906 63.4916 44.5801 63.6466 44.0792C63.8424 43.4471 64.338 43.0916 65.0015 42.9509C65.4844 42.8483 65.881 43.0392 66.1174 43.4471C66.1707 43.5377 66.2267 43.6355 66.2444 43.7357C66.3537 44.3058 66.5164 44.8664 66.4198 45.458C66.3461 45.9136 66.3487 46.3835 66.2673 46.8368C66.1097 47.7074 65.2734 48.3754 64.4092 48.3587C63.8144 48.3467 63.3721 48.0438 63.2145 47.5023C63.1383 47.2327 63.1179 46.9465 63.0671 46.6507Z" fill="white" fill-opacity="0.5"/>
<path d="M145.315 7.77296C145.605 7.78489 145.854 7.99481 146.096 8.21427C146.38 8.47428 146.64 8.76053 146.947 8.9943C148.284 10.0057 149.512 11.1436 150.92 12.0739C151.124 12.2075 151.307 12.3888 151.449 12.5796C151.66 12.8659 151.624 13.2475 151.398 13.498C151.157 13.7652 150.841 13.851 150.493 13.7365C150.257 13.6578 150.015 13.5552 149.817 13.4121C149.11 12.904 148.411 12.3864 147.73 11.8497C147.107 11.3607 146.505 10.8502 145.905 10.3397C145.542 10.0296 145.173 9.7147 144.855 9.36643C144.677 9.17082 144.54 8.91081 144.474 8.65796C144.36 8.20472 144.764 7.77057 145.315 7.77296Z" fill="white" fill-opacity="0.5"/>
<path d="M97.9928 42.135C97.9928 41.7628 97.9724 41.3907 98.003 41.0186C98.0157 40.8492 98.1021 40.6703 98.2038 40.5224C98.4961 40.0954 98.9384 40.0024 99.401 40.2648C99.7747 40.4771 100.08 40.7705 100.268 41.1402C100.563 41.7199 100.84 42.3091 101.096 42.9031C101.272 43.3062 101.371 43.7308 101.274 44.1745C101.165 44.6778 100.888 45.0691 100.359 45.2408C99.8128 45.4173 99.3197 45.2766 98.9028 44.9164C98.3029 44.3987 98.0868 43.7189 98.0207 42.9866C97.9953 42.7051 98.0157 42.4188 98.0157 42.135C98.008 42.135 98.0004 42.135 97.9928 42.135Z" fill="white" fill-opacity="0.5"/>
<path d="M147.133 56.5193C146.749 56.4071 146.431 56.3213 146.121 56.2139C146.05 56.1901 145.958 56.0803 145.966 56.0207C145.974 55.9587 146.083 55.8704 146.159 55.8585C146.599 55.7845 147.039 55.7249 147.481 55.6677C147.781 55.6295 148.083 55.6128 148.381 55.5651C148.727 55.5102 149.052 55.5722 149.352 55.7249C149.629 55.8656 149.624 56.097 149.342 56.2306C149.174 56.3117 148.983 56.3523 148.803 56.4095C147.989 56.6648 147.166 56.8961 146.365 57.1824C146.025 57.3041 145.73 57.5426 145.328 57.7788C145.727 57.9076 146.025 57.9028 146.319 57.8813C147.303 57.8026 148.284 57.7191 149.268 57.638C149.332 57.6332 149.4 57.6356 149.456 57.6166C150.219 57.347 150.892 57.669 151.579 57.9004C151.637 57.9195 151.698 57.9481 151.746 57.9863C151.884 58.0889 151.861 58.2487 151.69 58.2964C151.556 58.3346 151.408 58.3346 151.266 58.3441C150.915 58.3632 150.567 58.3703 150.216 58.3918C149.817 58.4181 149.428 58.4157 149.037 58.294C148.383 58.0913 147.71 58.1891 147.046 58.2582C146.238 58.3417 145.435 58.4658 144.626 58.5326C144.283 58.5612 143.933 58.4992 143.587 58.461C143.483 58.4491 143.373 58.3942 143.287 58.3346C143.134 58.2296 143.139 58.0602 143.302 57.9648C143.422 57.8933 143.561 57.8503 143.696 57.8074C144.571 57.5307 145.45 57.2731 146.317 56.9773C146.602 56.8771 146.848 56.6791 147.133 56.5193Z" fill="white" fill-opacity="0.5"/>
<path d="M147.934 48.6329C146.866 49.0647 146.035 49.6396 146.075 50.9086C146.538 50.8943 146.985 50.9086 147.423 50.8585C147.969 50.7941 148.455 50.5532 148.897 50.255C149.238 50.026 149.502 49.7374 149.596 49.3271C149.67 48.9979 149.837 48.943 150.148 49.0933C150.76 49.3867 150.877 49.8924 150.412 50.3743C149.825 50.985 149.062 51.3189 148.221 51.4835C147.801 51.5646 147.369 51.598 146.942 51.6195C146.101 51.6624 145.387 51.3476 144.749 50.8681C144.26 50.5007 144.233 50.0809 144.637 49.6229C144.977 49.2364 145.407 48.9979 145.951 48.9788C146.324 48.9669 146.67 48.881 147.008 48.7331C147.295 48.6019 147.598 48.5184 147.934 48.6329Z" fill="white" fill-opacity="0.5"/>
<path d="M146.884 42.4904C146.635 42.3879 146.436 42.3115 146.243 42.2209C146.124 42.1636 145.925 42.1326 145.981 41.9609C146.007 41.8821 146.169 41.813 146.281 41.7915C146.609 41.7295 146.94 41.6794 147.273 41.6555C147.669 41.6269 148.068 41.6174 148.465 41.6293C148.681 41.6364 148.907 41.677 149.108 41.7533C149.291 41.8225 149.286 41.999 149.123 42.1064C149.047 42.1565 148.955 42.1994 148.866 42.2185C148.129 42.3783 147.484 42.7457 146.805 43.0343C146.342 43.2299 145.885 43.4422 145.427 43.6474C145.366 43.676 145.315 43.7213 145.277 43.8454C145.618 43.8501 145.961 43.8764 146.299 43.8573C147.504 43.7833 148.709 43.6927 149.916 43.6116C150.468 43.5758 150.989 43.7142 151.51 43.8573C151.586 43.8788 151.665 43.9098 151.721 43.9575C151.769 44.0028 151.807 44.0791 151.807 44.1411C151.807 44.1817 151.731 44.2485 151.683 44.2533C151.543 44.2723 151.398 44.2747 151.258 44.27C150.892 44.2557 150.529 44.2342 150.163 44.2127C150.02 44.2032 149.868 44.2127 149.738 44.1698C148.828 43.8764 147.913 44.0171 147.001 44.1411C146.167 44.2533 145.338 44.4012 144.504 44.5276C144.128 44.5848 143.772 44.4966 143.45 44.3201C143.211 44.1889 143.211 43.9933 143.46 43.8788C143.686 43.7738 143.933 43.6998 144.179 43.6426C145.148 43.4231 145.976 42.9198 146.884 42.4904Z" fill="white" fill-opacity="0.5"/>
</svg>
